<?xml version="1.0" encoding="us-ascii" standalone="no"?><svg xmlns="http://www.w3.org/2000/svg" xmlns:xlink="http://www.w3.org/1999/xlink" contentStyleType="text/css" height="2264px" preserveAspectRatio="none" style="width:1785px;height:2264px;background:#FFFFFF;" version="1.1" viewBox="0 0 1785 2264" width="1785px" zoomAndPan="magnify"><defs/><g><rect fill="#FFFFFF" height="278.1055" style="stroke:#181818;stroke-width:1.0;" width="10" x="283" y="112.7988"/><rect fill="#FFFFFF" height="261.7949" style="stroke:#181818;stroke-width:1.0;" width="10" x="283" y="444.5254"/><rect fill="#FFFFFF" height="513.2109" style="stroke:#181818;stroke-width:1.0;" width="10" x="283" y="742.6309"/><rect fill="#FFFFFF" height="690.3848" style="stroke:#181818;stroke-width:1.0;" width="10" x="283" y="1374.084"/><rect fill="#FFFFFF" height="71.6211" style="stroke:#181818;stroke-width:1.0;" width="10" x="283" y="2093.7793"/><rect fill="#FFFFFF" height="188.8633" style="stroke:#181818;stroke-width:1.0;" width="10" x="547" y="157.4199"/><rect fill="#FFFFFF" height="187.8633" style="stroke:#181818;stroke-width:1.0;" width="10" x="547" y="489.1465"/><rect fill="#FFFFFF" height="408.6582" style="stroke:#181818;stroke-width:1.0;" width="10" x="547" y="802.5625"/><rect fill="#FFFFFF" height="601.1426" style="stroke:#181818;stroke-width:1.0;" width="10" x="547" y="1418.7051"/><rect fill="#FFFFFF" height="130.2422" style="stroke:#181818;stroke-width:1.0;" width="10" x="837" y="186.7305"/><rect fill="#FFFFFF" height="113.9316" style="stroke:#181818;stroke-width:1.0;" width="10" x="837" y="533.7676"/><rect fill="#FFFFFF" height="261.7949" style="stroke:#181818;stroke-width:1.0;" width="10" x="837" y="920.1152"/><rect fill="#FFFFFF" height="500.2109" style="stroke:#181818;stroke-width:1.0;" width="10" x="837" y="1490.3262"/><rect fill="#FFFFFF" height="44.6211" style="stroke:#181818;stroke-width:1.0;" width="10" x="1113" y="1783.7422"/><rect fill="#FFFFFF" height="50.6211" style="stroke:#181818;stroke-width:1.0;" width="10" x="1241" y="1872.9844"/><rect fill="#FFFFFF" height="29.3105" style="stroke:#181818;stroke-width:1.0;" width="10" x="1422" y="216.041"/><rect fill="#FFFFFF" height="29.3105" style="stroke:#181818;stroke-width:1.0;" width="10" x="1503" y="1064.668"/><rect fill="#FFFFFF" height="29.3105" style="stroke:#181818;stroke-width:1.0;" width="10" x="1503" y="1519.6367"/><rect fill="#FFFFFF" height="29.3105" style="stroke:#181818;stroke-width:1.0;" width="10" x="1503" y="1635.8789"/><rect fill="#FFFFFF" height="29.3105" style="stroke:#181818;stroke-width:1.0;" width="10" x="1586.5" y="1123.2891"/><rect fill="#FFFFFF" height="29.3105" style="stroke:#181818;stroke-width:1.0;" width="10" x="1711" y="1709.8105"/><rect fill="none" height="308.416" style="stroke:#000000;stroke-width:1.5;" width="1068" x="10" y="405.9043"/><rect fill="none" height="17.3105" style="stroke:#000000;stroke-width:1.5;" width="159" x="30" y="1328.4629"/><line style="stroke:#181818;stroke-width:0.5;stroke-dasharray:5.0,5.0;" x1="56" x2="56" y1="81.4883" y2="2183.4004"/><line style="stroke:#181818;stroke-width:0.5;stroke-dasharray:5.0,5.0;" x1="288" x2="288" y1="81.4883" y2="2183.4004"/><line style="stroke:#181818;stroke-width:0.5;stroke-dasharray:5.0,5.0;" x1="552" x2="552" y1="81.4883" y2="2183.4004"/><line style="stroke:#181818;stroke-width:0.5;stroke-dasharray:5.0,5.0;" x1="842" x2="842" y1="81.4883" y2="2183.4004"/><line style="stroke:#181818;stroke-width:0.5;stroke-dasharray:5.0,5.0;" x1="1118" x2="1118" y1="81.4883" y2="2183.4004"/><line style="stroke:#181818;stroke-width:0.5;stroke-dasharray:5.0,5.0;" x1="1246" x2="1246" y1="81.4883" y2="2183.4004"/><line style="stroke:#181818;stroke-width:0.5;stroke-dasharray:5.0,5.0;" x1="1427" x2="1427" y1="81.4883" y2="2183.4004"/><line style="stroke:#181818;stroke-width:0.5;stroke-dasharray:5.0,5.0;" x1="1508" x2="1508" y1="81.4883" y2="2183.4004"/><line style="stroke:#181818;stroke-width:0.5;stroke-dasharray:5.0,5.0;" x1="1591" x2="1591" y1="81.4883" y2="2183.4004"/><line style="stroke:#181818;stroke-width:0.5;stroke-dasharray:5.0,5.0;" x1="1716" x2="1716" y1="81.4883" y2="2183.4004"/><text fill="#000000" font-family="sans-serif" font-size="14" lengthAdjust="spacing" textLength="66" x="20" y="78.5352">Thu ng&#226;n</text><ellipse cx="56" cy="13.5" fill="#E2E2F0" rx="8" ry="8" style="stroke:#181818;stroke-width:0.5;"/><path d="M56,21.5 L56,48.5 M43,29.5 L69,29.5 M56,48.5 L43,63.5 M56,48.5 L69,63.5 " fill="none" style="stroke:#181818;stroke-width:0.5;"/><text fill="#000000" font-family="sans-serif" font-size="14" lengthAdjust="spacing" textLength="66" x="20" y="2195.9355">Thu ng&#226;n</text><ellipse cx="56" cy="2207.3887" fill="#E2E2F0" rx="8" ry="8" style="stroke:#181818;stroke-width:0.5;"/><path d="M56,2215.3887 L56,2242.3887 M43,2223.3887 L69,2223.3887 M56,2242.3887 L43,2257.3887 M56,2242.3887 L69,2257.3887 " fill="none" style="stroke:#181818;stroke-width:0.5;"/><text fill="#000000" font-family="sans-serif" font-size="14" lengthAdjust="spacing" textLength="84" x="243" y="78.5352">Thu ng&#226;n UI</text><path d="M267.5,37 L267.5,61 M267.5,49 L284.5,49 " fill="none" style="stroke:#181818;stroke-width:0.5;"/><ellipse cx="296.5" cy="49" fill="#E2E2F0" rx="12" ry="12" style="stroke:#181818;stroke-width:0.5;"/><text fill="#000000" font-family="sans-serif" font-size="14" lengthAdjust="spacing" textLength="84" x="243" y="2195.9355">Thu ng&#226;n UI</text><path d="M267.5,2202.8887 L267.5,2226.8887 M267.5,2214.8887 L284.5,2214.8887 " fill="none" style="stroke:#181818;stroke-width:0.5;"/><ellipse cx="296.5" cy="2214.8887" fill="#E2E2F0" rx="12" ry="12" style="stroke:#181818;stroke-width:0.5;"/><text fill="#000000" font-family="sans-serif" font-size="14" lengthAdjust="spacing" textLength="176" x="461" y="78.5352">InvoicePaymentController</text><ellipse cx="552" cy="49" fill="#E2E2F0" rx="12" ry="12" style="stroke:#181818;stroke-width:0.5;"/><polygon fill="#181818" points="548,37,554,32,552,37,554,42,548,37" style="stroke:#181818;stroke-width:1.0;"/><text fill="#000000" font-family="sans-serif" font-size="14" lengthAdjust="spacing" textLength="176" x="461" y="2195.9355">InvoicePaymentController</text><ellipse cx="552" cy="2214.8887" fill="#E2E2F0" rx="12" ry="12" style="stroke:#181818;stroke-width:0.5;"/><polygon fill="#181818" points="548,2202.8887,554,2197.8887,552,2202.8887,554,2207.8887,548,2202.8887" style="stroke:#181818;stroke-width:1.0;"/><text fill="#000000" font-family="sans-serif" font-size="14" lengthAdjust="spacing" textLength="154" x="762" y="78.5352">InvoicePaymentService</text><ellipse cx="842" cy="49" fill="#E2E2F0" rx="12" ry="12" style="stroke:#181818;stroke-width:0.5;"/><line style="stroke:#181818;stroke-width:0.5;" x1="830" x2="854" y1="63" y2="63"/><text fill="#000000" font-family="sans-serif" font-size="14" lengthAdjust="spacing" textLength="154" x="762" y="2195.9355">InvoicePaymentService</text><ellipse cx="842" cy="2214.8887" fill="#E2E2F0" rx="12" ry="12" style="stroke:#181818;stroke-width:0.5;"/><line style="stroke:#181818;stroke-width:0.5;" x1="830" x2="854" y1="2228.8887" y2="2228.8887"/><text fill="#000000" font-family="sans-serif" font-size="14" lengthAdjust="spacing" textLength="102" x="1064" y="78.5352">RoutingService</text><ellipse cx="1118" cy="49" fill="#E2E2F0" rx="12" ry="12" style="stroke:#181818;stroke-width:0.5;"/><line style="stroke:#181818;stroke-width:0.5;" x1="1106" x2="1130" y1="63" y2="63"/><text fill="#000000" font-family="sans-serif" font-size="14" lengthAdjust="spacing" textLength="102" x="1064" y="2195.9355">RoutingService</text><ellipse cx="1118" cy="2214.8887" fill="#E2E2F0" rx="12" ry="12" style="stroke:#181818;stroke-width:0.5;"/><line style="stroke:#181818;stroke-width:0.5;" x1="1106" x2="1130" y1="2228.8887" y2="2228.8887"/><text fill="#000000" font-family="sans-serif" font-size="14" lengthAdjust="spacing" textLength="122" x="1182" y="78.5352">WebSocketService</text><ellipse cx="1246" cy="49" fill="#E2E2F0" rx="12" ry="12" style="stroke:#181818;stroke-width:0.5;"/><line style="stroke:#181818;stroke-width:0.5;" x1="1234" x2="1258" y1="63" y2="63"/><text fill="#000000" font-family="sans-serif" font-size="14" lengthAdjust="spacing" textLength="122" x="1182" y="2195.9355">WebSocketService</text><ellipse cx="1246" cy="2214.8887" fill="#E2E2F0" rx="12" ry="12" style="stroke:#181818;stroke-width:0.5;"/><line style="stroke:#181818;stroke-width:0.5;" x1="1234" x2="1258" y1="2228.8887" y2="2228.8887"/><text fill="#000000" font-family="sans-serif" font-size="14" lengthAdjust="spacing" textLength="82" x="1383" y="78.5352">Prescription</text><ellipse cx="1427" cy="49" fill="#E2E2F0" rx="12" ry="12" style="stroke:#181818;stroke-width:0.5;"/><line style="stroke:#181818;stroke-width:0.5;" x1="1415" x2="1439" y1="63" y2="63"/><text fill="#000000" font-family="sans-serif" font-size="14" lengthAdjust="spacing" textLength="82" x="1383" y="2195.9355">Prescription</text><ellipse cx="1427" cy="2214.8887" fill="#E2E2F0" rx="12" ry="12" style="stroke:#181818;stroke-width:0.5;"/><line style="stroke:#181818;stroke-width:0.5;" x1="1415" x2="1439" y1="2228.8887" y2="2228.8887"/><text fill="#000000" font-family="sans-serif" font-size="14" lengthAdjust="spacing" textLength="48" x="1481" y="78.5352">Invoice</text><ellipse cx="1508" cy="49" fill="#E2E2F0" rx="12" ry="12" style="stroke:#181818;stroke-width:0.5;"/><line style="stroke:#181818;stroke-width:0.5;" x1="1496" x2="1520" y1="63" y2="63"/><text fill="#000000" font-family="sans-serif" font-size="14" lengthAdjust="spacing" textLength="48" x="1481" y="2195.9355">Invoice</text><ellipse cx="1508" cy="2214.8887" fill="#E2E2F0" rx="12" ry="12" style="stroke:#181818;stroke-width:0.5;"/><line style="stroke:#181818;stroke-width:0.5;" x1="1496" x2="1520" y1="2228.8887" y2="2228.8887"/><text fill="#000000" font-family="sans-serif" font-size="14" lengthAdjust="spacing" textLength="87" x="1545" y="78.5352">InvoiceDetail</text><ellipse cx="1591.5" cy="49" fill="#E2E2F0" rx="12" ry="12" style="stroke:#181818;stroke-width:0.5;"/><line style="stroke:#181818;stroke-width:0.5;" x1="1579.5" x2="1603.5" y1="63" y2="63"/><text fill="#000000" font-family="sans-serif" font-size="14" lengthAdjust="spacing" textLength="87" x="1545" y="2195.9355">InvoiceDetail</text><ellipse cx="1591.5" cy="2214.8887" fill="#E2E2F0" rx="12" ry="12" style="stroke:#181818;stroke-width:0.5;"/><line style="stroke:#181818;stroke-width:0.5;" x1="1579.5" x2="1603.5" y1="2228.8887" y2="2228.8887"/><text fill="#000000" font-family="sans-serif" font-size="14" lengthAdjust="spacing" textLength="130" x="1648" y="78.5352">PrescriptionService</text><ellipse cx="1716" cy="49" fill="#E2E2F0" rx="12" ry="12" style="stroke:#181818;stroke-width:0.5;"/><line style="stroke:#181818;stroke-width:0.5;" x1="1704" x2="1728" y1="63" y2="63"/><text fill="#000000" font-family="sans-serif" font-size="14" lengthAdjust="spacing" textLength="130" x="1648" y="2195.9355">PrescriptionService</text><ellipse cx="1716" cy="2214.8887" fill="#E2E2F0" rx="12" ry="12" style="stroke:#181818;stroke-width:0.5;"/><line style="stroke:#181818;stroke-width:0.5;" x1="1704" x2="1728" y1="2228.8887" y2="2228.8887"/><rect fill="#FFFFFF" height="278.1055" style="stroke:#181818;stroke-width:1.0;" width="10" x="283" y="112.7988"/><rect fill="#FFFFFF" height="261.7949" style="stroke:#181818;stroke-width:1.0;" width="10" x="283" y="444.5254"/><rect fill="#FFFFFF" height="513.2109" style="stroke:#181818;stroke-width:1.0;" width="10" x="283" y="742.6309"/><rect fill="#FFFFFF" height="690.3848" style="stroke:#181818;stroke-width:1.0;" width="10" x="283" y="1374.084"/><rect fill="#FFFFFF" height="71.6211" style="stroke:#181818;stroke-width:1.0;" width="10" x="283" y="2093.7793"/><rect fill="#FFFFFF" height="188.8633" style="stroke:#181818;stroke-width:1.0;" width="10" x="547" y="157.4199"/><rect fill="#FFFFFF" height="187.8633" style="stroke:#181818;stroke-width:1.0;" width="10" x="547" y="489.1465"/><rect fill="#FFFFFF" height="408.6582" style="stroke:#181818;stroke-width:1.0;" width="10" x="547" y="802.5625"/><rect fill="#FFFFFF" height="601.1426" style="stroke:#181818;stroke-width:1.0;" width="10" x="547" y="1418.7051"/><rect fill="#FFFFFF" height="130.2422" style="stroke:#181818;stroke-width:1.0;" width="10" x="837" y="186.7305"/><rect fill="#FFFFFF" height="113.9316" style="stroke:#181818;stroke-width:1.0;" width="10" x="837" y="533.7676"/><rect fill="#FFFFFF" height="261.7949" style="stroke:#181818;stroke-width:1.0;" width="10" x="837" y="920.1152"/><rect fill="#FFFFFF" height="500.2109" style="stroke:#181818;stroke-width:1.0;" width="10" x="837" y="1490.3262"/><rect fill="#FFFFFF" height="44.6211" style="stroke:#181818;stroke-width:1.0;" width="10" x="1113" y="1783.7422"/><rect fill="#FFFFFF" height="50.6211" style="stroke:#181818;stroke-width:1.0;" width="10" x="1241" y="1872.9844"/><rect fill="#FFFFFF" height="29.3105" style="stroke:#181818;stroke-width:1.0;" width="10" x="1422" y="216.041"/><rect fill="#FFFFFF" height="29.3105" style="stroke:#181818;stroke-width:1.0;" width="10" x="1503" y="1064.668"/><rect fill="#FFFFFF" height="29.3105" style="stroke:#181818;stroke-width:1.0;" width="10" x="1503" y="1519.6367"/><rect fill="#FFFFFF" height="29.3105" style="stroke:#181818;stroke-width:1.0;" width="10" x="1503" y="1635.8789"/><rect fill="#FFFFFF" height="29.3105" style="stroke:#181818;stroke-width:1.0;" width="10" x="1586.5" y="1123.2891"/><rect fill="#FFFFFF" height="29.3105" style="stroke:#181818;stroke-width:1.0;" width="10" x="1711" y="1709.8105"/><polygon fill="#181818" points="271,108.7988,281,112.7988,271,116.7988,275,112.7988" style="stroke:#181818;stroke-width:1.0;"/><line style="stroke:#181818;stroke-width:1.0;" x1="56" x2="277" y1="112.7988" y2="112.7988"/><text fill="#000000" font-family="sans-serif" font-size="13" lengthAdjust="spacing" textLength="147" x="63" y="108.0566">Qu&#233;t m&#227; phi&#7871;u ch&#7881; &#273;&#7883;nh</text><polygon fill="#181818" points="535,153.4199,545,157.4199,535,161.4199,539,157.4199" style="stroke:#181818;stroke-width:1.0;"/><line style="stroke:#181818;stroke-width:1.0;" x1="293" x2="541" y1="157.4199" y2="157.4199"/><text fill="#000000" font-family="sans-serif" font-size="13" lengthAdjust="spacing" textLength="193" x="300" y="137.3672">POST /invoice-payments/scan</text><text fill="#000000" font-family="sans-serif" font-size="13" lengthAdjust="spacing" textLength="108" x="300" y="152.6777">prescriptionCode</text><polygon fill="#181818" points="825,182.7305,835,186.7305,825,190.7305,829,186.7305" style="stroke:#181818;stroke-width:1.0;"/><line style="stroke:#181818;stroke-width:1.0;" x1="557" x2="831" y1="186.7305" y2="186.7305"/><text fill="#000000" font-family="sans-serif" font-size="13" lengthAdjust="spacing" textLength="220" x="564" y="181.9883">scanPrescription(prescriptionCode)</text><polygon fill="#181818" points="1410,212.041,1420,216.041,1410,220.041,1414,216.041" style="stroke:#181818;stroke-width:1.0;"/><line style="stroke:#181818;stroke-width:1.0;" x1="847" x2="1416" y1="216.041" y2="216.041"/><text fill="#000000" font-family="sans-serif" font-size="13" lengthAdjust="spacing" textLength="169" x="854" y="211.2988">findFirst(prescriptionCode)</text><polygon fill="#181818" points="858,241.3516,848,245.3516,858,249.3516,854,245.3516" style="stroke:#181818;stroke-width:1.0;"/><line style="stroke:#181818;stroke-width:1.0;stroke-dasharray:2.0,2.0;" x1="852" x2="1426" y1="245.3516" y2="245.3516"/><text fill="#000000" font-family="sans-serif" font-size="13" lengthAdjust="spacing" textLength="75" x="864" y="240.6094">Prescription</text><line style="stroke:#181818;stroke-width:1.0;" x1="847" x2="889" y1="274.6621" y2="274.6621"/><line style="stroke:#181818;stroke-width:1.0;" x1="889" x2="889" y1="274.6621" y2="287.6621"/><line style="stroke:#181818;stroke-width:1.0;" x1="848" x2="889" y1="287.6621" y2="287.6621"/><polygon fill="#181818" points="858,283.6621,848,287.6621,858,291.6621,854,287.6621" style="stroke:#181818;stroke-width:1.0;"/><text fill="#000000" font-family="sans-serif" font-size="13" lengthAdjust="spacing" textLength="232" x="854" y="269.9199">validateStatus(status != CANCELLED)</text><polygon fill="#181818" points="568,312.9727,558,316.9727,568,320.9727,564,316.9727" style="stroke:#181818;stroke-width:1.0;"/><line style="stroke:#181818;stroke-width:1.0;stroke-dasharray:2.0,2.0;" x1="562" x2="841" y1="316.9727" y2="316.9727"/><text fill="#000000" font-family="sans-serif" font-size="13" lengthAdjust="spacing" textLength="119" x="574" y="312.2305">PrescriptionDetails</text><polygon fill="#181818" points="304,342.2832,294,346.2832,304,350.2832,300,346.2832" style="stroke:#181818;stroke-width:1.0;"/><line style="stroke:#181818;stroke-width:1.0;stroke-dasharray:2.0,2.0;" x1="298" x2="551" y1="346.2832" y2="346.2832"/><text fill="#000000" font-family="sans-serif" font-size="13" lengthAdjust="spacing" textLength="172" x="310" y="341.541">200 OK prescription details</text><polygon fill="#181818" points="67,386.9043,57,390.9043,67,394.9043,63,390.9043" style="stroke:#181818;stroke-width:1.0;"/><line style="stroke:#181818;stroke-width:1.0;stroke-dasharray:2.0,2.0;" x1="61" x2="287" y1="390.9043" y2="390.9043"/><text fill="#000000" font-family="sans-serif" font-size="13" lengthAdjust="spacing" textLength="168" x="73" y="370.8516">Hi&#7875;n th&#7883; danh s&#225;ch d&#7883;ch v&#7909;</text><text fill="#000000" font-family="sans-serif" font-size="13" lengthAdjust="spacing" textLength="121" x="73" y="386.1621">v&#224; gi&#225; t&#7915;ng d&#7883;ch v&#7909;</text><path d="M10,405.9043 L84,405.9043 L84,413.2148 L74,423.2148 L10,423.2148 L10,405.9043 " fill="#EEEEEE" style="stroke:#000000;stroke-width:1.5;"/><rect fill="none" height="308.416" style="stroke:#000000;stroke-width:1.5;" width="1068" x="10" y="405.9043"/><text fill="#000000" font-family="sans-serif" font-size="13" font-weight="bold" lengthAdjust="spacing" textLength="29" x="25" y="419.4727">loop</text><text fill="#000000" font-family="sans-serif" font-size="11" font-weight="bold" lengthAdjust="spacing" textLength="181" x="99" y="418.5391">[Ch&#7885;n d&#7883;ch v&#7909; v&#224; xem t&#7893;ng ti&#7873;n]</text><polygon fill="#181818" points="271,440.5254,281,444.5254,271,448.5254,275,444.5254" style="stroke:#181818;stroke-width:1.0;"/><line style="stroke:#181818;stroke-width:1.0;" x1="56" x2="277" y1="444.5254" y2="444.5254"/><text fill="#000000" font-family="sans-serif" font-size="13" lengthAdjust="spacing" textLength="128" x="63" y="439.7832">T&#237;ch/b&#7887; t&#237;ch d&#7883;ch v&#7909;</text><polygon fill="#181818" points="535,485.1465,545,489.1465,535,493.1465,539,489.1465" style="stroke:#181818;stroke-width:1.0;"/><line style="stroke:#181818;stroke-width:1.0;" x1="293" x2="541" y1="489.1465" y2="489.1465"/><text fill="#000000" font-family="sans-serif" font-size="13" lengthAdjust="spacing" textLength="212" x="300" y="469.0938">POST /invoice-payments/preview</text><text fill="#000000" font-family="sans-serif" font-size="13" lengthAdjust="spacing" textLength="231" x="300" y="484.4043">prescriptionCode, selectedServiceIds</text><polygon fill="#181818" points="825,529.7676,835,533.7676,825,537.7676,829,533.7676" style="stroke:#181818;stroke-width:1.0;"/><line style="stroke:#181818;stroke-width:1.0;" x1="557" x2="831" y1="533.7676" y2="533.7676"/><text fill="#000000" font-family="sans-serif" font-size="13" lengthAdjust="spacing" textLength="138" x="564" y="513.7148">createPaymentPreview</text><text fill="#000000" font-family="sans-serif" font-size="13" lengthAdjust="spacing" textLength="239" x="564" y="529.0254">(prescriptionCode, selectedServiceIds)</text><line style="stroke:#181818;stroke-width:1.0;" x1="847" x2="889" y1="563.0781" y2="563.0781"/><line style="stroke:#181818;stroke-width:1.0;" x1="889" x2="889" y1="563.0781" y2="576.0781"/><line style="stroke:#181818;stroke-width:1.0;" x1="848" x2="889" y1="576.0781" y2="576.0781"/><polygon fill="#181818" points="858,572.0781,848,576.0781,858,580.0781,854,576.0781" style="stroke:#181818;stroke-width:1.0;"/><text fill="#000000" font-family="sans-serif" font-size="13" lengthAdjust="spacing" textLength="212" x="854" y="558.3359">filterSelectedServices(selectedIds)</text><line style="stroke:#181818;stroke-width:1.0;" x1="847" x2="889" y1="605.3887" y2="605.3887"/><line style="stroke:#181818;stroke-width:1.0;" x1="889" x2="889" y1="605.3887" y2="618.3887"/><line style="stroke:#181818;stroke-width:1.0;" x1="848" x2="889" y1="618.3887" y2="618.3887"/><polygon fill="#181818" points="858,614.3887,848,618.3887,858,622.3887,854,618.3887" style="stroke:#181818;stroke-width:1.0;"/><text fill="#000000" font-family="sans-serif" font-size="13" lengthAdjust="spacing" textLength="197" x="854" y="600.6465">calculateTotalAmount(services)</text><polygon fill="#181818" points="568,643.6992,558,647.6992,568,651.6992,564,647.6992" style="stroke:#181818;stroke-width:1.0;"/><line style="stroke:#181818;stroke-width:1.0;stroke-dasharray:2.0,2.0;" x1="562" x2="841" y1="647.6992" y2="647.6992"/><text fill="#000000" font-family="sans-serif" font-size="13" lengthAdjust="spacing" textLength="187" x="574" y="642.957">PaymentPreview  totalAmount</text><polygon fill="#181818" points="304,673.0098,294,677.0098,304,681.0098,300,677.0098" style="stroke:#181818;stroke-width:1.0;"/><line style="stroke:#181818;stroke-width:1.0;stroke-dasharray:2.0,2.0;" x1="298" x2="551" y1="677.0098" y2="677.0098"/><text fill="#000000" font-family="sans-serif" font-size="13" lengthAdjust="spacing" textLength="98" x="310" y="672.2676">200 OK preview</text><polygon fill="#181818" points="67,702.3203,57,706.3203,67,710.3203,63,706.3203" style="stroke:#181818;stroke-width:1.0;"/><line style="stroke:#181818;stroke-width:1.0;stroke-dasharray:2.0,2.0;" x1="61" x2="287" y1="706.3203" y2="706.3203"/><text fill="#000000" font-family="sans-serif" font-size="13" lengthAdjust="spacing" textLength="111" x="73" y="701.5781">Hi&#7875;n th&#7883; t&#7893;ng ti&#7873;n</text><polygon fill="#181818" points="271,738.6309,281,742.6309,271,746.6309,275,742.6309" style="stroke:#181818;stroke-width:1.0;"/><line style="stroke:#181818;stroke-width:1.0;" x1="56" x2="277" y1="742.6309" y2="742.6309"/><text fill="#000000" font-family="sans-serif" font-size="13" lengthAdjust="spacing" textLength="208" x="63" y="737.8887">Ch&#7885;n CASH v&#224; nh&#7845;n T&#7841;o h&#243;a &#273;&#417;n</text><polygon fill="#181818" points="535,798.5625,545,802.5625,535,806.5625,539,802.5625" style="stroke:#181818;stroke-width:1.0;"/><line style="stroke:#181818;stroke-width:1.0;" x1="293" x2="541" y1="802.5625" y2="802.5625"/><text fill="#000000" font-family="sans-serif" font-size="13" lengthAdjust="spacing" textLength="202" x="300" y="767.1992">POST /invoice-payments/create</text><text fill="#000000" font-family="sans-serif" font-size="13" lengthAdjust="spacing" textLength="235" x="300" y="782.5098">prescriptionCode, selectedServiceIds,</text><text fill="#000000" font-family="sans-serif" font-size="13" lengthAdjust="spacing" textLength="140" x="300" y="797.8203">paymentMethod CASH</text><line style="stroke:#181818;stroke-width:1.0;" x1="557" x2="599" y1="831.873" y2="831.873"/><line style="stroke:#181818;stroke-width:1.0;" x1="599" x2="599" y1="831.873" y2="844.873"/><line style="stroke:#181818;stroke-width:1.0;" x1="558" x2="599" y1="844.873" y2="844.873"/><polygon fill="#181818" points="568,840.873,558,844.873,568,848.873,564,844.873" style="stroke:#181818;stroke-width:1.0;"/><text fill="#000000" font-family="sans-serif" font-size="13" lengthAdjust="spacing" textLength="166" x="564" y="827.1309">extractCashierIdFromJWT()</text><polygon fill="#181818" points="825,916.1152,835,920.1152,825,924.1152,829,920.1152" style="stroke:#181818;stroke-width:1.0;"/><line style="stroke:#181818;stroke-width:1.0;" x1="557" x2="831" y1="920.1152" y2="920.1152"/><text fill="#000000" font-family="sans-serif" font-size="13" lengthAdjust="spacing" textLength="207" x="564" y="869.4414">createPayment(prescriptionCode,</text><text fill="#000000" font-family="sans-serif" font-size="13" lengthAdjust="spacing" textLength="228" x="564" y="884.752">selectedServiceIds, paymentMethod,</text><text fill="#000000" font-family="sans-serif" font-size="13" lengthAdjust="spacing" textLength="57" x="564" y="900.0625">cashierId</text><text fill="#000000" font-family="sans-serif" font-size="13" lengthAdjust="spacing" textLength="8" x="564" y="915.373">n</text><line style="stroke:#181818;stroke-width:1.0;" x1="847" x2="889" y1="949.4258" y2="949.4258"/><line style="stroke:#181818;stroke-width:1.0;" x1="889" x2="889" y1="949.4258" y2="962.4258"/><line style="stroke:#181818;stroke-width:1.0;" x1="848" x2="889" y1="962.4258" y2="962.4258"/><polygon fill="#181818" points="858,958.4258,848,962.4258,858,966.4258,854,962.4258" style="stroke:#181818;stroke-width:1.0;"/><text fill="#000000" font-family="sans-serif" font-size="13" lengthAdjust="spacing" textLength="146" x="854" y="944.6836">createPaymentPreview()</text><line style="stroke:#181818;stroke-width:1.0;" x1="847" x2="889" y1="991.7363" y2="991.7363"/><line style="stroke:#181818;stroke-width:1.0;" x1="889" x2="889" y1="991.7363" y2="1004.7363"/><line style="stroke:#181818;stroke-width:1.0;" x1="848" x2="889" y1="1004.7363" y2="1004.7363"/><polygon fill="#181818" points="858,1000.7363,848,1004.7363,858,1008.7363,854,1004.7363" style="stroke:#181818;stroke-width:1.0;"/><text fill="#000000" font-family="sans-serif" font-size="13" lengthAdjust="spacing" textLength="139" x="854" y="986.9941">generateInvoiceCode()</text><polygon fill="#181818" points="1491,1060.668,1501,1064.668,1491,1068.668,1495,1064.668" style="stroke:#181818;stroke-width:1.0;"/><line style="stroke:#181818;stroke-width:1.0;" x1="847" x2="1497" y1="1064.668" y2="1064.668"/><text fill="#000000" font-family="sans-serif" font-size="13" lengthAdjust="spacing" textLength="227" x="854" y="1029.3047">create(invoiceCode, patientProfileId,</text><text fill="#000000" font-family="sans-serif" font-size="13" lengthAdjust="spacing" textLength="61" x="854" y="1044.6152">cashierId,</text><text fill="#000000" font-family="sans-serif" font-size="13" lengthAdjust="spacing" textLength="192" x="854" y="1059.9258">totalAmount, paymentMethod)</text><polygon fill="#181818" points="858,1089.9785,848,1093.9785,858,1097.9785,854,1093.9785" style="stroke:#181818;stroke-width:1.0;"/><line style="stroke:#181818;stroke-width:1.0;stroke-dasharray:2.0,2.0;" x1="852" x2="1507" y1="1093.9785" y2="1093.9785"/><text fill="#000000" font-family="sans-serif" font-size="13" lengthAdjust="spacing" textLength="115" x="864" y="1089.2363">Invoice created  id</text><polygon fill="#181818" points="1574.5,1119.2891,1584.5,1123.2891,1574.5,1127.2891,1578.5,1123.2891" style="stroke:#181818;stroke-width:1.0;"/><line style="stroke:#181818;stroke-width:1.0;" x1="847" x2="1580.5" y1="1123.2891" y2="1123.2891"/><text fill="#000000" font-family="sans-serif" font-size="13" lengthAdjust="spacing" textLength="168" x="854" y="1118.5469">createMany(invoiceDetails)</text><polygon fill="#181818" points="858,1148.5996,848,1152.5996,858,1156.5996,854,1152.5996" style="stroke:#181818;stroke-width:1.0;"/><line style="stroke:#181818;stroke-width:1.0;stroke-dasharray:2.0,2.0;" x1="852" x2="1590.5" y1="1152.5996" y2="1152.5996"/><text fill="#000000" font-family="sans-serif" font-size="13" lengthAdjust="spacing" textLength="139" x="864" y="1147.8574">InvoiceDetails created</text><polygon fill="#181818" points="568,1177.9102,558,1181.9102,568,1185.9102,564,1181.9102" style="stroke:#181818;stroke-width:1.0;"/><line style="stroke:#181818;stroke-width:1.0;stroke-dasharray:2.0,2.0;" x1="562" x2="841" y1="1181.9102" y2="1181.9102"/><text fill="#000000" font-family="sans-serif" font-size="13" lengthAdjust="spacing" textLength="256" x="574" y="1177.168">PaymentResult  invoiceCode, isPaid false</text><polygon fill="#181818" points="304,1207.2207,294,1211.2207,304,1215.2207,300,1211.2207" style="stroke:#181818;stroke-width:1.0;"/><line style="stroke:#181818;stroke-width:1.0;stroke-dasharray:2.0,2.0;" x1="298" x2="551" y1="1211.2207" y2="1211.2207"/><text fill="#000000" font-family="sans-serif" font-size="13" lengthAdjust="spacing" textLength="154" x="310" y="1206.4785">200 OK payment created</text><polygon fill="#181818" points="67,1251.8418,57,1255.8418,67,1259.8418,63,1255.8418" style="stroke:#181818;stroke-width:1.0;"/><line style="stroke:#181818;stroke-width:1.0;stroke-dasharray:2.0,2.0;" x1="61" x2="287" y1="1255.8418" y2="1255.8418"/><text fill="#000000" font-family="sans-serif" font-size="13" lengthAdjust="spacing" textLength="106" x="73" y="1235.7891">Hi&#7875;n th&#7883; h&#243;a &#273;&#417;n</text><text fill="#000000" font-family="sans-serif" font-size="13" lengthAdjust="spacing" textLength="96" x="73" y="1251.0996">ch&#7901; thanh to&#225;n</text><line style="stroke:#181818;stroke-width:1.0;" x1="56" x2="98" y1="1300.4629" y2="1300.4629"/><line style="stroke:#181818;stroke-width:1.0;" x1="98" x2="98" y1="1300.4629" y2="1313.4629"/><line style="stroke:#181818;stroke-width:1.0;" x1="57" x2="98" y1="1313.4629" y2="1313.4629"/><polygon fill="#181818" points="67,1309.4629,57,1313.4629,67,1317.4629,63,1313.4629" style="stroke:#181818;stroke-width:1.0;"/><text fill="#000000" font-family="sans-serif" font-size="13" lengthAdjust="spacing" textLength="57" x="63" y="1280.4102">&#272;&#7871;m ti&#7873;n</text><text fill="#000000" font-family="sans-serif" font-size="13" lengthAdjust="spacing" textLength="89" x="63" y="1295.7207">T&#237;nh ti&#7873;n th&#7915;a</text><path d="M30,1328.4629 L92,1328.4629 L92,1335.7734 L82,1345.7734 L30,1345.7734 L30,1328.4629 " fill="#EEEEEE" style="stroke:#000000;stroke-width:1.5;"/><rect fill="none" height="17.3105" style="stroke:#000000;stroke-width:1.5;" width="159" x="30" y="1328.4629"/><text fill="#000000" font-family="sans-serif" font-size="13" font-weight="bold" lengthAdjust="spacing" textLength="17" x="45" y="1342.0313">alt</text><text fill="#000000" font-family="sans-serif" font-size="11" font-weight="bold" lengthAdjust="spacing" textLength="77" x="107" y="1341.0977">[C&#243; ti&#7873;n th&#7915;a]</text><polygon fill="#181818" points="271,1370.084,281,1374.084,271,1378.084,275,1374.084" style="stroke:#181818;stroke-width:1.0;"/><line style="stroke:#181818;stroke-width:1.0;" x1="56" x2="277" y1="1374.084" y2="1374.084"/><text fill="#000000" font-family="sans-serif" font-size="13" lengthAdjust="spacing" textLength="166" x="63" y="1369.3418">Nh&#7845;n X&#225;c nh&#7853;n thanh to&#225;n</text><polygon fill="#181818" points="535,1414.7051,545,1418.7051,535,1422.7051,539,1418.7051" style="stroke:#181818;stroke-width:1.0;"/><line style="stroke:#181818;stroke-width:1.0;" x1="293" x2="541" y1="1418.7051" y2="1418.7051"/><text fill="#000000" font-family="sans-serif" font-size="13" lengthAdjust="spacing" textLength="213" x="300" y="1398.6523">POST /invoice-payments/confirm</text><text fill="#000000" font-family="sans-serif" font-size="13" lengthAdjust="spacing" textLength="77" x="300" y="1413.9629">invoiceCode</text><line style="stroke:#181818;stroke-width:1.0;" x1="557" x2="599" y1="1448.0156" y2="1448.0156"/><line style="stroke:#181818;stroke-width:1.0;" x1="599" x2="599" y1="1448.0156" y2="1461.0156"/><line style="stroke:#181818;stroke-width:1.0;" x1="558" x2="599" y1="1461.0156" y2="1461.0156"/><polygon fill="#181818" points="568,1457.0156,558,1461.0156,568,1465.0156,564,1461.0156" style="stroke:#181818;stroke-width:1.0;"/><text fill="#000000" font-family="sans-serif" font-size="13" lengthAdjust="spacing" textLength="166" x="564" y="1443.2734">extractCashierIdFromJWT()</text><polygon fill="#181818" points="825,1486.3262,835,1490.3262,825,1494.3262,829,1490.3262" style="stroke:#181818;stroke-width:1.0;"/><line style="stroke:#181818;stroke-width:1.0;" x1="557" x2="831" y1="1490.3262" y2="1490.3262"/><text fill="#000000" font-family="sans-serif" font-size="13" lengthAdjust="spacing" textLength="252" x="564" y="1485.584">confirmPayment(invoiceCode, cashierId)</text><polygon fill="#181818" points="1491,1515.6367,1501,1519.6367,1491,1523.6367,1495,1519.6367" style="stroke:#181818;stroke-width:1.0;"/><line style="stroke:#181818;stroke-width:1.0;" x1="847" x2="1497" y1="1519.6367" y2="1519.6367"/><text fill="#000000" font-family="sans-serif" font-size="13" lengthAdjust="spacing" textLength="138" x="854" y="1514.8945">findFirst(invoiceCode)</text><polygon fill="#181818" points="858,1544.9473,848,1548.9473,858,1552.9473,854,1548.9473" style="stroke:#181818;stroke-width:1.0;"/><line style="stroke:#181818;stroke-width:1.0;stroke-dasharray:2.0,2.0;" x1="852" x2="1507" y1="1548.9473" y2="1548.9473"/><text fill="#000000" font-family="sans-serif" font-size="13" lengthAdjust="spacing" textLength="76" x="864" y="1544.2051">Invoice data</text><line style="stroke:#181818;stroke-width:1.0;" x1="847" x2="889" y1="1578.2578" y2="1578.2578"/><line style="stroke:#181818;stroke-width:1.0;" x1="889" x2="889" y1="1578.2578" y2="1591.2578"/><line style="stroke:#181818;stroke-width:1.0;" x1="848" x2="889" y1="1591.2578" y2="1591.2578"/><polygon fill="#181818" points="858,1587.2578,848,1591.2578,858,1595.2578,854,1591.2578" style="stroke:#181818;stroke-width:1.0;"/><text fill="#000000" font-family="sans-serif" font-size="13" lengthAdjust="spacing" textLength="143" x="854" y="1573.5156">validateNotPaid(isPaid)</text><polygon fill="#181818" points="1491,1631.8789,1501,1635.8789,1491,1639.8789,1495,1635.8789" style="stroke:#181818;stroke-width:1.0;"/><line style="stroke:#181818;stroke-width:1.0;" x1="847" x2="1497" y1="1635.8789" y2="1635.8789"/><text fill="#000000" font-family="sans-serif" font-size="13" lengthAdjust="spacing" textLength="209" x="854" y="1615.8262">update(id, isPaid, paymentStatus,</text><text fill="#000000" font-family="sans-serif" font-size="13" lengthAdjust="spacing" textLength="181" x="854" y="1631.1367">amountPaid, changeAmount)</text><polygon fill="#181818" points="858,1661.1895,848,1665.1895,858,1669.1895,854,1665.1895" style="stroke:#181818;stroke-width:1.0;"/><line style="stroke:#181818;stroke-width:1.0;stroke-dasharray:2.0,2.0;" x1="852" x2="1507" y1="1665.1895" y2="1665.1895"/><text fill="#000000" font-family="sans-serif" font-size="13" lengthAdjust="spacing" textLength="100" x="864" y="1660.4473">Invoice updated</text><polygon fill="#181818" points="1699,1705.8105,1709,1709.8105,1699,1713.8105,1703,1709.8105" style="stroke:#181818;stroke-width:1.0;"/><line style="stroke:#181818;stroke-width:1.0;" x1="847" x2="1705" y1="1709.8105" y2="1709.8105"/><text fill="#000000" font-family="sans-serif" font-size="13" lengthAdjust="spacing" textLength="172" x="854" y="1689.7578">updateMany(prescriptionId,</text><text fill="#000000" font-family="sans-serif" font-size="13" lengthAdjust="spacing" textLength="114" x="854" y="1705.0684">serviceIds, status)</text><polygon fill="#181818" points="858,1735.1211,848,1739.1211,858,1743.1211,854,1739.1211" style="stroke:#181818;stroke-width:1.0;"/><line style="stroke:#181818;stroke-width:1.0;stroke-dasharray:2.0,2.0;" x1="852" x2="1715" y1="1739.1211" y2="1739.1211"/><text fill="#000000" font-family="sans-serif" font-size="13" lengthAdjust="spacing" textLength="181" x="864" y="1734.3789">PrescriptionServices updated</text><polygon fill="#181818" points="1101,1779.7422,1111,1783.7422,1101,1787.7422,1105,1783.7422" style="stroke:#181818;stroke-width:1.0;"/><line style="stroke:#181818;stroke-width:1.0;" x1="847" x2="1107" y1="1783.7422" y2="1783.7422"/><text fill="#000000" font-family="sans-serif" font-size="13" lengthAdjust="spacing" textLength="247" x="854" y="1763.6895">assignPatientToRooms(patientProfileId,</text><text fill="#000000" font-family="sans-serif" font-size="13" lengthAdjust="spacing" textLength="67" x="854" y="1779">serviceIds)</text><polygon fill="#181818" points="858,1824.3633,848,1828.3633,858,1832.3633,854,1828.3633" style="stroke:#181818;stroke-width:1.0;"/><line style="stroke:#181818;stroke-width:1.0;stroke-dasharray:2.0,2.0;" x1="852" x2="1117" y1="1828.3633" y2="1828.3633"/><text fill="#000000" font-family="sans-serif" font-size="13" lengthAdjust="spacing" textLength="128" x="864" y="1808.3105">routingAssignments</text><text fill="#000000" font-family="sans-serif" font-size="13" lengthAdjust="spacing" textLength="203" x="868" y="1823.6211">roomCode, boothCode, doctorId</text><polygon fill="#181818" points="1229,1868.9844,1239,1872.9844,1229,1876.9844,1233,1872.9844" style="stroke:#181818;stroke-width:1.0;"/><line style="stroke:#181818;stroke-width:1.0;" x1="847" x2="1235" y1="1872.9844" y2="1872.9844"/><text fill="#000000" font-family="sans-serif" font-size="13" lengthAdjust="spacing" textLength="236" x="854" y="1852.9316">notifyCashierInvoicePaymentSuccess(</text><text fill="#000000" font-family="sans-serif" font-size="13" lengthAdjust="spacing" textLength="114" x="854" y="1868.2422">cashierId, invoice)</text><line style="stroke:#181818;stroke-width:1.0;" x1="1251" x2="1293" y1="1922.6055" y2="1922.6055"/><line style="stroke:#181818;stroke-width:1.0;" x1="1293" x2="1293" y1="1922.6055" y2="1935.6055"/><line style="stroke:#181818;stroke-width:1.0;" x1="1246" x2="1293" y1="1935.6055" y2="1935.6055"/><polygon fill="#181818" points="1256,1931.6055,1246,1935.6055,1256,1939.6055,1252,1935.6055" style="stroke:#181818;stroke-width:1.0;"/><text fill="#000000" font-family="sans-serif" font-size="13" lengthAdjust="spacing" textLength="157" x="1258" y="1902.5527">broadcastToClinicRooms</text><text fill="#000000" font-family="sans-serif" font-size="13" lengthAdjust="spacing" textLength="136" x="1258" y="1917.8633">(routingAssignments)</text><polygon fill="#181818" points="568,1986.5371,558,1990.5371,568,1994.5371,564,1990.5371" style="stroke:#181818;stroke-width:1.0;"/><line style="stroke:#181818;stroke-width:1.0;stroke-dasharray:2.0,2.0;" x1="562" x2="841" y1="1990.5371" y2="1990.5371"/><text fill="#000000" font-family="sans-serif" font-size="13" lengthAdjust="spacing" textLength="92" x="574" y="1955.1738">PaymentResult</text><text fill="#000000" font-family="sans-serif" font-size="13" lengthAdjust="spacing" textLength="70" x="578" y="1970.4844">isPaid true,</text><text fill="#000000" font-family="sans-serif" font-size="13" lengthAdjust="spacing" textLength="128" x="574" y="1985.7949">routingAssignments</text><polygon fill="#181818" points="304,2015.8477,294,2019.8477,304,2023.8477,300,2019.8477" style="stroke:#181818;stroke-width:1.0;"/><line style="stroke:#181818;stroke-width:1.0;stroke-dasharray:2.0,2.0;" x1="298" x2="551" y1="2019.8477" y2="2019.8477"/><text fill="#000000" font-family="sans-serif" font-size="13" lengthAdjust="spacing" textLength="172" x="310" y="2015.1055">200 OK payment confirmed</text><polygon fill="#181818" points="67,2060.4688,57,2064.4688,67,2068.4688,63,2064.4688" style="stroke:#181818;stroke-width:1.0;"/><line style="stroke:#181818;stroke-width:1.0;stroke-dasharray:2.0,2.0;" x1="61" x2="287" y1="2064.4688" y2="2064.4688"/><text fill="#000000" font-family="sans-serif" font-size="13" lengthAdjust="spacing" textLength="122" x="73" y="2044.416">Hi&#7875;n th&#7883; thanh to&#225;n</text><text fill="#000000" font-family="sans-serif" font-size="13" lengthAdjust="spacing" textLength="71" x="73" y="2059.7266">th&#224;nh c&#244;ng</text><polygon fill="#181818" points="271,2089.7793,281,2093.7793,271,2097.7793,275,2093.7793" style="stroke:#181818;stroke-width:1.0;"/><line style="stroke:#181818;stroke-width:1.0;" x1="56" x2="277" y1="2093.7793" y2="2093.7793"/><text fill="#000000" font-family="sans-serif" font-size="13" lengthAdjust="spacing" textLength="68" x="63" y="2089.0371">In h&#243;a &#273;&#417;n</text><line style="stroke:#181818;stroke-width:1.0;" x1="293" x2="335" y1="2123.0898" y2="2123.0898"/><line style="stroke:#181818;stroke-width:1.0;" x1="335" x2="335" y1="2123.0898" y2="2136.0898"/><line style="stroke:#181818;stroke-width:1.0;" x1="294" x2="335" y1="2136.0898" y2="2136.0898"/><polygon fill="#181818" points="304,2132.0898,294,2136.0898,304,2140.0898,300,2136.0898" style="stroke:#181818;stroke-width:1.0;"/><text fill="#000000" font-family="sans-serif" font-size="13" lengthAdjust="spacing" textLength="208" x="300" y="2118.3477">generateInvoicePDF(invoiceCode)</text><polygon fill="#181818" points="67,2161.4004,57,2165.4004,67,2169.4004,63,2165.4004" style="stroke:#181818;stroke-width:1.0;"/><line style="stroke:#181818;stroke-width:1.0;stroke-dasharray:2.0,2.0;" x1="61" x2="287" y1="2165.4004" y2="2165.4004"/><text fill="#000000" font-family="sans-serif" font-size="13" lengthAdjust="spacing" textLength="86" x="73" y="2160.6582">H&#243;a &#273;&#417;n in ra</text><!--SRC=[hLT1Rzis5BxhLxpbP0CDKkneO0C2fq6zjQaNEqWFlj0IRH6JIKEYlEOux3GKnRR3ZWMQ3JqCHK_TAJxie6B_m_zaZo8fKnATEC5oY4NgyNiV7n-_zqH2AL8u6CSvy7dn1py0aa6VP36ZQH1CHSuZabuv1d0nA6qk1a4ek4n50WS3lX8if4DojQ1SzlLqGbCDLWq3VCdaLTD-HDCLZafZyrnPdejSCZvtJSnKPN99foCHVazhE9UZwlqmfLcOigLaGk_EdMXIAWtCS_FT2PM49Qw5dl5wSibuveF0n1WElyPGzk2xlFXBmgBu4vOnszpyaqCORzO_m-VVDklNF0v8ADcAIAhY7bmCrB9jO7imV34Qmn7Jj0wNEh3PKHOIFk5BntzVH7GBvfnDi7rMu8Pd3nI4ku5E4wsxXQisPnuKaBks1pF6erEMPl8scDe1kGCuT9dLp2BgN-vIgLQkIC8YD1r98lEiavK_yCLNq3y-wpzvzkp9ITTPs0or0wyJ87EzRm_OYQSvv2yVFuONtuAxTOZQ4EwfgADM17IszE0fswn_uY0nELv3H7WCMN4TnX3X67zMc_Nx2LyLxs3EYckGc_K7FdTVkdvKAYL2BA6FQ6-uQmOAuXLTA8JV4K6Ysnzv0FZNIDnnyJ6CZwQRzIyWrMFDcR9ttQbn-M_l3CPOhHZzePt4Zo2Z2GqbZKp41r5Mz-U4iVAx8yd3bE8AeqT3wxApZyzktQaz_igZB_zcB94q7TMnC0_DH8NgMnkI9CmJT3KMaYJ72rHeYIirHDVZjnddsYO1v1QcNET9PM_qMYcju9e8lYEuDQFRwLRFLygZbdIQxEqVZvwMQSlZpSrx3kFDpRM0kFX4K4J_lUOFb52T6llbtoCqq-kUKncBgEIqZzgwFEWhcU8Iiyb1T9gAnJUNumvAqhuPt4xS2VUmXHfPj0cjpmddjwlwhJS7gVfCvvJJ58rDyLIyEjqQgdbZKJjiQwd8IbRw47XzaB_B5v-TF6vipAaijhARtteziPFQUGJ08bSjxLeFOLq6BEtdX5zPwgP0j2cOrg4syj8n29QLXv612kwuyUSqonE9ktA3oh8XOH7CI9BH-rOn3UiZjdS1szvEF4oSUOlpggP9KLppPgbohds5zlbNx9KMHYyc78kHMbsEIXSVI10Gt7M_-DIOzYd9cLQEbrXHInNvo6jy7YWWWizOkfXm9_3_eoRiqWFjrGf2xT2hQtD7wrPTnstNvk3SzrfXmqNkka-j3krCI9MW7PsdEzGYNqQbMaGsdoi1q0qUgWCfXK6_2_58vrHBnNqteLtTgGkUZj_IBDN1rUTIlJ97bNKxkgCVjkVacTlT7TiEmqVV-t7YRCLyRlNmGoPZSpxKAZmMvq8iiev7b3EdDQgys8ysyrkdckh9uz91UMbWmd5MB7I-JeMGiNwCXFfU7THsOB5TrfUZ7d0XsUpAtfdw9sSUOZYoZbj2h30whF4hyd9auQQf816Quzxx2UCiB2E0NMARVjUbXo1xIZDkskYnJ7DLizl83zLehGOFL6b70x7EniKx78N5tnZotGgjI0puhlPBYwUoQJG5mvFJkiQqY5M0U5wGaWQ5_m00]--></g></svg>