<?xml version="1.0" encoding="us-ascii" standalone="no"?><svg xmlns="http://www.w3.org/2000/svg" xmlns:xlink="http://www.w3.org/1999/xlink" contentStyleType="text/css" height="2340px" preserveAspectRatio="none" style="width:1538px;height:2340px;background:#FFFFFF;" version="1.1" viewBox="0 0 1538 2340" width="1538px" zoomAndPan="magnify"><defs/><g><rect fill="#FFFFFF" height="1935.3613" style="stroke:#181818;stroke-width:1.0;" width="10" x="275.5" y="143.4199"/><rect fill="#FFFFFF" height="1815.498" style="stroke:#181818;stroke-width:1.0;" width="10" x="697" y="188.041"/><rect fill="#FFFFFF" height="1741.5664" style="stroke:#181818;stroke-width:1.0;" width="10" x="910" y="217.3516"/><rect fill="#FFFFFF" height="58.6211" style="stroke:#181818;stroke-width:1.0;" width="10" x="1183" y="1679.502"/><rect fill="#FFFFFF" height="58.6211" style="stroke:#181818;stroke-width:1.0;" width="10" x="1183" y="1782.7441"/><rect fill="#FFFFFF" height="29.3105" style="stroke:#181818;stroke-width:1.0;" width="10" x="1305.5" y="286.2832"/><rect fill="#FFFFFF" height="29.3105" style="stroke:#181818;stroke-width:1.0;" width="10" x="1412" y="459.791"/><rect fill="#FFFFFF" height="29.3105" style="stroke:#181818;stroke-width:1.0;" width="10" x="1501" y="986.3594"/><rect fill="none" height="521.8789" style="stroke:#000000;stroke-width:1.5;" width="641" x="834" y="232.3516"/><rect fill="none" height="132.1973" style="stroke:#000000;stroke-width:1.5;" width="309" x="834" y="810.541"/><rect fill="none" height="59.6211" style="stroke:#000000;stroke-width:1.5;" width="276" x="834" y="1072.9805"/><line style="stroke:#181818;stroke-width:0.5;stroke-dasharray:5.0,5.0;" x1="31" x2="31" y1="81.4883" y2="2259.9551"/><line style="stroke:#181818;stroke-width:0.5;stroke-dasharray:5.0,5.0;" x1="116" x2="116" y1="81.4883" y2="2259.9551"/><line style="stroke:#181818;stroke-width:0.5;stroke-dasharray:5.0,5.0;" x1="280" x2="280" y1="81.4883" y2="2259.9551"/><line style="stroke:#181818;stroke-width:0.5;stroke-dasharray:5.0,5.0;" x1="393" x2="393" y1="81.4883" y2="2259.9551"/><line style="stroke:#181818;stroke-width:0.5;stroke-dasharray:5.0,5.0;" x1="534" x2="534" y1="81.4883" y2="2259.9551"/><line style="stroke:#181818;stroke-width:0.5;stroke-dasharray:5.0,5.0;" x1="702" x2="702" y1="81.4883" y2="2259.9551"/><line style="stroke:#181818;stroke-width:0.5;stroke-dasharray:5.0,5.0;" x1="915" x2="915" y1="81.4883" y2="2259.9551"/><line style="stroke:#181818;stroke-width:0.5;stroke-dasharray:5.0,5.0;" x1="1188" x2="1188" y1="81.4883" y2="2259.9551"/><line style="stroke:#181818;stroke-width:0.5;stroke-dasharray:5.0,5.0;" x1="1310" x2="1310" y1="81.4883" y2="2259.9551"/><line style="stroke:#181818;stroke-width:0.5;stroke-dasharray:5.0,5.0;" x1="1417" x2="1417" y1="81.4883" y2="2259.9551"/><line style="stroke:#181818;stroke-width:0.5;stroke-dasharray:5.0,5.0;" x1="1506" x2="1506" y1="81.4883" y2="2259.9551"/><text fill="#000000" font-family="sans-serif" font-size="14" lengthAdjust="spacing" textLength="47" x="5" y="78.5352">Patient</text><ellipse cx="31.5" cy="13.5" fill="#E2E2F0" rx="8" ry="8" style="stroke:#181818;stroke-width:0.5;"/><path d="M31.5,21.5 L31.5,48.5 M18.5,29.5 L44.5,29.5 M31.5,48.5 L18.5,63.5 M31.5,48.5 L44.5,63.5 " fill="none" style="stroke:#181818;stroke-width:0.5;"/><text fill="#000000" font-family="sans-serif" font-size="14" lengthAdjust="spacing" textLength="47" x="5" y="2272.4902">Patient</text><ellipse cx="31.5" cy="2283.9434" fill="#E2E2F0" rx="8" ry="8" style="stroke:#181818;stroke-width:0.5;"/><path d="M31.5,2291.9434 L31.5,2318.9434 M18.5,2299.9434 L44.5,2299.9434 M31.5,2318.9434 L18.5,2333.9434 M31.5,2318.9434 L44.5,2333.9434 " fill="none" style="stroke:#181818;stroke-width:0.5;"/><text fill="#000000" font-family="sans-serif" font-size="14" lengthAdjust="spacing" textLength="91" x="68" y="78.5352">Counter Staff</text><ellipse cx="116.5" cy="13.5" fill="#E2E2F0" rx="8" ry="8" style="stroke:#181818;stroke-width:0.5;"/><path d="M116.5,21.5 L116.5,48.5 M103.5,29.5 L129.5,29.5 M116.5,48.5 L103.5,63.5 M116.5,48.5 L129.5,63.5 " fill="none" style="stroke:#181818;stroke-width:0.5;"/><text fill="#000000" font-family="sans-serif" font-size="14" lengthAdjust="spacing" textLength="91" x="68" y="2272.4902">Counter Staff</text><ellipse cx="116.5" cy="2283.9434" fill="#E2E2F0" rx="8" ry="8" style="stroke:#181818;stroke-width:0.5;"/><path d="M116.5,2291.9434 L116.5,2318.9434 M103.5,2299.9434 L129.5,2299.9434 M116.5,2318.9434 L103.5,2333.9434 M116.5,2318.9434 L129.5,2333.9434 " fill="none" style="stroke:#181818;stroke-width:0.5;"/><text fill="#000000" font-family="sans-serif" font-size="14" lengthAdjust="spacing" textLength="87" x="234" y="78.5352">Kiosk Screen</text><path d="M260,37 L260,61 M260,49 L277,49 " fill="none" style="stroke:#181818;stroke-width:0.5;"/><ellipse cx="289" cy="49" fill="#E2E2F0" rx="12" ry="12" style="stroke:#181818;stroke-width:0.5;"/><text fill="#000000" font-family="sans-serif" font-size="14" lengthAdjust="spacing" textLength="87" x="234" y="2272.4902">Kiosk Screen</text><path d="M260,2279.4434 L260,2303.4434 M260,2291.4434 L277,2291.4434 " fill="none" style="stroke:#181818;stroke-width:0.5;"/><ellipse cx="289" cy="2291.4434" fill="#E2E2F0" rx="12" ry="12" style="stroke:#181818;stroke-width:0.5;"/><text fill="#000000" font-family="sans-serif" font-size="14" lengthAdjust="spacing" textLength="106" x="337" y="78.5352">Counter Screen</text><path d="M372.5,37 L372.5,61 M372.5,49 L389.5,49 " fill="none" style="stroke:#181818;stroke-width:0.5;"/><ellipse cx="401.5" cy="49" fill="#E2E2F0" rx="12" ry="12" style="stroke:#181818;stroke-width:0.5;"/><text fill="#000000" font-family="sans-serif" font-size="14" lengthAdjust="spacing" textLength="106" x="337" y="2272.4902">Counter Screen</text><path d="M372.5,2279.4434 L372.5,2303.4434 M372.5,2291.4434 L389.5,2291.4434 " fill="none" style="stroke:#181818;stroke-width:0.5;"/><ellipse cx="401.5" cy="2291.4434" fill="#E2E2F0" rx="12" ry="12" style="stroke:#181818;stroke-width:0.5;"/><text fill="#000000" font-family="sans-serif" font-size="14" lengthAdjust="spacing" textLength="145" x="459" y="78.5352">Waiting Room Screen</text><path d="M514,37 L514,61 M514,49 L531,49 " fill="none" style="stroke:#181818;stroke-width:0.5;"/><ellipse cx="543" cy="49" fill="#E2E2F0" rx="12" ry="12" style="stroke:#181818;stroke-width:0.5;"/><text fill="#000000" font-family="sans-serif" font-size="14" lengthAdjust="spacing" textLength="145" x="459" y="2272.4902">Waiting Room Screen</text><path d="M514,2279.4434 L514,2303.4434 M514,2291.4434 L531,2291.4434 " fill="none" style="stroke:#181818;stroke-width:0.5;"/><ellipse cx="543" cy="2291.4434" fill="#E2E2F0" rx="12" ry="12" style="stroke:#181818;stroke-width:0.5;"/><text fill="#000000" font-family="sans-serif" font-size="14" lengthAdjust="spacing" textLength="158" x="620" y="78.5352">TakeNumberController</text><ellipse cx="702" cy="49" fill="#E2E2F0" rx="12" ry="12" style="stroke:#181818;stroke-width:0.5;"/><polygon fill="#181818" points="698,37,704,32,702,37,704,42,698,37" style="stroke:#181818;stroke-width:1.0;"/><text fill="#000000" font-family="sans-serif" font-size="14" lengthAdjust="spacing" textLength="158" x="620" y="2272.4902">TakeNumberController</text><ellipse cx="702" cy="2291.4434" fill="#E2E2F0" rx="12" ry="12" style="stroke:#181818;stroke-width:0.5;"/><polygon fill="#181818" points="698,2279.4434,704,2274.4434,702,2279.4434,704,2284.4434,698,2279.4434" style="stroke:#181818;stroke-width:1.0;"/><text fill="#000000" font-family="sans-serif" font-size="14" lengthAdjust="spacing" textLength="136" x="844" y="78.5352">TakeNumberService</text><ellipse cx="915" cy="49" fill="#E2E2F0" rx="12" ry="12" style="stroke:#181818;stroke-width:0.5;"/><polygon fill="#181818" points="911,37,917,32,915,37,917,42,911,37" style="stroke:#181818;stroke-width:1.0;"/><text fill="#000000" font-family="sans-serif" font-size="14" lengthAdjust="spacing" textLength="136" x="844" y="2272.4902">TakeNumberService</text><ellipse cx="915" cy="2291.4434" fill="#E2E2F0" rx="12" ry="12" style="stroke:#181818;stroke-width:0.5;"/><polygon fill="#181818" points="911,2279.4434,917,2274.4434,915,2279.4434,917,2284.4434,911,2279.4434" style="stroke:#181818;stroke-width:1.0;"/><text fill="#000000" font-family="sans-serif" font-size="14" lengthAdjust="spacing" textLength="122" x="1124" y="78.5352">WebSocketService</text><ellipse cx="1188" cy="49" fill="#E2E2F0" rx="12" ry="12" style="stroke:#181818;stroke-width:0.5;"/><polygon fill="#181818" points="1184,37,1190,32,1188,37,1190,42,1184,37" style="stroke:#181818;stroke-width:1.0;"/><text fill="#000000" font-family="sans-serif" font-size="14" lengthAdjust="spacing" textLength="122" x="1124" y="2272.4902">WebSocketService</text><ellipse cx="1188" cy="2291.4434" fill="#E2E2F0" rx="12" ry="12" style="stroke:#181818;stroke-width:0.5;"/><polygon fill="#181818" points="1184,2279.4434,1190,2274.4434,1188,2279.4434,1190,2284.4434,1184,2279.4434" style="stroke:#181818;stroke-width:1.0;"/><text fill="#000000" font-family="sans-serif" font-size="14" lengthAdjust="spacing" textLength="91" x="1262" y="78.5352">PatientProfile</text><ellipse cx="1310.5" cy="49" fill="#E2E2F0" rx="12" ry="12" style="stroke:#181818;stroke-width:0.5;"/><line style="stroke:#181818;stroke-width:0.5;" x1="1298.5" x2="1322.5" y1="63" y2="63"/><text fill="#000000" font-family="sans-serif" font-size="14" lengthAdjust="spacing" textLength="91" x="1262" y="2272.4902">PatientProfile</text><ellipse cx="1310.5" cy="2291.4434" fill="#E2E2F0" rx="12" ry="12" style="stroke:#181818;stroke-width:0.5;"/><line style="stroke:#181818;stroke-width:0.5;" x1="1298.5" x2="1322.5" y1="2305.4434" y2="2305.4434"/><text fill="#000000" font-family="sans-serif" font-size="14" lengthAdjust="spacing" textLength="90" x="1369" y="78.5352">Appointment</text><ellipse cx="1417" cy="49" fill="#E2E2F0" rx="12" ry="12" style="stroke:#181818;stroke-width:0.5;"/><line style="stroke:#181818;stroke-width:0.5;" x1="1405" x2="1429" y1="63" y2="63"/><text fill="#000000" font-family="sans-serif" font-size="14" lengthAdjust="spacing" textLength="90" x="1369" y="2272.4902">Appointment</text><ellipse cx="1417" cy="2291.4434" fill="#E2E2F0" rx="12" ry="12" style="stroke:#181818;stroke-width:0.5;"/><line style="stroke:#181818;stroke-width:0.5;" x1="1405" x2="1429" y1="2305.4434" y2="2305.4434"/><text fill="#000000" font-family="sans-serif" font-size="14" lengthAdjust="spacing" textLength="56" x="1475" y="78.5352">Counter</text><ellipse cx="1506" cy="49" fill="#E2E2F0" rx="12" ry="12" style="stroke:#181818;stroke-width:0.5;"/><line style="stroke:#181818;stroke-width:0.5;" x1="1494" x2="1518" y1="63" y2="63"/><text fill="#000000" font-family="sans-serif" font-size="14" lengthAdjust="spacing" textLength="56" x="1475" y="2272.4902">Counter</text><ellipse cx="1506" cy="2291.4434" fill="#E2E2F0" rx="12" ry="12" style="stroke:#181818;stroke-width:0.5;"/><line style="stroke:#181818;stroke-width:0.5;" x1="1494" x2="1518" y1="2305.4434" y2="2305.4434"/><rect fill="#FFFFFF" height="1935.3613" style="stroke:#181818;stroke-width:1.0;" width="10" x="275.5" y="143.4199"/><rect fill="#FFFFFF" height="1815.498" style="stroke:#181818;stroke-width:1.0;" width="10" x="697" y="188.041"/><rect fill="#FFFFFF" height="1741.5664" style="stroke:#181818;stroke-width:1.0;" width="10" x="910" y="217.3516"/><rect fill="#FFFFFF" height="58.6211" style="stroke:#181818;stroke-width:1.0;" width="10" x="1183" y="1679.502"/><rect fill="#FFFFFF" height="58.6211" style="stroke:#181818;stroke-width:1.0;" width="10" x="1183" y="1782.7441"/><rect fill="#FFFFFF" height="29.3105" style="stroke:#181818;stroke-width:1.0;" width="10" x="1305.5" y="286.2832"/><rect fill="#FFFFFF" height="29.3105" style="stroke:#181818;stroke-width:1.0;" width="10" x="1412" y="459.791"/><rect fill="#FFFFFF" height="29.3105" style="stroke:#181818;stroke-width:1.0;" width="10" x="1501" y="986.3594"/><polygon fill="#181818" points="263.5,139.4199,273.5,143.4199,263.5,147.4199,267.5,143.4199" style="stroke:#181818;stroke-width:1.0;"/><line style="stroke:#181818;stroke-width:1.0;" x1="31.5" x2="269.5" y1="143.4199" y2="143.4199"/><text fill="#000000" font-family="sans-serif" font-size="13" lengthAdjust="spacing" textLength="115" x="38.5" y="108.0566">Scan profile code/</text><text fill="#000000" font-family="sans-serif" font-size="13" lengthAdjust="spacing" textLength="131" x="38.5" y="123.3672">appointment code or</text><text fill="#000000" font-family="sans-serif" font-size="13" lengthAdjust="spacing" textLength="82" x="38.5" y="138.6777">manual entry</text><polygon fill="#181818" points="685,184.041,695,188.041,685,192.041,689,188.041" style="stroke:#181818;stroke-width:1.0;"/><line style="stroke:#181818;stroke-width:1.0;" x1="285.5" x2="691" y1="188.041" y2="188.041"/><text fill="#000000" font-family="sans-serif" font-size="13" lengthAdjust="spacing" textLength="160" x="292.5" y="167.9883">POST /take-number/take</text><text fill="#000000" font-family="sans-serif" font-size="13" lengthAdjust="spacing" textLength="111" x="292.5" y="183.2988">(TakeNumberDto)</text><polygon fill="#181818" points="898,213.3516,908,217.3516,898,221.3516,902,217.3516" style="stroke:#181818;stroke-width:1.0;"/><line style="stroke:#181818;stroke-width:1.0;" x1="707" x2="904" y1="217.3516" y2="217.3516"/><text fill="#000000" font-family="sans-serif" font-size="13" lengthAdjust="spacing" textLength="106" x="714" y="212.6094">takeNumber(dto)</text><path d="M834,232.3516 L896,232.3516 L896,239.6621 L886,249.6621 L834,249.6621 L834,232.3516 " fill="#EEEEEE" style="stroke:#000000;stroke-width:1.5;"/><rect fill="none" height="521.8789" style="stroke:#000000;stroke-width:1.5;" width="641" x="834" y="232.3516"/><text fill="#000000" font-family="sans-serif" font-size="13" font-weight="bold" lengthAdjust="spacing" textLength="17" x="849" y="245.9199">alt</text><text fill="#000000" font-family="sans-serif" font-size="11" font-weight="bold" lengthAdjust="spacing" textLength="137" x="911" y="244.9863">[Has patientProfileCode]</text><polygon fill="#181818" points="1293.5,282.2832,1303.5,286.2832,1293.5,290.2832,1297.5,286.2832" style="stroke:#181818;stroke-width:1.0;"/><line style="stroke:#181818;stroke-width:1.0;" x1="920" x2="1299.5" y1="286.2832" y2="286.2832"/><text fill="#000000" font-family="sans-serif" font-size="13" lengthAdjust="spacing" textLength="98" x="927" y="266.2305">findFirst(where:</text><text fill="#000000" font-family="sans-serif" font-size="13" lengthAdjust="spacing" textLength="85" x="927" y="281.541">{profileCode})</text><polygon fill="#181818" points="931,311.5938,921,315.5938,931,319.5938,927,315.5938" style="stroke:#181818;stroke-width:1.0;"/><line style="stroke:#181818;stroke-width:1.0;stroke-dasharray:2.0,2.0;" x1="925" x2="1309.5" y1="315.5938" y2="315.5938"/><text fill="#000000" font-family="sans-serif" font-size="13" lengthAdjust="spacing" textLength="83" x="937" y="310.8516">PatientProfile</text><line style="stroke:#181818;stroke-width:1.0;" x1="920" x2="962" y1="344.9043" y2="344.9043"/><line style="stroke:#181818;stroke-width:1.0;" x1="962" x2="962" y1="344.9043" y2="357.9043"/><line style="stroke:#181818;stroke-width:1.0;" x1="921" x2="962" y1="357.9043" y2="357.9043"/><polygon fill="#181818" points="931,353.9043,921,357.9043,931,361.9043,927,357.9043" style="stroke:#181818;stroke-width:1.0;"/><text fill="#000000" font-family="sans-serif" font-size="13" lengthAdjust="spacing" textLength="159" x="927" y="340.1621">calculateAge(dateOfBirth)</text><line style="stroke:#181818;stroke-width:1.0;" x1="920" x2="962" y1="387.2148" y2="387.2148"/><line style="stroke:#181818;stroke-width:1.0;" x1="962" x2="962" y1="387.2148" y2="400.2148"/><line style="stroke:#181818;stroke-width:1.0;" x1="921" x2="962" y1="400.2148" y2="400.2148"/><polygon fill="#181818" points="931,396.2148,921,400.2148,931,404.2148,927,400.2148" style="stroke:#181818;stroke-width:1.0;"/><text fill="#000000" font-family="sans-serif" font-size="13" lengthAdjust="spacing" textLength="152" x="927" y="382.4727">hasAppointment = false</text><line style="stroke:#000000;stroke-width:1.0;stroke-dasharray:2.0,2.0;" x1="834" x2="1475" y1="409.2148" y2="409.2148"/><text fill="#000000" font-family="sans-serif" font-size="11" font-weight="bold" lengthAdjust="spacing" textLength="131" x="839" y="419.8496">[Has appointmentCode]</text><polygon fill="#181818" points="1400,455.791,1410,459.791,1400,463.791,1404,459.791" style="stroke:#181818;stroke-width:1.0;"/><line style="stroke:#181818;stroke-width:1.0;" x1="920" x2="1406" y1="459.791" y2="459.791"/><text fill="#000000" font-family="sans-serif" font-size="13" lengthAdjust="spacing" textLength="98" x="927" y="439.7383">findFirst(where:</text><text fill="#000000" font-family="sans-serif" font-size="13" lengthAdjust="spacing" textLength="124" x="927" y="455.0488">{appointmentCode})</text><polygon fill="#181818" points="931,485.1016,921,489.1016,931,493.1016,927,489.1016" style="stroke:#181818;stroke-width:1.0;"/><line style="stroke:#181818;stroke-width:1.0;stroke-dasharray:2.0,2.0;" x1="925" x2="1416" y1="489.1016" y2="489.1016"/><text fill="#000000" font-family="sans-serif" font-size="13" lengthAdjust="spacing" textLength="183" x="937" y="484.3594">Appointment + PatientProfile</text><line style="stroke:#181818;stroke-width:1.0;" x1="920" x2="962" y1="518.4121" y2="518.4121"/><line style="stroke:#181818;stroke-width:1.0;" x1="962" x2="962" y1="518.4121" y2="531.4121"/><line style="stroke:#181818;stroke-width:1.0;" x1="921" x2="962" y1="531.4121" y2="531.4121"/><polygon fill="#181818" points="931,527.4121,921,531.4121,931,535.4121,927,531.4121" style="stroke:#181818;stroke-width:1.0;"/><text fill="#000000" font-family="sans-serif" font-size="13" lengthAdjust="spacing" textLength="159" x="927" y="513.6699">calculateAge(dateOfBirth)</text><line style="stroke:#181818;stroke-width:1.0;" x1="920" x2="962" y1="560.7227" y2="560.7227"/><line style="stroke:#181818;stroke-width:1.0;" x1="962" x2="962" y1="560.7227" y2="573.7227"/><line style="stroke:#181818;stroke-width:1.0;" x1="921" x2="962" y1="573.7227" y2="573.7227"/><polygon fill="#181818" points="931,569.7227,921,573.7227,931,577.7227,927,573.7227" style="stroke:#181818;stroke-width:1.0;"/><text fill="#000000" font-family="sans-serif" font-size="13" lengthAdjust="spacing" textLength="147" x="927" y="555.9805">hasAppointment = true</text><line style="stroke:#181818;stroke-width:1.0;" x1="920" x2="962" y1="603.0332" y2="603.0332"/><line style="stroke:#181818;stroke-width:1.0;" x1="962" x2="962" y1="603.0332" y2="616.0332"/><line style="stroke:#181818;stroke-width:1.0;" x1="921" x2="962" y1="616.0332" y2="616.0332"/><polygon fill="#181818" points="931,612.0332,921,616.0332,931,620.0332,927,616.0332" style="stroke:#181818;stroke-width:1.0;"/><text fill="#000000" font-family="sans-serif" font-size="13" lengthAdjust="spacing" textLength="162" x="927" y="598.291">appointmentDetails = {...}</text><line style="stroke:#000000;stroke-width:1.0;stroke-dasharray:2.0,2.0;" x1="834" x2="1475" y1="625.0332" y2="625.0332"/><text fill="#000000" font-family="sans-serif" font-size="11" font-weight="bold" lengthAdjust="spacing" textLength="80" x="839" y="635.668">[Manual entry]</text><line style="stroke:#181818;stroke-width:1.0;" x1="920" x2="962" y1="660.2988" y2="660.2988"/><line style="stroke:#181818;stroke-width:1.0;" x1="962" x2="962" y1="660.2988" y2="673.2988"/><line style="stroke:#181818;stroke-width:1.0;" x1="921" x2="962" y1="673.2988" y2="673.2988"/><polygon fill="#181818" points="931,669.2988,921,673.2988,931,677.2988,927,673.2988" style="stroke:#181818;stroke-width:1.0;"/><text fill="#000000" font-family="sans-serif" font-size="13" lengthAdjust="spacing" textLength="136" x="927" y="655.5566">validatePatientName()</text><line style="stroke:#181818;stroke-width:1.0;" x1="920" x2="962" y1="733.2305" y2="733.2305"/><line style="stroke:#181818;stroke-width:1.0;" x1="962" x2="962" y1="733.2305" y2="746.2305"/><line style="stroke:#181818;stroke-width:1.0;" x1="921" x2="962" y1="746.2305" y2="746.2305"/><polygon fill="#181818" points="931,742.2305,921,746.2305,931,750.2305,927,746.2305" style="stroke:#181818;stroke-width:1.0;"/><text fill="#000000" font-family="sans-serif" font-size="13" lengthAdjust="spacing" textLength="181" x="927" y="697.8672">Create temporary patientInfo</text><text fill="#000000" font-family="sans-serif" font-size="13" lengthAdjust="spacing" textLength="129" x="927" y="713.1777">gender = UNKNOWN</text><text fill="#000000" font-family="sans-serif" font-size="13" lengthAdjust="spacing" textLength="185" x="927" y="728.4883">age = calculateAge(birthYear)</text><line style="stroke:#181818;stroke-width:1.0;" x1="920" x2="962" y1="782.541" y2="782.541"/><line style="stroke:#181818;stroke-width:1.0;" x1="962" x2="962" y1="782.541" y2="795.541"/><line style="stroke:#181818;stroke-width:1.0;" x1="921" x2="962" y1="795.541" y2="795.541"/><polygon fill="#181818" points="931,791.541,921,795.541,931,799.541,927,795.541" style="stroke:#181818;stroke-width:1.0;"/><text fill="#000000" font-family="sans-serif" font-size="13" lengthAdjust="spacing" textLength="209" x="927" y="777.7988">Determine isPregnant, isDisabled</text><path d="M834,810.541 L896,810.541 L896,817.8516 L886,827.8516 L834,827.8516 L834,810.541 " fill="#EEEEEE" style="stroke:#000000;stroke-width:1.5;"/><rect fill="none" height="132.1973" style="stroke:#000000;stroke-width:1.5;" width="309" x="834" y="810.541"/><text fill="#000000" font-family="sans-serif" font-size="13" font-weight="bold" lengthAdjust="spacing" textLength="17" x="849" y="824.1094">alt</text><text fill="#000000" font-family="sans-serif" font-size="11" font-weight="bold" lengthAdjust="spacing" textLength="103" x="911" y="823.1758">[Has appointment]</text><line style="stroke:#181818;stroke-width:1.0;" x1="920" x2="962" y1="864.4727" y2="864.4727"/><line style="stroke:#181818;stroke-width:1.0;" x1="962" x2="962" y1="864.4727" y2="877.4727"/><line style="stroke:#181818;stroke-width:1.0;" x1="921" x2="962" y1="877.4727" y2="877.4727"/><polygon fill="#181818" points="931,873.4727,921,877.4727,931,881.4727,927,877.4727" style="stroke:#181818;stroke-width:1.0;"/><text fill="#000000" font-family="sans-serif" font-size="13" lengthAdjust="spacing" textLength="204" x="927" y="844.4199">calculateIsOnTime(appointment)</text><text fill="#000000" font-family="sans-serif" font-size="13" lengthAdjust="spacing" textLength="179" x="927" y="859.7305">&#177;20 minutes from startTime</text><line style="stroke:#000000;stroke-width:1.0;stroke-dasharray:2.0,2.0;" x1="834" x2="1143" y1="886.4727" y2="886.4727"/><text fill="#000000" font-family="sans-serif" font-size="11" font-weight="bold" lengthAdjust="spacing" textLength="97" x="839" y="897.1074">[No appointment]</text><line style="stroke:#181818;stroke-width:1.0;" x1="920" x2="962" y1="921.7383" y2="921.7383"/><line style="stroke:#181818;stroke-width:1.0;" x1="962" x2="962" y1="921.7383" y2="934.7383"/><line style="stroke:#181818;stroke-width:1.0;" x1="921" x2="962" y1="934.7383" y2="934.7383"/><polygon fill="#181818" points="931,930.7383,921,934.7383,931,938.7383,927,934.7383" style="stroke:#181818;stroke-width:1.0;"/><text fill="#000000" font-family="sans-serif" font-size="13" lengthAdjust="spacing" textLength="108" x="927" y="916.9961">isOnTime = false</text><polygon fill="#181818" points="1489,982.3594,1499,986.3594,1489,990.3594,1493,986.3594" style="stroke:#181818;stroke-width:1.0;"/><line style="stroke:#181818;stroke-width:1.0;" x1="920" x2="1495" y1="986.3594" y2="986.3594"/><text fill="#000000" font-family="sans-serif" font-size="13" lengthAdjust="spacing" textLength="103" x="927" y="966.3066">findMany(where:</text><text fill="#000000" font-family="sans-serif" font-size="13" lengthAdjust="spacing" textLength="95" x="927" y="981.6172">{isActive: true})</text><polygon fill="#181818" points="931,1011.6699,921,1015.6699,931,1019.6699,927,1015.6699" style="stroke:#181818;stroke-width:1.0;"/><line style="stroke:#181818;stroke-width:1.0;stroke-dasharray:2.0,2.0;" x1="925" x2="1505" y1="1015.6699" y2="1015.6699"/><text fill="#000000" font-family="sans-serif" font-size="13" lengthAdjust="spacing" textLength="58" x="937" y="1010.9277">Counter[]</text><line style="stroke:#181818;stroke-width:1.0;" x1="920" x2="962" y1="1044.9805" y2="1044.9805"/><line style="stroke:#181818;stroke-width:1.0;" x1="962" x2="962" y1="1044.9805" y2="1057.9805"/><line style="stroke:#181818;stroke-width:1.0;" x1="921" x2="962" y1="1057.9805" y2="1057.9805"/><polygon fill="#181818" points="931,1053.9805,921,1057.9805,931,1061.9805,927,1057.9805" style="stroke:#181818;stroke-width:1.0;"/><text fill="#000000" font-family="sans-serif" font-size="13" lengthAdjust="spacing" textLength="121" x="927" y="1040.2383">selectBestCounter()</text><path d="M834,1072.9805 L908,1072.9805 L908,1080.291 L898,1090.291 L834,1090.291 L834,1072.9805 " fill="#EEEEEE" style="stroke:#000000;stroke-width:1.5;"/><rect fill="none" height="59.6211" style="stroke:#000000;stroke-width:1.5;" width="276" x="834" y="1072.9805"/><text fill="#000000" font-family="sans-serif" font-size="13" font-weight="bold" lengthAdjust="spacing" textLength="29" x="849" y="1086.5488">loop</text><text fill="#000000" font-family="sans-serif" font-size="11" font-weight="bold" lengthAdjust="spacing" textLength="101" x="923" y="1085.6152">[For each counter]</text><line style="stroke:#181818;stroke-width:1.0;" x1="920" x2="962" y1="1111.6016" y2="1111.6016"/><line style="stroke:#181818;stroke-width:1.0;" x1="962" x2="962" y1="1111.6016" y2="1124.6016"/><line style="stroke:#181818;stroke-width:1.0;" x1="921" x2="962" y1="1124.6016" y2="1124.6016"/><polygon fill="#181818" points="931,1120.6016,921,1124.6016,931,1128.6016,927,1124.6016" style="stroke:#181818;stroke-width:1.0;"/><text fill="#000000" font-family="sans-serif" font-size="13" lengthAdjust="spacing" textLength="171" x="927" y="1106.8594">getQueueLength(counterId)</text><line style="stroke:#181818;stroke-width:1.0;" x1="920" x2="962" y1="1176.2227" y2="1176.2227"/><line style="stroke:#181818;stroke-width:1.0;" x1="962" x2="962" y1="1176.2227" y2="1189.2227"/><line style="stroke:#181818;stroke-width:1.0;" x1="921" x2="962" y1="1189.2227" y2="1189.2227"/><polygon fill="#181818" points="931,1185.2227,921,1189.2227,931,1193.2227,927,1189.2227" style="stroke:#181818;stroke-width:1.0;"/><text fill="#000000" font-family="sans-serif" font-size="13" lengthAdjust="spacing" textLength="129" x="927" y="1156.1699">Sort by queueLength</text><text fill="#000000" font-family="sans-serif" font-size="13" lengthAdjust="spacing" textLength="200" x="927" y="1171.4805">Select counter with least people</text><line style="stroke:#181818;stroke-width:1.0;" x1="920" x2="962" y1="1264.4648" y2="1264.4648"/><line style="stroke:#181818;stroke-width:1.0;" x1="962" x2="962" y1="1264.4648" y2="1277.4648"/><line style="stroke:#181818;stroke-width:1.0;" x1="921" x2="962" y1="1277.4648" y2="1277.4648"/><polygon fill="#181818" points="931,1273.4648,921,1277.4648,931,1281.4648,927,1277.4648" style="stroke:#181818;stroke-width:1.0;"/><text fill="#000000" font-family="sans-serif" font-size="13" lengthAdjust="spacing" textLength="145" x="927" y="1213.791">calculateQueuePriority(</text><text fill="#000000" font-family="sans-serif" font-size="13" lengthAdjust="spacing" textLength="174" x="927" y="1229.1016">age, isDisabled, isPregnant,</text><text fill="#000000" font-family="sans-serif" font-size="13" lengthAdjust="spacing" textLength="175" x="927" y="1244.4121">hasAppointment, sequence,</text><text fill="#000000" font-family="sans-serif" font-size="13" lengthAdjust="spacing" textLength="111" x="927" y="1259.7227">callCount, status)</text><line style="stroke:#181818;stroke-width:1.0;" x1="920" x2="962" y1="1306.7754" y2="1306.7754"/><line style="stroke:#181818;stroke-width:1.0;" x1="962" x2="962" y1="1306.7754" y2="1319.7754"/><line style="stroke:#181818;stroke-width:1.0;" x1="921" x2="962" y1="1319.7754" y2="1319.7754"/><polygon fill="#181818" points="931,1315.7754,921,1319.7754,931,1323.7754,927,1319.7754" style="stroke:#181818;stroke-width:1.0;"/><text fill="#000000" font-family="sans-serif" font-size="13" lengthAdjust="spacing" textLength="181" x="927" y="1302.0332">generateSequence(counterId)</text><line style="stroke:#181818;stroke-width:1.0;" x1="920" x2="962" y1="1410.3281" y2="1410.3281"/><line style="stroke:#181818;stroke-width:1.0;" x1="962" x2="962" y1="1410.3281" y2="1423.3281"/><line style="stroke:#181818;stroke-width:1.0;" x1="921" x2="962" y1="1423.3281" y2="1423.3281"/><polygon fill="#181818" points="931,1419.3281,921,1423.3281,931,1427.3281,927,1423.3281" style="stroke:#181818;stroke-width:1.0;"/><text fill="#000000" font-family="sans-serif" font-size="13" lengthAdjust="spacing" textLength="136" x="927" y="1344.3438">Create ticketId (UUID)</text><text fill="#000000" font-family="sans-serif" font-size="13" lengthAdjust="spacing" textLength="132" x="927" y="1359.6543">Create queueNumber</text><text fill="#000000" font-family="sans-serif" font-size="13" lengthAdjust="spacing" textLength="166" x="927" y="1374.9648">Create QueueTicket object</text><text fill="#000000" font-family="sans-serif" font-size="13" lengthAdjust="spacing" textLength="112" x="927" y="1390.2754">status = WAITING</text><text fill="#000000" font-family="sans-serif" font-size="13" lengthAdjust="spacing" textLength="86" x="927" y="1405.5859">callCount = 0</text><line style="stroke:#181818;stroke-width:1.0;" x1="920" x2="962" y1="1452.6387" y2="1452.6387"/><line style="stroke:#181818;stroke-width:1.0;" x1="962" x2="962" y1="1452.6387" y2="1465.6387"/><line style="stroke:#181818;stroke-width:1.0;" x1="921" x2="962" y1="1465.6387" y2="1465.6387"/><polygon fill="#181818" points="931,1461.6387,921,1465.6387,931,1469.6387,927,1465.6387" style="stroke:#181818;stroke-width:1.0;"/><text fill="#000000" font-family="sans-serif" font-size="13" lengthAdjust="spacing" textLength="175" x="927" y="1447.8965">getCurrentQueue(counterId)</text><line style="stroke:#181818;stroke-width:1.0;" x1="920" x2="962" y1="1494.9492" y2="1494.9492"/><line style="stroke:#181818;stroke-width:1.0;" x1="962" x2="962" y1="1494.9492" y2="1507.9492"/><line style="stroke:#181818;stroke-width:1.0;" x1="921" x2="962" y1="1507.9492" y2="1507.9492"/><polygon fill="#181818" points="931,1503.9492,921,1507.9492,931,1511.9492,927,1507.9492" style="stroke:#181818;stroke-width:1.0;"/><text fill="#000000" font-family="sans-serif" font-size="13" lengthAdjust="spacing" textLength="165" x="927" y="1490.207">addTicketToStream(ticket)</text><line style="stroke:#181818;stroke-width:1.0;" x1="920" x2="962" y1="1537.2598" y2="1537.2598"/><line style="stroke:#181818;stroke-width:1.0;" x1="962" x2="962" y1="1537.2598" y2="1550.2598"/><line style="stroke:#181818;stroke-width:1.0;" x1="921" x2="962" y1="1550.2598" y2="1550.2598"/><polygon fill="#181818" points="931,1546.2598,921,1550.2598,931,1554.2598,927,1550.2598" style="stroke:#181818;stroke-width:1.0;"/><text fill="#000000" font-family="sans-serif" font-size="13" lengthAdjust="spacing" textLength="249" x="927" y="1532.5176">pushToCounterQueue(counterId, ticket)</text><line style="stroke:#181818;stroke-width:1.0;" x1="920" x2="962" y1="1579.5703" y2="1579.5703"/><line style="stroke:#181818;stroke-width:1.0;" x1="962" x2="962" y1="1579.5703" y2="1592.5703"/><line style="stroke:#181818;stroke-width:1.0;" x1="921" x2="962" y1="1592.5703" y2="1592.5703"/><polygon fill="#181818" points="931,1588.5703,921,1592.5703,931,1596.5703,927,1592.5703" style="stroke:#181818;stroke-width:1.0;"/><text fill="#000000" font-family="sans-serif" font-size="13" lengthAdjust="spacing" textLength="175" x="927" y="1574.8281">getCurrentQueue(counterId)</text><line style="stroke:#181818;stroke-width:1.0;" x1="920" x2="962" y1="1637.1914" y2="1637.1914"/><line style="stroke:#181818;stroke-width:1.0;" x1="962" x2="962" y1="1637.1914" y2="1650.1914"/><line style="stroke:#181818;stroke-width:1.0;" x1="921" x2="962" y1="1650.1914" y2="1650.1914"/><polygon fill="#181818" points="931,1646.1914,921,1650.1914,931,1654.1914,927,1650.1914" style="stroke:#181818;stroke-width:1.0;"/><text fill="#000000" font-family="sans-serif" font-size="13" lengthAdjust="spacing" textLength="207" x="927" y="1617.1387">Compare oldQueue vs newQueue</text><text fill="#000000" font-family="sans-serif" font-size="13" lengthAdjust="spacing" textLength="123" x="927" y="1632.4492">Find movedPatients</text><polygon fill="#181818" points="1171,1675.502,1181,1679.502,1171,1683.502,1175,1679.502" style="stroke:#181818;stroke-width:1.0;"/><line style="stroke:#181818;stroke-width:1.0;" x1="920" x2="1177" y1="1679.502" y2="1679.502"/><text fill="#000000" font-family="sans-serif" font-size="13" lengthAdjust="spacing" textLength="215" x="927" y="1674.7598">notifyNewTicket(counterId, ticket)</text><polygon fill="#181818" points="404,1704.8125,394,1708.8125,404,1712.8125,400,1708.8125" style="stroke:#181818;stroke-width:1.0;"/><line style="stroke:#181818;stroke-width:1.0;" x1="398" x2="1182" y1="1708.8125" y2="1708.8125"/><text fill="#000000" font-family="sans-serif" font-size="13" lengthAdjust="spacing" textLength="108" x="410" y="1704.0703">Notify new ticket</text><polygon fill="#181818" points="545.5,1734.123,535.5,1738.123,545.5,1742.123,541.5,1738.123" style="stroke:#181818;stroke-width:1.0;"/><line style="stroke:#181818;stroke-width:1.0;" x1="539.5" x2="1187" y1="1738.123" y2="1738.123"/><text fill="#000000" font-family="sans-serif" font-size="13" lengthAdjust="spacing" textLength="118" x="551.5" y="1733.3809">Update waiting list</text><polygon fill="#181818" points="1171,1778.7441,1181,1782.7441,1171,1786.7441,1175,1782.7441" style="stroke:#181818;stroke-width:1.0;"/><line style="stroke:#181818;stroke-width:1.0;" x1="920" x2="1177" y1="1782.7441" y2="1782.7441"/><text fill="#000000" font-family="sans-serif" font-size="13" lengthAdjust="spacing" textLength="201" x="927" y="1762.6914">notifyNewTicketQueueChanges(</text><text fill="#000000" font-family="sans-serif" font-size="13" lengthAdjust="spacing" textLength="176" x="927" y="1778.002">counterId, oldQueue, ticket)</text><polygon fill="#181818" points="404,1808.0547,394,1812.0547,404,1816.0547,400,1812.0547" style="stroke:#181818;stroke-width:1.0;"/><line style="stroke:#181818;stroke-width:1.0;" x1="398" x2="1182" y1="1812.0547" y2="1812.0547"/><text fill="#000000" font-family="sans-serif" font-size="13" lengthAdjust="spacing" textLength="142" x="410" y="1807.3125">Update queue position</text><polygon fill="#181818" points="545.5,1837.3652,535.5,1841.3652,545.5,1845.3652,541.5,1841.3652" style="stroke:#181818;stroke-width:1.0;"/><line style="stroke:#181818;stroke-width:1.0;" x1="539.5" x2="1187" y1="1841.3652" y2="1841.3652"/><text fill="#000000" font-family="sans-serif" font-size="13" lengthAdjust="spacing" textLength="123" x="551.5" y="1836.623">Update queue order</text><line style="stroke:#181818;stroke-width:1.0;" x1="920" x2="962" y1="1901.2969" y2="1901.2969"/><line style="stroke:#181818;stroke-width:1.0;" x1="962" x2="962" y1="1901.2969" y2="1914.2969"/><line style="stroke:#181818;stroke-width:1.0;" x1="921" x2="962" y1="1914.2969" y2="1914.2969"/><polygon fill="#181818" points="931,1910.2969,921,1914.2969,931,1918.2969,927,1914.2969" style="stroke:#181818;stroke-width:1.0;"/><text fill="#000000" font-family="sans-serif" font-size="13" lengthAdjust="spacing" textLength="198" x="927" y="1865.9336">enrichTicketForFrontend(ticket)</text><text fill="#000000" font-family="sans-serif" font-size="13" lengthAdjust="spacing" textLength="132" x="927" y="1881.2441">Add flags: isOnTime,</text><text fill="#000000" font-family="sans-serif" font-size="13" lengthAdjust="spacing" textLength="105" x="927" y="1896.5547">isElderly, isChild</text><polygon fill="#181818" points="718,1954.918,708,1958.918,718,1962.918,714,1958.918" style="stroke:#181818;stroke-width:1.0;"/><line style="stroke:#181818;stroke-width:1.0;stroke-dasharray:2.0,2.0;" x1="712" x2="914" y1="1958.918" y2="1958.918"/><text fill="#000000" font-family="sans-serif" font-size="13" lengthAdjust="spacing" textLength="119" x="724" y="1938.8652">TakeNumberResult</text><text fill="#000000" font-family="sans-serif" font-size="13" lengthAdjust="spacing" textLength="179" x="724" y="1954.1758">(success, ticket, patientInfo)</text><polygon fill="#181818" points="296.5,1999.5391,286.5,2003.5391,296.5,2007.5391,292.5,2003.5391" style="stroke:#181818;stroke-width:1.0;"/><line style="stroke:#181818;stroke-width:1.0;stroke-dasharray:2.0,2.0;" x1="290.5" x2="701" y1="2003.5391" y2="2003.5391"/><text fill="#000000" font-family="sans-serif" font-size="13" lengthAdjust="spacing" textLength="46" x="302.5" y="1983.4863">200 OK</text><text fill="#000000" font-family="sans-serif" font-size="13" lengthAdjust="spacing" textLength="73" x="302.5" y="1998.7969">(ticket info)</text><polygon fill="#181818" points="42.5,2074.7813,32.5,2078.7813,42.5,2082.7813,38.5,2078.7813" style="stroke:#181818;stroke-width:1.0;"/><line style="stroke:#181818;stroke-width:1.0;stroke-dasharray:2.0,2.0;" x1="36.5" x2="279.5" y1="2078.7813" y2="2078.7813"/><text fill="#000000" font-family="sans-serif" font-size="13" lengthAdjust="spacing" textLength="51" x="48.5" y="2028.1074">Display:</text><text fill="#000000" font-family="sans-serif" font-size="13" lengthAdjust="spacing" textLength="220" x="48.5" y="2043.418">- Queue number: &lt;queueNumber&gt;</text><text fill="#000000" font-family="sans-serif" font-size="13" lengthAdjust="spacing" textLength="174" x="48.5" y="2058.7285">- Counter: &lt;counterName&gt;</text><text fill="#000000" font-family="sans-serif" font-size="13" lengthAdjust="spacing" textLength="83" x="48.5" y="2074.0391">- Ticket time</text><polygon fill="#181818" points="381,2104.0918,391,2108.0918,381,2112.0918,385,2108.0918" style="stroke:#181818;stroke-width:1.0;"/><line style="stroke:#181818;stroke-width:1.0;" x1="116.5" x2="387" y1="2108.0918" y2="2108.0918"/><text fill="#000000" font-family="sans-serif" font-size="13" lengthAdjust="spacing" textLength="120" x="123.5" y="2103.3496">Observe new ticket</text><polygon fill="#181818" points="522.5,2148.7129,532.5,2152.7129,522.5,2156.7129,526.5,2152.7129" style="stroke:#181818;stroke-width:1.0;"/><line style="stroke:#181818;stroke-width:1.0;" x1="31.5" x2="528.5" y1="2152.7129" y2="2152.7129"/><text fill="#000000" font-family="sans-serif" font-size="13" lengthAdjust="spacing" textLength="145" x="38.5" y="2132.6602">Observe queue number</text><text fill="#000000" font-family="sans-serif" font-size="13" lengthAdjust="spacing" textLength="111" x="38.5" y="2147.9707">on waiting screen</text><polygon fill="#181818" points="127.5,2193.334,117.5,2197.334,127.5,2201.334,123.5,2197.334" style="stroke:#181818;stroke-width:1.0;"/><line style="stroke:#181818;stroke-width:1.0;stroke-dasharray:2.0,2.0;" x1="121.5" x2="392" y1="2197.334" y2="2197.334"/><text fill="#000000" font-family="sans-serif" font-size="13" lengthAdjust="spacing" textLength="76" x="133.5" y="2177.2813">Display new</text><text fill="#000000" font-family="sans-serif" font-size="13" lengthAdjust="spacing" textLength="122" x="133.5" y="2192.5918">patient information</text><polygon fill="#181818" points="42.5,2237.9551,32.5,2241.9551,42.5,2245.9551,38.5,2241.9551" style="stroke:#181818;stroke-width:1.0;"/><line style="stroke:#181818;stroke-width:1.0;stroke-dasharray:2.0,2.0;" x1="36.5" x2="533.5" y1="2241.9551" y2="2241.9551"/><text fill="#000000" font-family="sans-serif" font-size="13" lengthAdjust="spacing" textLength="88" x="48.5" y="2221.9023">Display list of</text><text fill="#000000" font-family="sans-serif" font-size="13" lengthAdjust="spacing" textLength="178" x="48.5" y="2237.2129">patients waiting to be called</text><!--SRC=[jLVDRXit4BxlKmnyab3PCN8KaW2ENBT2Mid9oX2ARW_KxaXYJP4Racj32FnGVOK-MOTSYai9afmSwekvm_dzveSZLbgbuUAUMOxINW0p4CuPQwz6gf4MDUIMBPUUmP-oR44N5TDRkFZ4bNc4lDI8qdDumiCuOObQEgP0scERCswvNC4NfJOfRw0JRrOgQRKIS35ZZpXfDWlKevOaK0V5kyzZp3dg9rvY6qbxxjZckCXL-OWsvPhd6U71xJRYTA_LaWjCuGgao7bJrufBkzcXcdn7de10YaQM1Nrm-M47uv2GO1BgrWAKgi8tXMITGay2fGkvOR9X0eYcjow1_8bPZEd8mi7fxa0Qmlqqdy4RIn1TIe-HFnUorw5sQrM_KvWWd7LdfpRWDWGRHNlLdkmEyum92xzIvFKUW2CA9GFw2tnEwJx4GrXoMTrnRMplUOqQXuNyLdVIBtql7mqU9CZTxPFWCdNy27k5vvGbZaOb9HDb8qZWPeMzYlvFbn-vjkl-IOarCqc9m7jOCc5Q0ndIoKELvFmOJec2eo0TY1y2bPQekqZzsOCelVZf5S0EbVvFQ5dTdCv64lSjMiQ58OblLrTNBmc-lwUjSqhJ4nFSEHXYdh0DzavxETBe8B2ugPLsyosK-bWkLI5NA2jgclVmCFaqcSudrD8hfCyzD1OEXp-GwJvDZIhBZfcXc51lk4JWvbxZIZ9f1tI-vOOj15PTgx4VISROJEMCKu29LB-G__xpzXh8McFHm5BJd3QMQUiuMo0dwhliyA0-blfXV64YjfLCsTbsXSpDZQilDsOexozxawaTexltPgzk0_7FlxAaGEFWFUQaGO6b_OZ61ZRATYQKgk6EtaPIigRPsygVYdE5zdE33Vw6ScNNlS0-hiuaD5VQmc8BNpkvGkRUbPqvUEPs3GAPiL2ZggdnihFPz3xSQwuqFJqzNsjfZGpIsYdaVdyD20VoHPP8LwHHU306Bl6sCVtZbgcyKPFXF8YcaMVdkeMxztTSGU_XONnB1HVe7epsHOaq7zJC2u1Q_4tu5B9rYgfgVZEUZIU_91uJyVgKitRKQ4snUfMl-igggZKxKxabNpQzrkqJx7LZrZCLIkZ0mW3EYlwePoErgPccRK1KNW2U34XyzkT2tb4hmKOzOHKccDdJCi-789Nbo-q4dzi0ZpaQUuSsetcUzAhRLIPUtjaC_84bhd13UAZT38NdiEm9RcpQaQJr5QTyDACrenbgg9OJ5tTXVwUpmHDVMr0hGmufUTBXbarf6jjd_8sfGAbvkMuzfd5nfsbJefxVbKeXRweAbeAjJ3SDgS6u-LcG1R5rFJbQSv5EYOFDhLlGlg1f19L_ppHbYSRi01YaZqu_TJikOka6bswTRw-lOVg9LBQQW1zgIDV0k5fs-ngzJDpKWcrfP5-slGhjVZc4TqaxVt3NSTg_2zbqRwk_2VrjtGEJ68zBhVyvSf3NwS9GT9XMOR9N9vdTCNvDl2kaah4uZVyHacLHUVkaE9inFcUca05d3vFUC5z9MJHr51XV-g2MKTX4krR10jtuTW_uVm00]--></g></svg>