<?xml version="1.0" encoding="us-ascii" standalone="no"?><svg xmlns="http://www.w3.org/2000/svg" xmlns:xlink="http://www.w3.org/1999/xlink" contentStyleType="text/css" height="1443px" preserveAspectRatio="none" style="width:1753px;height:1443px;background:#FFFFFF;" version="1.1" viewBox="0 0 1753 1443" width="1753px" zoomAndPan="magnify"><defs/><g><rect fill="#FFFFFF" height="784.1509" style="stroke:#000000;stroke-width:1.0;" width="1050.5" x="696" y="353.6099"/><rect fill="#FFFFFF" height="280.5625" style="stroke:none;stroke-width:1.0;" width="1050.5" x="696" y="857.1982"/><line style="stroke:#000000;stroke-width:1.0;" x1="28" x2="28" y1="83.0146" y2="1361.356"/><line style="stroke:#000000;stroke-width:1.0;" x1="185" x2="185" y1="83.0146" y2="1361.356"/><line style="stroke:#000000;stroke-width:1.0;" x1="366" x2="366" y1="83.0146" y2="1361.356"/><line style="stroke:#000000;stroke-width:1.0;" x1="769" x2="769" y1="83.0146" y2="1361.356"/><line style="stroke:#000000;stroke-width:1.0;" x1="1074.5" x2="1074.5" y1="83.0146" y2="1361.356"/><line style="stroke:#000000;stroke-width:1.0;" x1="1404" x2="1404" y1="83.0146" y2="1361.356"/><line style="stroke:#000000;stroke-width:1.0;" x1="1590.5" x2="1590.5" y1="83.0146" y2="1361.356"/><text fill="#000000" font-family="Verdana" font-size="14" lengthAdjust="spacing" textLength="31" x="10" y="80.0752">User</text><ellipse cx="28.5" cy="14" fill="#FFFFFF" rx="8" ry="8" style="stroke:#000000;stroke-width:1.0;"/><path d="M28.5,22 L28.5,49 M15.5,30 L41.5,30 M28.5,49 L15.5,64 M28.5,49 L41.5,64 " fill="none" style="stroke:#000000;stroke-width:1.0;"/><text fill="#000000" font-family="Verdana" font-size="14" lengthAdjust="spacing" textLength="31" x="10" y="1374.4312">User</text><ellipse cx="28.5" cy="1386.3706" fill="#FFFFFF" rx="8" ry="8" style="stroke:#000000;stroke-width:1.0;"/><path d="M28.5,1394.3706 L28.5,1421.3706 M15.5,1402.3706 L41.5,1402.3706 M28.5,1421.3706 L15.5,1436.3706 M28.5,1421.3706 L41.5,1436.3706 " fill="none" style="stroke:#000000;stroke-width:1.0;"/><text fill="#000000" font-family="Verdana" font-size="14" lengthAdjust="spacing" textLength="63" x="151" y="80.0752">Frontend</text><path d="M165,38 L165,62 M165,50 L182,50 " fill="none" style="stroke:#000000;stroke-width:1.0;"/><ellipse cx="194" cy="50" fill="#FFFFFF" rx="12" ry="12" style="stroke:#000000;stroke-width:1.0;"/><text fill="#000000" font-family="Verdana" font-size="14" lengthAdjust="spacing" textLength="63" x="151" y="1374.4312">Frontend</text><path d="M165,1381.3706 L165,1405.3706 M165,1393.3706 L182,1393.3706 " fill="none" style="stroke:#000000;stroke-width:1.0;"/><ellipse cx="194" cy="1393.3706" fill="#FFFFFF" rx="12" ry="12" style="stroke:#000000;stroke-width:1.0;"/><text fill="#000000" font-family="Verdana" font-size="14" lengthAdjust="spacing" textLength="139" x="294" y="80.0752">AiChatbotController</text><ellipse cx="366.5" cy="50" fill="#FFFFFF" rx="12" ry="12" style="stroke:#000000;stroke-width:1.0;"/><polygon fill="#000000" points="362.5,38,368.5,33,366.5,38,368.5,43,362.5,38" style="stroke:#000000;stroke-width:1.0;"/><text fill="#000000" font-family="Verdana" font-size="14" lengthAdjust="spacing" textLength="139" x="294" y="1374.4312">AiChatbotController</text><ellipse cx="366.5" cy="1393.3706" fill="#FFFFFF" rx="12" ry="12" style="stroke:#000000;stroke-width:1.0;"/><polygon fill="#000000" points="362.5,1381.3706,368.5,1376.3706,366.5,1381.3706,368.5,1386.3706,362.5,1381.3706" style="stroke:#000000;stroke-width:1.0;"/><text fill="#000000" font-family="Verdana" font-size="14" lengthAdjust="spacing" textLength="121" x="706" y="80.0752">AiChatbotService</text><ellipse cx="769.5" cy="50" fill="#FFFFFF" rx="12" ry="12" style="stroke:#000000;stroke-width:1.0;"/><polygon fill="#000000" points="765.5,38,771.5,33,769.5,38,771.5,43,765.5,38" style="stroke:#000000;stroke-width:1.0;"/><text fill="#000000" font-family="Verdana" font-size="14" lengthAdjust="spacing" textLength="121" x="706" y="1374.4312">AiChatbotService</text><ellipse cx="769.5" cy="1393.3706" fill="#FFFFFF" rx="12" ry="12" style="stroke:#000000;stroke-width:1.0;"/><polygon fill="#000000" points="765.5,1381.3706,771.5,1376.3706,769.5,1381.3706,771.5,1386.3706,765.5,1381.3706" style="stroke:#000000;stroke-width:1.0;"/><text fill="#000000" font-family="Verdana" font-size="14" lengthAdjust="spacing" textLength="158" x="992.5" y="80.0752">DatabaseQueryService</text><ellipse cx="1074.5" cy="50" fill="#FFFFFF" rx="12" ry="12" style="stroke:#000000;stroke-width:1.0;"/><polygon fill="#000000" points="1070.5,38,1076.5,33,1074.5,38,1076.5,43,1070.5,38" style="stroke:#000000;stroke-width:1.0;"/><text fill="#000000" font-family="Verdana" font-size="14" lengthAdjust="spacing" textLength="158" x="992.5" y="1374.4312">DatabaseQueryService</text><ellipse cx="1074.5" cy="1393.3706" fill="#FFFFFF" rx="12" ry="12" style="stroke:#000000;stroke-width:1.0;"/><polygon fill="#000000" points="1070.5,1381.3706,1076.5,1376.3706,1074.5,1381.3706,1076.5,1386.3706,1070.5,1381.3706" style="stroke:#000000;stroke-width:1.0;"/><text fill="#000000" font-family="Verdana" font-size="14" lengthAdjust="spacing" textLength="71" x="1366" y="80.0752">Gemini AI</text><ellipse cx="1404.5" cy="50" fill="#FFFFFF" rx="12" ry="12" style="stroke:#000000;stroke-width:1.0;"/><line style="stroke:#000000;stroke-width:1.0;" x1="1392.5" x2="1416.5" y1="64" y2="64"/><text fill="#000000" font-family="Verdana" font-size="14" lengthAdjust="spacing" textLength="71" x="1366" y="1374.4312">Gemini AI</text><ellipse cx="1404.5" cy="1393.3706" fill="#FFFFFF" rx="12" ry="12" style="stroke:#000000;stroke-width:1.0;"/><line style="stroke:#000000;stroke-width:1.0;" x1="1392.5" x2="1416.5" y1="1407.3706" y2="1407.3706"/><text fill="#000000" font-family="Verdana" font-size="14" lengthAdjust="spacing" textLength="98" x="1538.5" y="80.0752">PrismaService</text><ellipse cx="1590.5" cy="50" fill="#FFFFFF" rx="12" ry="12" style="stroke:#000000;stroke-width:1.0;"/><line style="stroke:#000000;stroke-width:1.0;" x1="1578.5" x2="1602.5" y1="64" y2="64"/><text fill="#000000" font-family="Verdana" font-size="14" lengthAdjust="spacing" textLength="98" x="1538.5" y="1374.4312">PrismaService</text><ellipse cx="1590.5" cy="1393.3706" fill="#FFFFFF" rx="12" ry="12" style="stroke:#000000;stroke-width:1.0;"/><line style="stroke:#000000;stroke-width:1.0;" x1="1578.5" x2="1602.5" y1="1407.3706" y2="1407.3706"/><polygon fill="#000000" points="173.5,110.814,183.5,114.814,173.5,118.814,177.5,114.814" style="stroke:#000000;stroke-width:1.0;"/><line style="stroke:#000000;stroke-width:1.0;" x1="28.5" x2="179.5" y1="114.814" y2="114.814"/><text fill="#000000" font-family="Verdana" font-size="13" lengthAdjust="spacing" textLength="97" x="35.5" y="110.0845">Send message</text><polygon fill="#000000" points="354.5,143.6133,364.5,147.6133,354.5,151.6133,358.5,147.6133" style="stroke:#000000;stroke-width:1.0;"/><line style="stroke:#000000;stroke-width:1.0;" x1="185.5" x2="360.5" y1="147.6133" y2="147.6133"/><text fill="#000000" font-family="Verdana" font-size="13" lengthAdjust="spacing" textLength="147" x="192.5" y="142.8838">POST /ai-chatbot/chat</text><path d="M371,127.814 L371,152.814 L498,152.814 L498,137.814 L488,127.814 L371,127.814 " fill="#FFFFFF" style="stroke:#000000;stroke-width:1.0;"/><path d="M488,127.814 L488,137.814 L498,137.814 L488,127.814 " fill="#FFFFFF" style="stroke:#000000;stroke-width:1.0;"/><text fill="#000000" font-family="Verdana" font-size="13" lengthAdjust="spacing" textLength="106" x="377" y="145.8838">ChatRequestDto</text><line style="stroke:#000000;stroke-width:1.0;" x1="366.5" x2="408.5" y1="180.4126" y2="180.4126"/><line style="stroke:#000000;stroke-width:1.0;" x1="408.5" x2="408.5" y1="180.4126" y2="193.4126"/><line style="stroke:#000000;stroke-width:1.0;" x1="367.5" x2="408.5" y1="193.4126" y2="193.4126"/><polygon fill="#000000" points="377.5,189.4126,367.5,193.4126,377.5,197.4126,373.5,193.4126" style="stroke:#000000;stroke-width:1.0;"/><text fill="#000000" font-family="Verdana" font-size="13" lengthAdjust="spacing" textLength="202" x="373.5" y="175.6831">JwtAuthGuard.validateToken()</text><line style="stroke:#000000;stroke-width:1.0;" x1="366.5" x2="408.5" y1="223.2119" y2="223.2119"/><line style="stroke:#000000;stroke-width:1.0;" x1="408.5" x2="408.5" y1="223.2119" y2="236.2119"/><line style="stroke:#000000;stroke-width:1.0;" x1="367.5" x2="408.5" y1="236.2119" y2="236.2119"/><polygon fill="#000000" points="377.5,232.2119,367.5,236.2119,377.5,240.2119,373.5,236.2119" style="stroke:#000000;stroke-width:1.0;"/><text fill="#000000" font-family="Verdana" font-size="13" lengthAdjust="spacing" textLength="229" x="373.5" y="218.4824">validateChatRequest(chatRequest)</text><polygon fill="#000000" points="757.5,262.0112,767.5,266.0112,757.5,270.0112,761.5,266.0112" style="stroke:#000000;stroke-width:1.0;"/><line style="stroke:#000000;stroke-width:1.0;" x1="366.5" x2="763.5" y1="266.0112" y2="266.0112"/><text fill="#000000" font-family="Verdana" font-size="13" lengthAdjust="spacing" textLength="215" x="373.5" y="261.2817">generateResponse(chatRequest)</text><polygon fill="#000000" points="1062.5,291.8105,1072.5,295.8105,1062.5,299.8105,1066.5,295.8105" style="stroke:#000000;stroke-width:1.0;"/><line style="stroke:#000000;stroke-width:1.0;" x1="769.5" x2="1068.5" y1="295.8105" y2="295.8105"/><text fill="#000000" font-family="Verdana" font-size="13" lengthAdjust="spacing" textLength="224" x="776.5" y="291.0811">processDatabaseQuery(message)</text><line style="stroke:#000000;stroke-width:1.0;" x1="1074.5" x2="1116.5" y1="325.6099" y2="325.6099"/><line style="stroke:#000000;stroke-width:1.0;" x1="1116.5" x2="1116.5" y1="325.6099" y2="338.6099"/><line style="stroke:#000000;stroke-width:1.0;" x1="1075.5" x2="1116.5" y1="338.6099" y2="338.6099"/><polygon fill="#000000" points="1085.5,334.6099,1075.5,338.6099,1085.5,342.6099,1081.5,338.6099" style="stroke:#000000;stroke-width:1.0;"/><text fill="#000000" font-family="Verdana" font-size="13" lengthAdjust="spacing" textLength="252" x="1081.5" y="320.8804">isDatabaseRelatedQuestion(message)</text><path d="M696,353.6099 L760,353.6099 L760,361.4092 L750,371.4092 L696,371.4092 L696,353.6099 " fill="#FFFFFF" style="stroke:#000000;stroke-width:1.0;"/><rect fill="none" height="784.1509" style="stroke:#000000;stroke-width:1.0;" width="1050.5" x="696" y="353.6099"/><text fill="#000000" font-family="Verdana" font-size="13" font-weight="bold" lengthAdjust="spacing" textLength="19" x="711" y="367.6797">alt</text><text fill="#000000" font-family="Verdana" font-size="11" font-weight="bold" lengthAdjust="spacing" textLength="175" x="775" y="366.6689">[Database related question]</text><polygon fill="#000000" points="1392.5,389.2085,1402.5,393.2085,1392.5,397.2085,1396.5,393.2085" style="stroke:#000000;stroke-width:1.0;"/><line style="stroke:#000000;stroke-width:1.0;" x1="1074.5" x2="1398.5" y1="393.2085" y2="393.2085"/><text fill="#000000" font-family="Verdana" font-size="13" lengthAdjust="spacing" textLength="213" x="1081.5" y="388.479">generatePrismaQuery(question)</text><line style="stroke:#000000;stroke-width:1.0;" x1="1404.5" x2="1446.5" y1="423.0078" y2="423.0078"/><line style="stroke:#000000;stroke-width:1.0;" x1="1446.5" x2="1446.5" y1="423.0078" y2="436.0078"/><line style="stroke:#000000;stroke-width:1.0;" x1="1405.5" x2="1446.5" y1="436.0078" y2="436.0078"/><polygon fill="#000000" points="1415.5,432.0078,1405.5,436.0078,1415.5,440.0078,1411.5,436.0078" style="stroke:#000000;stroke-width:1.0;"/><text fill="#000000" font-family="Verdana" font-size="13" lengthAdjust="spacing" textLength="172" x="1411.5" y="418.2783">gemini.generateContent()</text><polygon fill="#000000" points="1085.5,477.6064,1075.5,481.6064,1085.5,485.6064,1081.5,481.6064" style="stroke:#000000;stroke-width:1.0;"/><line style="stroke:#000000;stroke-width:1.0;stroke-dasharray:2.0,2.0;" x1="1079.5" x2="1403.5" y1="481.6064" y2="481.6064"/><text fill="#000000" font-family="Verdana" font-size="13" lengthAdjust="spacing" textLength="78" x="1091.5" y="461.0776">queryString</text><text fill="#000000" font-family="Verdana" font-size="13" lengthAdjust="spacing" textLength="211" x="1091.5" y="476.877">(Prisma query in string format)</text><line style="stroke:#000000;stroke-width:1.0;" x1="1074.5" x2="1116.5" y1="511.4058" y2="511.4058"/><line style="stroke:#000000;stroke-width:1.0;" x1="1116.5" x2="1116.5" y1="511.4058" y2="524.4058"/><line style="stroke:#000000;stroke-width:1.0;" x1="1075.5" x2="1116.5" y1="524.4058" y2="524.4058"/><polygon fill="#000000" points="1085.5,520.4058,1075.5,524.4058,1085.5,528.4058,1081.5,524.4058" style="stroke:#000000;stroke-width:1.0;"/><text fill="#000000" font-family="Verdana" font-size="13" lengthAdjust="spacing" textLength="230" x="1081.5" y="506.6763">validateQueryFormat(queryString)</text><line style="stroke:#000000;stroke-width:1.0;" x1="1074.5" x2="1116.5" y1="554.2051" y2="554.2051"/><line style="stroke:#000000;stroke-width:1.0;" x1="1116.5" x2="1116.5" y1="554.2051" y2="567.2051"/><line style="stroke:#000000;stroke-width:1.0;" x1="1075.5" x2="1116.5" y1="567.2051" y2="567.2051"/><polygon fill="#000000" points="1085.5,563.2051,1075.5,567.2051,1085.5,571.2051,1081.5,567.2051" style="stroke:#000000;stroke-width:1.0;"/><text fill="#000000" font-family="Verdana" font-size="13" lengthAdjust="spacing" textLength="248" x="1081.5" y="549.4756">sanitizeQueryForPatient(queryString)</text><polygon fill="#000000" points="1578.5,593.0044,1588.5,597.0044,1578.5,601.0044,1582.5,597.0044" style="stroke:#000000;stroke-width:1.0;"/><line style="stroke:#000000;stroke-width:1.0;" x1="1074.5" x2="1584.5" y1="597.0044" y2="597.0044"/><text fill="#000000" font-family="Verdana" font-size="13" lengthAdjust="spacing" textLength="228" x="1081.5" y="592.2749">executePrismaQuery(queryString)</text><line style="stroke:#000000;stroke-width:1.0;" x1="1590.5" x2="1632.5" y1="626.8037" y2="626.8037"/><line style="stroke:#000000;stroke-width:1.0;" x1="1632.5" x2="1632.5" y1="626.8037" y2="639.8037"/><line style="stroke:#000000;stroke-width:1.0;" x1="1591.5" x2="1632.5" y1="639.8037" y2="639.8037"/><polygon fill="#000000" points="1601.5,635.8037,1591.5,639.8037,1601.5,643.8037,1597.5,639.8037" style="stroke:#000000;stroke-width:1.0;"/><text fill="#000000" font-family="Verdana" font-size="13" lengthAdjust="spacing" textLength="137" x="1597.5" y="622.0742">prisma.$queryRaw()</text><polygon fill="#000000" points="1085.5,681.4023,1075.5,685.4023,1085.5,689.4023,1081.5,685.4023" style="stroke:#000000;stroke-width:1.0;"/><line style="stroke:#000000;stroke-width:1.0;stroke-dasharray:2.0,2.0;" x1="1079.5" x2="1589.5" y1="685.4023" y2="685.4023"/><text fill="#000000" font-family="Verdana" font-size="13" lengthAdjust="spacing" textLength="86" x="1091.5" y="664.8735">queryResults</text><text fill="#000000" font-family="Verdana" font-size="13" lengthAdjust="spacing" textLength="186" x="1091.5" y="680.6729">(data from database query)</text><polygon fill="#000000" points="1392.5,711.2017,1402.5,715.2017,1392.5,719.2017,1396.5,715.2017" style="stroke:#000000;stroke-width:1.0;"/><line style="stroke:#000000;stroke-width:1.0;" x1="1074.5" x2="1398.5" y1="715.2017" y2="715.2017"/><text fill="#000000" font-family="Verdana" font-size="13" lengthAdjust="spacing" textLength="243" x="1081.5" y="710.4722">generateExplanation(question, data)</text><line style="stroke:#000000;stroke-width:1.0;" x1="1404.5" x2="1446.5" y1="745.001" y2="745.001"/><line style="stroke:#000000;stroke-width:1.0;" x1="1446.5" x2="1446.5" y1="745.001" y2="758.001"/><line style="stroke:#000000;stroke-width:1.0;" x1="1405.5" x2="1446.5" y1="758.001" y2="758.001"/><polygon fill="#000000" points="1415.5,754.001,1405.5,758.001,1415.5,762.001,1411.5,758.001" style="stroke:#000000;stroke-width:1.0;"/><text fill="#000000" font-family="Verdana" font-size="13" lengthAdjust="spacing" textLength="172" x="1411.5" y="740.2715">gemini.generateContent()</text><polygon fill="#000000" points="1085.5,799.5996,1075.5,803.5996,1085.5,807.5996,1081.5,803.5996" style="stroke:#000000;stroke-width:1.0;"/><line style="stroke:#000000;stroke-width:1.0;stroke-dasharray:2.0,2.0;" x1="1079.5" x2="1403.5" y1="803.5996" y2="803.5996"/><text fill="#000000" font-family="Verdana" font-size="13" lengthAdjust="spacing" textLength="77" x="1091.5" y="783.0708">explanation</text><text fill="#000000" font-family="Verdana" font-size="13" lengthAdjust="spacing" textLength="306" x="1091.5" y="798.8701">(natural language explanation in Vietnamese)</text><polygon fill="#000000" points="780.5,845.1982,770.5,849.1982,780.5,853.1982,776.5,849.1982" style="stroke:#000000;stroke-width:1.0;"/><line style="stroke:#000000;stroke-width:1.0;stroke-dasharray:2.0,2.0;" x1="774.5" x2="1073.5" y1="849.1982" y2="849.1982"/><text fill="#000000" font-family="Verdana" font-size="13" lengthAdjust="spacing" textLength="60" x="786.5" y="828.6694">response</text><text fill="#000000" font-family="Verdana" font-size="13" lengthAdjust="spacing" textLength="197" x="786.5" y="844.4688">(explained data with context)</text><line style="stroke:#000000;stroke-width:1.0;stroke-dasharray:2.0,2.0;" x1="696" x2="1746.5" y1="858.1982" y2="858.1982"/><text fill="#000000" font-family="Verdana" font-size="11" font-weight="bold" lengthAdjust="spacing" textLength="168" x="701" y="869.2573">[Normal medical question]</text><polygon fill="#000000" points="780.5,906.1655,770.5,910.1655,780.5,914.1655,776.5,910.1655" style="stroke:#000000;stroke-width:1.0;"/><line style="stroke:#000000;stroke-width:1.0;stroke-dasharray:2.0,2.0;" x1="774.5" x2="1073.5" y1="910.1655" y2="910.1655"/><text fill="#000000" font-family="Verdana" font-size="13" lengthAdjust="spacing" textLength="113" x="786.5" y="889.6367">isDatabaseQuery</text><text fill="#000000" font-family="Verdana" font-size="13" lengthAdjust="spacing" textLength="117" x="786.5" y="905.436">(flag set to false)</text><polygon fill="#000000" points="1392.5,935.9648,1402.5,939.9648,1392.5,943.9648,1396.5,939.9648" style="stroke:#000000;stroke-width:1.0;"/><line style="stroke:#000000;stroke-width:1.0;" x1="769.5" x2="1398.5" y1="939.9648" y2="939.9648"/><text fill="#000000" font-family="Verdana" font-size="13" lengthAdjust="spacing" textLength="261" x="776.5" y="935.2354">buildMedicalAssistantPrompt(message)</text><line style="stroke:#000000;stroke-width:1.0;" x1="1404.5" x2="1446.5" y1="969.7642" y2="969.7642"/><line style="stroke:#000000;stroke-width:1.0;" x1="1446.5" x2="1446.5" y1="969.7642" y2="982.7642"/><line style="stroke:#000000;stroke-width:1.0;" x1="1405.5" x2="1446.5" y1="982.7642" y2="982.7642"/><polygon fill="#000000" points="1415.5,978.7642,1405.5,982.7642,1415.5,986.7642,1411.5,982.7642" style="stroke:#000000;stroke-width:1.0;"/><text fill="#000000" font-family="Verdana" font-size="13" lengthAdjust="spacing" textLength="172" x="1411.5" y="965.0347">gemini.generateContent()</text><polygon fill="#000000" points="780.5,1024.3628,770.5,1028.3628,780.5,1032.3628,776.5,1028.3628" style="stroke:#000000;stroke-width:1.0;"/><line style="stroke:#000000;stroke-width:1.0;stroke-dasharray:2.0,2.0;" x1="774.5" x2="1403.5" y1="1028.3628" y2="1028.3628"/><text fill="#000000" font-family="Verdana" font-size="13" lengthAdjust="spacing" textLength="75" x="786.5" y="1007.834">aiResponse</text><text fill="#000000" font-family="Verdana" font-size="13" lengthAdjust="spacing" textLength="212" x="786.5" y="1023.6333">(medical advice in Vietnamese)</text><line style="stroke:#000000;stroke-width:1.0;" x1="769.5" x2="811.5" y1="1058.1621" y2="1058.1621"/><line style="stroke:#000000;stroke-width:1.0;" x1="811.5" x2="811.5" y1="1058.1621" y2="1071.1621"/><line style="stroke:#000000;stroke-width:1.0;" x1="770.5" x2="811.5" y1="1071.1621" y2="1071.1621"/><polygon fill="#000000" points="780.5,1067.1621,770.5,1071.1621,780.5,1075.1621,776.5,1071.1621" style="stroke:#000000;stroke-width:1.0;"/><text fill="#000000" font-family="Verdana" font-size="13" lengthAdjust="spacing" textLength="187" x="776.5" y="1053.4326">containsMedicalAdvice(text)</text><line style="stroke:#000000;stroke-width:1.0;stroke-dasharray:2.0,2.0;" x1="769.5" x2="811.5" y1="1116.7607" y2="1116.7607"/><line style="stroke:#000000;stroke-width:1.0;stroke-dasharray:2.0,2.0;" x1="811.5" x2="811.5" y1="1116.7607" y2="1129.7607"/><line style="stroke:#000000;stroke-width:1.0;stroke-dasharray:2.0,2.0;" x1="770.5" x2="811.5" y1="1129.7607" y2="1129.7607"/><polygon fill="#000000" points="780.5,1125.7607,770.5,1129.7607,780.5,1133.7607,776.5,1129.7607" style="stroke:#000000;stroke-width:1.0;"/><text fill="#000000" font-family="Verdana" font-size="13" lengthAdjust="spacing" textLength="60" x="776.5" y="1096.2319">response</text><text fill="#000000" font-family="Verdana" font-size="13" lengthAdjust="spacing" textLength="291" x="776.5" y="1112.0313">(general medical response with disclaimer)</text><line style="stroke:#000000;stroke-width:1.0;" x1="769.5" x2="811.5" y1="1166.5601" y2="1166.5601"/><line style="stroke:#000000;stroke-width:1.0;" x1="811.5" x2="811.5" y1="1166.5601" y2="1179.5601"/><line style="stroke:#000000;stroke-width:1.0;" x1="770.5" x2="811.5" y1="1179.5601" y2="1179.5601"/><polygon fill="#000000" points="780.5,1175.5601,770.5,1179.5601,780.5,1183.5601,776.5,1179.5601" style="stroke:#000000;stroke-width:1.0;"/><text fill="#000000" font-family="Verdana" font-size="13" lengthAdjust="spacing" textLength="171" x="776.5" y="1161.8306">generateConversationId()</text><line style="stroke:#000000;stroke-width:1.0;" x1="769.5" x2="811.5" y1="1209.3594" y2="1209.3594"/><line style="stroke:#000000;stroke-width:1.0;" x1="811.5" x2="811.5" y1="1209.3594" y2="1222.3594"/><line style="stroke:#000000;stroke-width:1.0;" x1="770.5" x2="811.5" y1="1222.3594" y2="1222.3594"/><polygon fill="#000000" points="780.5,1218.3594,770.5,1222.3594,780.5,1226.3594,776.5,1222.3594" style="stroke:#000000;stroke-width:1.0;"/><text fill="#000000" font-family="Verdana" font-size="13" lengthAdjust="spacing" textLength="154" x="776.5" y="1204.6299">getMedicalDisclaimer()</text><polygon fill="#000000" points="377.5,1263.958,367.5,1267.958,377.5,1271.958,373.5,1267.958" style="stroke:#000000;stroke-width:1.0;"/><line style="stroke:#000000;stroke-width:1.0;stroke-dasharray:2.0,2.0;" x1="371.5" x2="768.5" y1="1267.958" y2="1267.958"/><text fill="#000000" font-family="Verdana" font-size="13" lengthAdjust="spacing" textLength="60" x="383.5" y="1247.4292">response</text><text fill="#000000" font-family="Verdana" font-size="13" lengthAdjust="spacing" textLength="379" x="383.5" y="1263.2285">(chat response with conversationId, disclaimer, content)</text><polygon fill="#000000" points="196.5,1309.5566,186.5,1313.5566,196.5,1317.5566,192.5,1313.5566" style="stroke:#000000;stroke-width:1.0;"/><line style="stroke:#000000;stroke-width:1.0;stroke-dasharray:2.0,2.0;" x1="190.5" x2="365.5" y1="1313.5566" y2="1313.5566"/><text fill="#000000" font-family="Verdana" font-size="13" lengthAdjust="spacing" textLength="60" x="202.5" y="1293.0278">response</text><text fill="#000000" font-family="Verdana" font-size="13" lengthAdjust="spacing" textLength="157" x="202.5" y="1308.8271">(complete AI response)</text><polygon fill="#000000" points="39.5,1339.356,29.5,1343.356,39.5,1347.356,35.5,1343.356" style="stroke:#000000;stroke-width:1.0;"/><line style="stroke:#000000;stroke-width:1.0;stroke-dasharray:2.0,2.0;" x1="33.5" x2="184.5" y1="1343.356" y2="1343.356"/><text fill="#000000" font-family="Verdana" font-size="13" lengthAdjust="spacing" textLength="133" x="45.5" y="1338.6265">Display AI response</text><!--SRC=[fPHDRzim38Rl-XLSi8C3zEEUmu30MOeEsEOcpKwxA3QJ29FbLABxiLy_IhByiRQNhPSaqaFsvKkA7-Y4DS9PIsM4a2Kr5cOxXtO6qi5Ex9lMLDA-m6nj6qDegd2n5YN_ies6sLBb9qdxXl9uehlO_0raY_PHbHZkb_bs85QIv5uwl6lHleofrTrMe255hE06QsKKB6_3pStojhyfh7Ar7CSLMo5sSFa9rWlOicgeqJbvHB7sX_a2Yk_RUxYMwhACqgxzfp0D8LXrFD42lEODFhJeQ4MDoBl0Bq-qREbqqqfRNJrAhIf9UD_yGfFDUoYTZt9avV2z0zc21HpHe6LqW-xS68TJJZ3ZKVPX0MVRb5p6nAoiAsmk6Eb9rKCRr9oyklFfL6C6N6g2186D53nqc03-wnAoqOFAw7JypmcU1vgn4UqxTPM2yZ0vb8t09FGXD9oiCiUV9elPuo4e0ovSmA6njQJvM5G8JYu7EUi0PQE4hmESD8hKxpwWaAIyiFU22ex1PopRLuLFyQAdpm6x-XYGZNpA1c1ICdUxrUIuPYv0mi4sDLIf6u6Olzk3py_yN8qCxKmzk0ZH_zC97BAoAlxIMgc1ZuujpylusdVcXq8oaeS9HphJIDjkb3bF25E6HolK-QJe1FxLupFt4pKN-yttJVFxh5J9dwydC6LLqy7dv0SjZ-2GW1euI9sqT4ycrBzlbQw-njnBvvGZQQXWjyyqF8L_CYreacepr9fAa9LVGs-vr2aBeTu5TiObSI4eYyRqx1kEHbM3OUagUbifLxBXDLgsrrJz_fYi6Yxe4QqBpRojkAufH9saLPyh8N6vZSJuNVMNWdAI_6Aaw29stiJr5tVpE1StHIFlNpOu7S_zlcPojm1MmwFqChuLVm00]--></g></svg>