<?xml version="1.0" encoding="us-ascii" standalone="no"?><svg xmlns="http://www.w3.org/2000/svg" xmlns:xlink="http://www.w3.org/1999/xlink" contentStyleType="text/css" height="2655px" preserveAspectRatio="none" style="width:1839px;height:2655px;background:#FFFFFF;" version="1.1" viewBox="0 0 1839 2655" width="1839px" zoomAndPan="magnify"><defs/><g><rect fill="#FFFFFF" height="393.3584" style="stroke:#000000;stroke-width:1.0;" width="1597" x="15" y="353.6099"/><rect fill="#FFFFFF" height="166.1646" style="stroke:none;stroke-width:1.0;" width="1597" x="15" y="580.8037"/><rect fill="#FFFFFF" height="393.3584" style="stroke:#000000;stroke-width:1.0;" width="1600" x="15" y="1465.5532"/><rect fill="#FFFFFF" height="166.1646" style="stroke:none;stroke-width:1.0;" width="1600" x="15" y="1692.7471"/><rect fill="#FFFFFF" height="393.3584" style="stroke:#000000;stroke-width:1.0;" width="1735" x="15" y="2163.3062"/><rect fill="#FFFFFF" height="166.1646" style="stroke:none;stroke-width:1.0;" width="1735" x="15" y="2390.5"/><line style="stroke:#000000;stroke-width:1.0;" x1="51" x2="51" y1="83.0146" y2="2573.6646"/><line style="stroke:#000000;stroke-width:1.0;" x1="293.5" x2="293.5" y1="83.0146" y2="2573.6646"/><line style="stroke:#000000;stroke-width:1.0;" x1="588" x2="588" y1="83.0146" y2="2573.6646"/><line style="stroke:#000000;stroke-width:1.0;" x1="970" x2="970" y1="83.0146" y2="2573.6646"/><line style="stroke:#000000;stroke-width:1.0;" x1="1398.5" x2="1398.5" y1="83.0146" y2="2573.6646"/><line style="stroke:#000000;stroke-width:1.0;" x1="1745" x2="1745" y1="83.0146" y2="2573.6646"/><line style="stroke:#000000;stroke-width:1.0;" x1="1809" x2="1809" y1="83.0146" y2="2573.6646"/><text fill="#000000" font-family="Verdana" font-size="14" lengthAdjust="spacing" textLength="46" x="25" y="80.0752">Doctor</text><ellipse cx="51" cy="14" fill="#FFFFFF" rx="8" ry="8" style="stroke:#000000;stroke-width:1.0;"/><path d="M51,22 L51,49 M38,30 L64,30 M51,49 L38,64 M51,49 L64,64 " fill="none" style="stroke:#000000;stroke-width:1.0;"/><text fill="#000000" font-family="Verdana" font-size="14" lengthAdjust="spacing" textLength="46" x="25" y="2586.7397">Doctor</text><ellipse cx="51" cy="2598.6792" fill="#FFFFFF" rx="8" ry="8" style="stroke:#000000;stroke-width:1.0;"/><path d="M51,2606.6792 L51,2633.6792 M38,2614.6792 L64,2614.6792 M51,2633.6792 L38,2648.6792 M51,2633.6792 L64,2648.6792 " fill="none" style="stroke:#000000;stroke-width:1.0;"/><text fill="#000000" font-family="Verdana" font-size="14" lengthAdjust="spacing" textLength="63" x="259.5" y="80.0752">Frontend</text><path d="M273.5,38 L273.5,62 M273.5,50 L290.5,50 " fill="none" style="stroke:#000000;stroke-width:1.0;"/><ellipse cx="302.5" cy="50" fill="#FFFFFF" rx="12" ry="12" style="stroke:#000000;stroke-width:1.0;"/><text fill="#000000" font-family="Verdana" font-size="14" lengthAdjust="spacing" textLength="63" x="259.5" y="2586.7397">Frontend</text><path d="M273.5,2593.6792 L273.5,2617.6792 M273.5,2605.6792 L290.5,2605.6792 " fill="none" style="stroke:#000000;stroke-width:1.0;"/><ellipse cx="302.5" cy="2605.6792" fill="#FFFFFF" rx="12" ry="12" style="stroke:#000000;stroke-width:1.0;"/><text fill="#000000" font-family="Verdana" font-size="14" lengthAdjust="spacing" textLength="158" x="506" y="80.0752">WorkSessionController</text><ellipse cx="588" cy="50" fill="#FFFFFF" rx="12" ry="12" style="stroke:#000000;stroke-width:1.0;"/><polygon fill="#000000" points="584,38,590,33,588,38,590,43,584,38" style="stroke:#000000;stroke-width:1.0;"/><text fill="#000000" font-family="Verdana" font-size="14" lengthAdjust="spacing" textLength="158" x="506" y="2586.7397">WorkSessionController</text><ellipse cx="588" cy="2605.6792" fill="#FFFFFF" rx="12" ry="12" style="stroke:#000000;stroke-width:1.0;"/><polygon fill="#000000" points="584,2593.6792,590,2588.6792,588,2593.6792,590,2598.6792,584,2593.6792" style="stroke:#000000;stroke-width:1.0;"/><text fill="#000000" font-family="Verdana" font-size="14" lengthAdjust="spacing" textLength="140" x="897" y="80.0752">WorkSessionService</text><ellipse cx="970" cy="50" fill="#FFFFFF" rx="12" ry="12" style="stroke:#000000;stroke-width:1.0;"/><polygon fill="#000000" points="966,38,972,33,970,38,972,43,966,38" style="stroke:#000000;stroke-width:1.0;"/><text fill="#000000" font-family="Verdana" font-size="14" lengthAdjust="spacing" textLength="140" x="897" y="2586.7397">WorkSessionService</text><ellipse cx="970" cy="2605.6792" fill="#FFFFFF" rx="12" ry="12" style="stroke:#000000;stroke-width:1.0;"/><polygon fill="#000000" points="966,2593.6792,972,2588.6792,970,2593.6792,972,2598.6792,966,2593.6792" style="stroke:#000000;stroke-width:1.0;"/><text fill="#000000" font-family="Verdana" font-size="14" lengthAdjust="spacing" textLength="89" x="1351.5" y="80.0752">WorkSession</text><ellipse cx="1399" cy="50" fill="#FFFFFF" rx="12" ry="12" style="stroke:#000000;stroke-width:1.0;"/><line style="stroke:#000000;stroke-width:1.0;" x1="1387" x2="1411" y1="64" y2="64"/><text fill="#000000" font-family="Verdana" font-size="14" lengthAdjust="spacing" textLength="89" x="1351.5" y="2586.7397">WorkSession</text><ellipse cx="1399" cy="2605.6792" fill="#FFFFFF" rx="12" ry="12" style="stroke:#000000;stroke-width:1.0;"/><line style="stroke:#000000;stroke-width:1.0;" x1="1387" x2="1411" y1="2619.6792" y2="2619.6792"/><text fill="#000000" font-family="Verdana" font-size="14" lengthAdjust="spacing" textLength="46" x="1719" y="80.0752">Doctor</text><ellipse cx="1745" cy="50" fill="#FFFFFF" rx="12" ry="12" style="stroke:#000000;stroke-width:1.0;"/><line style="stroke:#000000;stroke-width:1.0;" x1="1733" x2="1757" y1="64" y2="64"/><text fill="#000000" font-family="Verdana" font-size="14" lengthAdjust="spacing" textLength="46" x="1719" y="2586.7397">Doctor</text><ellipse cx="1745" cy="2605.6792" fill="#FFFFFF" rx="12" ry="12" style="stroke:#000000;stroke-width:1.0;"/><line style="stroke:#000000;stroke-width:1.0;" x1="1733" x2="1757" y1="2619.6792" y2="2619.6792"/><text fill="#000000" font-family="Verdana" font-size="14" lengthAdjust="spacing" textLength="51" x="1781" y="80.0752">Service</text><ellipse cx="1809.5" cy="50" fill="#FFFFFF" rx="12" ry="12" style="stroke:#000000;stroke-width:1.0;"/><line style="stroke:#000000;stroke-width:1.0;" x1="1797.5" x2="1821.5" y1="64" y2="64"/><text fill="#000000" font-family="Verdana" font-size="14" lengthAdjust="spacing" textLength="51" x="1781" y="2586.7397">Service</text><ellipse cx="1809.5" cy="2605.6792" fill="#FFFFFF" rx="12" ry="12" style="stroke:#000000;stroke-width:1.0;"/><line style="stroke:#000000;stroke-width:1.0;" x1="1797.5" x2="1821.5" y1="2619.6792" y2="2619.6792"/><polygon fill="#000000" points="282,110.814,292,114.814,282,118.814,286,114.814" style="stroke:#000000;stroke-width:1.0;"/><line style="stroke:#000000;stroke-width:1.0;" x1="51" x2="288" y1="114.814" y2="114.814"/><text fill="#000000" font-family="Verdana" font-size="13" lengthAdjust="spacing" textLength="210" x="58" y="110.0845">Request to create work session</text><polygon fill="#000000" points="576,143.6133,586,147.6133,576,151.6133,580,147.6133" style="stroke:#000000;stroke-width:1.0;"/><line style="stroke:#000000;stroke-width:1.0;" x1="294" x2="582" y1="147.6133" y2="147.6133"/><text fill="#000000" font-family="Verdana" font-size="13" lengthAdjust="spacing" textLength="182" x="301" y="142.8838">POST /work-session/create</text><path d="M593,127.814 L593,152.814 L767,152.814 L767,137.814 L757,127.814 L593,127.814 " fill="#FFFFFF" style="stroke:#000000;stroke-width:1.0;"/><path d="M757,127.814 L757,137.814 L767,137.814 L757,127.814 " fill="#FFFFFF" style="stroke:#000000;stroke-width:1.0;"/><text fill="#000000" font-family="Verdana" font-size="13" lengthAdjust="spacing" textLength="153" x="599" y="145.8838">CreateWorkSessionDto</text><line style="stroke:#000000;stroke-width:1.0;" x1="588" x2="630" y1="180.4126" y2="180.4126"/><line style="stroke:#000000;stroke-width:1.0;" x1="630" x2="630" y1="180.4126" y2="193.4126"/><line style="stroke:#000000;stroke-width:1.0;" x1="589" x2="630" y1="193.4126" y2="193.4126"/><polygon fill="#000000" points="599,189.4126,589,193.4126,599,197.4126,595,193.4126" style="stroke:#000000;stroke-width:1.0;"/><text fill="#000000" font-family="Verdana" font-size="13" lengthAdjust="spacing" textLength="239" x="595" y="175.6831">validateCreateWorkSessionDto(dto)</text><polygon fill="#000000" points="958,219.2119,968,223.2119,958,227.2119,962,223.2119" style="stroke:#000000;stroke-width:1.0;"/><line style="stroke:#000000;stroke-width:1.0;" x1="588" x2="964" y1="223.2119" y2="223.2119"/><text fill="#000000" font-family="Verdana" font-size="13" lengthAdjust="spacing" textLength="330" x="595" y="218.4824">createWorkSession(createWorkSessionDto, user)</text><polygon fill="#000000" points="1387,249.0112,1397,253.0112,1387,257.0112,1391,253.0112" style="stroke:#000000;stroke-width:1.0;"/><line style="stroke:#000000;stroke-width:1.0;" x1="970" x2="1393" y1="253.0112" y2="253.0112"/><text fill="#000000" font-family="Verdana" font-size="13" lengthAdjust="spacing" textLength="211" x="977" y="248.2817">validateWorkSessionData(data)</text><line style="stroke:#000000;stroke-width:1.0;" x1="1399" x2="1441" y1="282.8105" y2="282.8105"/><line style="stroke:#000000;stroke-width:1.0;" x1="1441" x2="1441" y1="282.8105" y2="295.8105"/><line style="stroke:#000000;stroke-width:1.0;" x1="1400" x2="1441" y1="295.8105" y2="295.8105"/><polygon fill="#000000" points="1410,291.8105,1400,295.8105,1410,299.8105,1406,295.8105" style="stroke:#000000;stroke-width:1.0;"/><text fill="#000000" font-family="Verdana" font-size="13" lengthAdjust="spacing" textLength="201" x="1406" y="278.0811">checkDuplicateSchedule(data)</text><line style="stroke:#000000;stroke-width:1.0;" x1="1399" x2="1441" y1="325.6099" y2="325.6099"/><line style="stroke:#000000;stroke-width:1.0;" x1="1441" x2="1441" y1="325.6099" y2="338.6099"/><line style="stroke:#000000;stroke-width:1.0;" x1="1400" x2="1441" y1="338.6099" y2="338.6099"/><polygon fill="#000000" points="1410,334.6099,1400,338.6099,1410,342.6099,1406,338.6099" style="stroke:#000000;stroke-width:1.0;"/><text fill="#000000" font-family="Verdana" font-size="13" lengthAdjust="spacing" textLength="206" x="1406" y="320.8804">prisma.workSession.findFirst()</text><path d="M15,353.6099 L79,353.6099 L79,361.4092 L69,371.4092 L15,371.4092 L15,353.6099 " fill="#FFFFFF" style="stroke:#000000;stroke-width:1.0;"/><rect fill="none" height="393.3584" style="stroke:#000000;stroke-width:1.0;" width="1597" x="15" y="353.6099"/><text fill="#000000" font-family="Verdana" font-size="13" font-weight="bold" lengthAdjust="spacing" textLength="19" x="30" y="367.6797">alt</text><text fill="#000000" font-family="Verdana" font-size="11" font-weight="bold" lengthAdjust="spacing" textLength="79" x="94" y="366.6689">[No conflict]</text><line style="stroke:#000000;stroke-width:1.0;" x1="1399" x2="1441" y1="393.2085" y2="393.2085"/><line style="stroke:#000000;stroke-width:1.0;" x1="1441" x2="1441" y1="393.2085" y2="406.2085"/><line style="stroke:#000000;stroke-width:1.0;" x1="1400" x2="1441" y1="406.2085" y2="406.2085"/><polygon fill="#000000" points="1410,402.2085,1400,406.2085,1410,410.2085,1406,406.2085" style="stroke:#000000;stroke-width:1.0;"/><text fill="#000000" font-family="Verdana" font-size="13" lengthAdjust="spacing" textLength="194" x="1406" y="388.479">prisma.workSession.create()</text><polygon fill="#000000" points="981,447.8071,971,451.8071,981,455.8071,977,451.8071" style="stroke:#000000;stroke-width:1.0;"/><line style="stroke:#000000;stroke-width:1.0;stroke-dasharray:2.0,2.0;" x1="975" x2="1398" y1="451.8071" y2="451.8071"/><text fill="#000000" font-family="Verdana" font-size="13" lengthAdjust="spacing" textLength="84" x="987" y="431.2783">workSession</text><text fill="#000000" font-family="Verdana" font-size="13" lengthAdjust="spacing" textLength="405" x="987" y="447.0776">(id, boothId, doctorId, startTime, endTime, status, services)</text><polygon fill="#000000" points="599,493.4058,589,497.4058,599,501.4058,595,497.4058" style="stroke:#000000;stroke-width:1.0;"/><line style="stroke:#000000;stroke-width:1.0;stroke-dasharray:2.0,2.0;" x1="593" x2="969" y1="497.4058" y2="497.4058"/><text fill="#000000" font-family="Verdana" font-size="13" lengthAdjust="spacing" textLength="115" x="605" y="476.877">workSessionData</text><text fill="#000000" font-family="Verdana" font-size="13" lengthAdjust="spacing" textLength="319" x="605" y="492.6763">(id, boothName, doctorInfo, timeRange, status)</text><polygon fill="#000000" points="305,539.0044,295,543.0044,305,547.0044,301,543.0044" style="stroke:#000000;stroke-width:1.0;"/><line style="stroke:#000000;stroke-width:1.0;stroke-dasharray:2.0,2.0;" x1="299" x2="587" y1="543.0044" y2="543.0044"/><text fill="#000000" font-family="Verdana" font-size="13" lengthAdjust="spacing" textLength="60" x="311" y="522.4756">response</text><text fill="#000000" font-family="Verdana" font-size="13" lengthAdjust="spacing" textLength="270" x="311" y="538.2749">(work session details with confirmation)</text><polygon fill="#000000" points="62,568.8037,52,572.8037,62,576.8037,58,572.8037" style="stroke:#000000;stroke-width:1.0;"/><line style="stroke:#000000;stroke-width:1.0;stroke-dasharray:2.0,2.0;" x1="56" x2="293" y1="572.8037" y2="572.8037"/><text fill="#000000" font-family="Verdana" font-size="13" lengthAdjust="spacing" textLength="169" x="68" y="568.0742">Display success message</text><line style="stroke:#000000;stroke-width:1.0;stroke-dasharray:2.0,2.0;" x1="15" x2="1612" y1="581.8037" y2="581.8037"/><text fill="#000000" font-family="Verdana" font-size="11" font-weight="bold" lengthAdjust="spacing" textLength="117" x="20" y="592.8628">[Conflict detected]</text><polygon fill="#000000" points="981,613.9717,971,617.9717,981,621.9717,977,617.9717" style="stroke:#000000;stroke-width:1.0;"/><line style="stroke:#000000;stroke-width:1.0;stroke-dasharray:2.0,2.0;" x1="975" x2="1398" y1="617.9717" y2="617.9717"/><text fill="#000000" font-family="Verdana" font-size="13" lengthAdjust="spacing" textLength="169" x="987" y="613.2422">throw ConflictException()</text><polygon fill="#000000" points="599,659.5703,589,663.5703,599,667.5703,595,663.5703" style="stroke:#000000;stroke-width:1.0;"/><line style="stroke:#000000;stroke-width:1.0;stroke-dasharray:2.0,2.0;" x1="593" x2="969" y1="663.5703" y2="663.5703"/><text fill="#000000" font-family="Verdana" font-size="13" lengthAdjust="spacing" textLength="34" x="605" y="643.0415">error</text><text fill="#000000" font-family="Verdana" font-size="13" lengthAdjust="spacing" textLength="202" x="605" y="658.8408">(conflict message and details)</text><polygon fill="#000000" points="305,705.1689,295,709.1689,305,713.1689,301,709.1689" style="stroke:#000000;stroke-width:1.0;"/><line style="stroke:#000000;stroke-width:1.0;stroke-dasharray:2.0,2.0;" x1="299" x2="587" y1="709.1689" y2="709.1689"/><text fill="#000000" font-family="Verdana" font-size="13" lengthAdjust="spacing" textLength="34" x="311" y="688.6401">error</text><text fill="#000000" font-family="Verdana" font-size="13" lengthAdjust="spacing" textLength="150" x="311" y="704.4395">(HTTP error response)</text><polygon fill="#000000" points="62,734.9683,52,738.9683,62,742.9683,58,738.9683" style="stroke:#000000;stroke-width:1.0;"/><line style="stroke:#000000;stroke-width:1.0;stroke-dasharray:2.0,2.0;" x1="56" x2="293" y1="738.9683" y2="738.9683"/><text fill="#000000" font-family="Verdana" font-size="13" lengthAdjust="spacing" textLength="166" x="68" y="734.2388">Display conflict message</text><polygon fill="#000000" points="282,771.7676,292,775.7676,282,779.7676,286,775.7676" style="stroke:#000000;stroke-width:1.0;"/><line style="stroke:#000000;stroke-width:1.0;" x1="51" x2="288" y1="775.7676" y2="775.7676"/><text fill="#000000" font-family="Verdana" font-size="13" lengthAdjust="spacing" textLength="152" x="58" y="771.0381">Request work sessions</text><polygon fill="#000000" points="576,801.5669,586,805.5669,576,809.5669,580,805.5669" style="stroke:#000000;stroke-width:1.0;"/><line style="stroke:#000000;stroke-width:1.0;" x1="294" x2="582" y1="805.5669" y2="805.5669"/><text fill="#000000" font-family="Verdana" font-size="13" lengthAdjust="spacing" textLength="173" x="301" y="800.8374">GET /work-session/doctor</text><line style="stroke:#000000;stroke-width:1.0;" x1="588" x2="630" y1="835.3662" y2="835.3662"/><line style="stroke:#000000;stroke-width:1.0;" x1="630" x2="630" y1="835.3662" y2="848.3662"/><line style="stroke:#000000;stroke-width:1.0;" x1="589" x2="630" y1="848.3662" y2="848.3662"/><polygon fill="#000000" points="599,844.3662,589,848.3662,599,852.3662,595,848.3662" style="stroke:#000000;stroke-width:1.0;"/><text fill="#000000" font-family="Verdana" font-size="13" lengthAdjust="spacing" textLength="118" x="595" y="830.6367">validateRequest()</text><polygon fill="#000000" points="958,874.1655,968,878.1655,958,882.1655,962,878.1655" style="stroke:#000000;stroke-width:1.0;"/><line style="stroke:#000000;stroke-width:1.0;" x1="588" x2="964" y1="878.1655" y2="878.1655"/><text fill="#000000" font-family="Verdana" font-size="13" lengthAdjust="spacing" textLength="199" x="595" y="873.436">getDoctorWorkSessions(user)</text><polygon fill="#000000" points="1387,903.9648,1397,907.9648,1387,911.9648,1391,907.9648" style="stroke:#000000;stroke-width:1.0;"/><line style="stroke:#000000;stroke-width:1.0;" x1="970" x2="1393" y1="907.9648" y2="907.9648"/><text fill="#000000" font-family="Verdana" font-size="13" lengthAdjust="spacing" textLength="157" x="977" y="903.2354">findByDoctorId(user.id)</text><line style="stroke:#000000;stroke-width:1.0;" x1="1399" x2="1441" y1="937.7642" y2="937.7642"/><line style="stroke:#000000;stroke-width:1.0;" x1="1441" x2="1441" y1="937.7642" y2="950.7642"/><line style="stroke:#000000;stroke-width:1.0;" x1="1400" x2="1441" y1="950.7642" y2="950.7642"/><polygon fill="#000000" points="1410,946.7642,1400,950.7642,1410,954.7642,1406,950.7642" style="stroke:#000000;stroke-width:1.0;"/><text fill="#000000" font-family="Verdana" font-size="13" lengthAdjust="spacing" textLength="212" x="1406" y="933.0347">prisma.workSession.findMany()</text><polygon fill="#000000" points="981,992.3628,971,996.3628,981,1000.3628,977,996.3628" style="stroke:#000000;stroke-width:1.0;"/><line style="stroke:#000000;stroke-width:1.0;stroke-dasharray:2.0,2.0;" x1="975" x2="1398" y1="996.3628" y2="996.3628"/><text fill="#000000" font-family="Verdana" font-size="13" lengthAdjust="spacing" textLength="91" x="987" y="975.834">workSessions</text><text fill="#000000" font-family="Verdana" font-size="13" lengthAdjust="spacing" textLength="246" x="987" y="991.6333">(all work session records for doctor)</text><polygon fill="#000000" points="599,1037.9614,589,1041.9614,599,1045.9614,595,1041.9614" style="stroke:#000000;stroke-width:1.0;"/><line style="stroke:#000000;stroke-width:1.0;stroke-dasharray:2.0,2.0;" x1="593" x2="969" y1="1041.9614" y2="1041.9614"/><text fill="#000000" font-family="Verdana" font-size="13" lengthAdjust="spacing" textLength="91" x="605" y="1021.4326">workSessions</text><text fill="#000000" font-family="Verdana" font-size="13" lengthAdjust="spacing" textLength="273" x="605" y="1037.2319">(formatted list with booth, services info)</text><polygon fill="#000000" points="305,1083.5601,295,1087.5601,305,1091.5601,301,1087.5601" style="stroke:#000000;stroke-width:1.0;"/><line style="stroke:#000000;stroke-width:1.0;stroke-dasharray:2.0,2.0;" x1="299" x2="587" y1="1087.5601" y2="1087.5601"/><text fill="#000000" font-family="Verdana" font-size="13" lengthAdjust="spacing" textLength="91" x="311" y="1067.0313">workSessions</text><text fill="#000000" font-family="Verdana" font-size="13" lengthAdjust="spacing" textLength="147" x="311" y="1082.8306">(work sessions array)</text><polygon fill="#000000" points="62,1113.3594,52,1117.3594,62,1121.3594,58,1117.3594" style="stroke:#000000;stroke-width:1.0;"/><line style="stroke:#000000;stroke-width:1.0;stroke-dasharray:2.0,2.0;" x1="56" x2="293" y1="1117.3594" y2="1117.3594"/><text fill="#000000" font-family="Verdana" font-size="13" lengthAdjust="spacing" textLength="173" x="68" y="1112.6299">Display work sessions list</text><polygon fill="#000000" points="282,1143.1587,292,1147.1587,282,1151.1587,286,1147.1587" style="stroke:#000000;stroke-width:1.0;"/><line style="stroke:#000000;stroke-width:1.0;" x1="51" x2="288" y1="1147.1587" y2="1147.1587"/><text fill="#000000" font-family="Verdana" font-size="13" lengthAdjust="spacing" textLength="213" x="58" y="1142.4292">Request to update work session</text><polygon fill="#000000" points="576,1172.958,586,1176.958,576,1180.958,580,1176.958" style="stroke:#000000;stroke-width:1.0;"/><line style="stroke:#000000;stroke-width:1.0;" x1="294" x2="582" y1="1176.958" y2="1176.958"/><text fill="#000000" font-family="Verdana" font-size="13" lengthAdjust="spacing" textLength="200" x="301" y="1172.2285">PUT /work-session/update/:id</text><line style="stroke:#000000;stroke-width:1.0;" x1="588" x2="630" y1="1206.7573" y2="1206.7573"/><line style="stroke:#000000;stroke-width:1.0;" x1="630" x2="630" y1="1206.7573" y2="1219.7573"/><line style="stroke:#000000;stroke-width:1.0;" x1="589" x2="630" y1="1219.7573" y2="1219.7573"/><polygon fill="#000000" points="599,1215.7573,589,1219.7573,599,1223.7573,595,1219.7573" style="stroke:#000000;stroke-width:1.0;"/><text fill="#000000" font-family="Verdana" font-size="13" lengthAdjust="spacing" textLength="90" x="595" y="1202.0278">validateId(id)</text><line style="stroke:#000000;stroke-width:1.0;" x1="588" x2="630" y1="1249.5566" y2="1249.5566"/><line style="stroke:#000000;stroke-width:1.0;" x1="630" x2="630" y1="1249.5566" y2="1262.5566"/><line style="stroke:#000000;stroke-width:1.0;" x1="589" x2="630" y1="1262.5566" y2="1262.5566"/><polygon fill="#000000" points="599,1258.5566,589,1262.5566,599,1266.5566,595,1262.5566" style="stroke:#000000;stroke-width:1.0;"/><text fill="#000000" font-family="Verdana" font-size="13" lengthAdjust="spacing" textLength="242" x="595" y="1244.8271">validateUpdateWorkSessionDto(dto)</text><polygon fill="#000000" points="958,1288.356,968,1292.356,958,1296.356,962,1292.356" style="stroke:#000000;stroke-width:1.0;"/><line style="stroke:#000000;stroke-width:1.0;" x1="588" x2="964" y1="1292.356" y2="1292.356"/><text fill="#000000" font-family="Verdana" font-size="13" lengthAdjust="spacing" textLength="358" x="595" y="1287.6265">updateWorkSession(id, updateWorkSessionDto, user)</text><polygon fill="#000000" points="1387,1318.1553,1397,1322.1553,1387,1326.1553,1391,1322.1553" style="stroke:#000000;stroke-width:1.0;"/><line style="stroke:#000000;stroke-width:1.0;" x1="970" x2="1393" y1="1322.1553" y2="1322.1553"/><text fill="#000000" font-family="Verdana" font-size="13" lengthAdjust="spacing" textLength="187" x="977" y="1317.4258">checkWorkSessionExists(id)</text><line style="stroke:#000000;stroke-width:1.0;" x1="1399" x2="1441" y1="1351.9546" y2="1351.9546"/><line style="stroke:#000000;stroke-width:1.0;" x1="1441" x2="1441" y1="1351.9546" y2="1364.9546"/><line style="stroke:#000000;stroke-width:1.0;" x1="1400" x2="1441" y1="1364.9546" y2="1364.9546"/><polygon fill="#000000" points="1410,1360.9546,1400,1364.9546,1410,1368.9546,1406,1364.9546" style="stroke:#000000;stroke-width:1.0;"/><text fill="#000000" font-family="Verdana" font-size="13" lengthAdjust="spacing" textLength="223" x="1406" y="1347.2251">prisma.workSession.findUnique()</text><line style="stroke:#000000;stroke-width:1.0;" x1="1399" x2="1441" y1="1394.7539" y2="1394.7539"/><line style="stroke:#000000;stroke-width:1.0;" x1="1441" x2="1441" y1="1394.7539" y2="1407.7539"/><line style="stroke:#000000;stroke-width:1.0;" x1="1400" x2="1441" y1="1407.7539" y2="1407.7539"/><polygon fill="#000000" points="1410,1403.7539,1400,1407.7539,1410,1411.7539,1406,1407.7539" style="stroke:#000000;stroke-width:1.0;"/><text fill="#000000" font-family="Verdana" font-size="13" lengthAdjust="spacing" textLength="178" x="1406" y="1390.0244">checkHasAppointments(id)</text><line style="stroke:#000000;stroke-width:1.0;" x1="1399" x2="1441" y1="1437.5532" y2="1437.5532"/><line style="stroke:#000000;stroke-width:1.0;" x1="1441" x2="1441" y1="1437.5532" y2="1450.5532"/><line style="stroke:#000000;stroke-width:1.0;" x1="1400" x2="1441" y1="1450.5532" y2="1450.5532"/><polygon fill="#000000" points="1410,1446.5532,1400,1450.5532,1410,1454.5532,1406,1450.5532" style="stroke:#000000;stroke-width:1.0;"/><text fill="#000000" font-family="Verdana" font-size="13" lengthAdjust="spacing" textLength="205" x="1406" y="1432.8237">prisma.appointment.findFirst()</text><path d="M15,1465.5532 L79,1465.5532 L79,1473.3525 L69,1483.3525 L15,1483.3525 L15,1465.5532 " fill="#FFFFFF" style="stroke:#000000;stroke-width:1.0;"/><rect fill="none" height="393.3584" style="stroke:#000000;stroke-width:1.0;" width="1600" x="15" y="1465.5532"/><text fill="#000000" font-family="Verdana" font-size="13" font-weight="bold" lengthAdjust="spacing" textLength="19" x="30" y="1479.623">alt</text><text fill="#000000" font-family="Verdana" font-size="11" font-weight="bold" lengthAdjust="spacing" textLength="120" x="94" y="1478.6123">[No appointments]</text><line style="stroke:#000000;stroke-width:1.0;" x1="1399" x2="1441" y1="1505.1519" y2="1505.1519"/><line style="stroke:#000000;stroke-width:1.0;" x1="1441" x2="1441" y1="1505.1519" y2="1518.1519"/><line style="stroke:#000000;stroke-width:1.0;" x1="1400" x2="1441" y1="1518.1519" y2="1518.1519"/><polygon fill="#000000" points="1410,1514.1519,1400,1518.1519,1410,1522.1519,1406,1518.1519" style="stroke:#000000;stroke-width:1.0;"/><text fill="#000000" font-family="Verdana" font-size="13" lengthAdjust="spacing" textLength="197" x="1406" y="1500.4224">prisma.workSession.update()</text><polygon fill="#000000" points="981,1559.7505,971,1563.7505,981,1567.7505,977,1563.7505" style="stroke:#000000;stroke-width:1.0;"/><line style="stroke:#000000;stroke-width:1.0;stroke-dasharray:2.0,2.0;" x1="975" x2="1398" y1="1563.7505" y2="1563.7505"/><text fill="#000000" font-family="Verdana" font-size="13" lengthAdjust="spacing" textLength="84" x="987" y="1543.2217">workSession</text><text fill="#000000" font-family="Verdana" font-size="13" lengthAdjust="spacing" textLength="205" x="987" y="1559.021">(updated work session record)</text><polygon fill="#000000" points="599,1605.3491,589,1609.3491,599,1613.3491,595,1609.3491" style="stroke:#000000;stroke-width:1.0;"/><line style="stroke:#000000;stroke-width:1.0;stroke-dasharray:2.0,2.0;" x1="593" x2="969" y1="1609.3491" y2="1609.3491"/><text fill="#000000" font-family="Verdana" font-size="13" lengthAdjust="spacing" textLength="115" x="605" y="1588.8203">workSessionData</text><text fill="#000000" font-family="Verdana" font-size="13" lengthAdjust="spacing" textLength="206" x="605" y="1604.6196">(updated work session details)</text><polygon fill="#000000" points="305,1650.9478,295,1654.9478,305,1658.9478,301,1654.9478" style="stroke:#000000;stroke-width:1.0;"/><line style="stroke:#000000;stroke-width:1.0;stroke-dasharray:2.0,2.0;" x1="299" x2="587" y1="1654.9478" y2="1654.9478"/><text fill="#000000" font-family="Verdana" font-size="13" lengthAdjust="spacing" textLength="60" x="311" y="1634.4189">response</text><text fill="#000000" font-family="Verdana" font-size="13" lengthAdjust="spacing" textLength="260" x="311" y="1650.2183">(work session with new time/services)</text><polygon fill="#000000" points="62,1680.7471,52,1684.7471,62,1688.7471,58,1684.7471" style="stroke:#000000;stroke-width:1.0;"/><line style="stroke:#000000;stroke-width:1.0;stroke-dasharray:2.0,2.0;" x1="56" x2="293" y1="1684.7471" y2="1684.7471"/><text fill="#000000" font-family="Verdana" font-size="13" lengthAdjust="spacing" textLength="219" x="68" y="1680.0176">Display update success message</text><line style="stroke:#000000;stroke-width:1.0;stroke-dasharray:2.0,2.0;" x1="15" x2="1615" y1="1693.7471" y2="1693.7471"/><text fill="#000000" font-family="Verdana" font-size="11" font-weight="bold" lengthAdjust="spacing" textLength="126" x="20" y="1704.8062">[Has appointments]</text><polygon fill="#000000" points="981,1725.915,971,1729.915,981,1733.915,977,1729.915" style="stroke:#000000;stroke-width:1.0;"/><line style="stroke:#000000;stroke-width:1.0;stroke-dasharray:2.0,2.0;" x1="975" x2="1398" y1="1729.915" y2="1729.915"/><text fill="#000000" font-family="Verdana" font-size="13" lengthAdjust="spacing" textLength="197" x="987" y="1725.1855">throw BadRequestException()</text><polygon fill="#000000" points="599,1771.5137,589,1775.5137,599,1779.5137,595,1775.5137" style="stroke:#000000;stroke-width:1.0;"/><line style="stroke:#000000;stroke-width:1.0;stroke-dasharray:2.0,2.0;" x1="593" x2="969" y1="1775.5137" y2="1775.5137"/><text fill="#000000" font-family="Verdana" font-size="13" lengthAdjust="spacing" textLength="34" x="605" y="1754.9849">error</text><text fill="#000000" font-family="Verdana" font-size="13" lengthAdjust="spacing" textLength="222" x="605" y="1770.7842">(not allowed to modify message)</text><polygon fill="#000000" points="305,1817.1123,295,1821.1123,305,1825.1123,301,1821.1123" style="stroke:#000000;stroke-width:1.0;"/><line style="stroke:#000000;stroke-width:1.0;stroke-dasharray:2.0,2.0;" x1="299" x2="587" y1="1821.1123" y2="1821.1123"/><text fill="#000000" font-family="Verdana" font-size="13" lengthAdjust="spacing" textLength="34" x="311" y="1800.5835">error</text><text fill="#000000" font-family="Verdana" font-size="13" lengthAdjust="spacing" textLength="150" x="311" y="1816.3828">(HTTP error response)</text><polygon fill="#000000" points="62,1846.9116,52,1850.9116,62,1854.9116,58,1850.9116" style="stroke:#000000;stroke-width:1.0;"/><line style="stroke:#000000;stroke-width:1.0;stroke-dasharray:2.0,2.0;" x1="56" x2="293" y1="1850.9116" y2="1850.9116"/><text fill="#000000" font-family="Verdana" font-size="13" lengthAdjust="spacing" textLength="213" x="68" y="1846.1821">Display cannot modify message</text><polygon fill="#000000" points="282,1883.7109,292,1887.7109,282,1891.7109,286,1887.7109" style="stroke:#000000;stroke-width:1.0;"/><line style="stroke:#000000;stroke-width:1.0;" x1="51" x2="288" y1="1887.7109" y2="1887.7109"/><text fill="#000000" font-family="Verdana" font-size="13" lengthAdjust="spacing" textLength="210" x="58" y="1882.9814">Request to cancel work session</text><polygon fill="#000000" points="576,1913.5103,586,1917.5103,576,1921.5103,580,1917.5103" style="stroke:#000000;stroke-width:1.0;"/><line style="stroke:#000000;stroke-width:1.0;" x1="294" x2="582" y1="1917.5103" y2="1917.5103"/><text fill="#000000" font-family="Verdana" font-size="13" lengthAdjust="spacing" textLength="220" x="301" y="1912.7808">DELETE /work-session/cancel/:id</text><line style="stroke:#000000;stroke-width:1.0;" x1="588" x2="630" y1="1947.3096" y2="1947.3096"/><line style="stroke:#000000;stroke-width:1.0;" x1="630" x2="630" y1="1947.3096" y2="1960.3096"/><line style="stroke:#000000;stroke-width:1.0;" x1="589" x2="630" y1="1960.3096" y2="1960.3096"/><polygon fill="#000000" points="599,1956.3096,589,1960.3096,599,1964.3096,595,1960.3096" style="stroke:#000000;stroke-width:1.0;"/><text fill="#000000" font-family="Verdana" font-size="13" lengthAdjust="spacing" textLength="90" x="595" y="1942.5801">validateId(id)</text><polygon fill="#000000" points="958,1986.1089,968,1990.1089,958,1994.1089,962,1990.1089" style="stroke:#000000;stroke-width:1.0;"/><line style="stroke:#000000;stroke-width:1.0;" x1="588" x2="964" y1="1990.1089" y2="1990.1089"/><text fill="#000000" font-family="Verdana" font-size="13" lengthAdjust="spacing" textLength="191" x="595" y="1985.3794">cancelWorkSession(id, user)</text><polygon fill="#000000" points="1387,2015.9082,1397,2019.9082,1387,2023.9082,1391,2019.9082" style="stroke:#000000;stroke-width:1.0;"/><line style="stroke:#000000;stroke-width:1.0;" x1="970" x2="1393" y1="2019.9082" y2="2019.9082"/><text fill="#000000" font-family="Verdana" font-size="13" lengthAdjust="spacing" textLength="187" x="977" y="2015.1787">checkWorkSessionExists(id)</text><line style="stroke:#000000;stroke-width:1.0;" x1="1399" x2="1441" y1="2049.7075" y2="2049.7075"/><line style="stroke:#000000;stroke-width:1.0;" x1="1441" x2="1441" y1="2049.7075" y2="2062.7075"/><line style="stroke:#000000;stroke-width:1.0;" x1="1400" x2="1441" y1="2062.7075" y2="2062.7075"/><polygon fill="#000000" points="1410,2058.7075,1400,2062.7075,1410,2066.7075,1406,2062.7075" style="stroke:#000000;stroke-width:1.0;"/><text fill="#000000" font-family="Verdana" font-size="13" lengthAdjust="spacing" textLength="223" x="1406" y="2044.978">prisma.workSession.findUnique()</text><line style="stroke:#000000;stroke-width:1.0;" x1="1399" x2="1441" y1="2092.5068" y2="2092.5068"/><line style="stroke:#000000;stroke-width:1.0;" x1="1441" x2="1441" y1="2092.5068" y2="2105.5068"/><line style="stroke:#000000;stroke-width:1.0;" x1="1400" x2="1441" y1="2105.5068" y2="2105.5068"/><polygon fill="#000000" points="1410,2101.5068,1400,2105.5068,1410,2109.5068,1406,2105.5068" style="stroke:#000000;stroke-width:1.0;"/><text fill="#000000" font-family="Verdana" font-size="13" lengthAdjust="spacing" textLength="178" x="1406" y="2087.7773">checkHasAppointments(id)</text><line style="stroke:#000000;stroke-width:1.0;" x1="1399" x2="1441" y1="2135.3062" y2="2135.3062"/><line style="stroke:#000000;stroke-width:1.0;" x1="1441" x2="1441" y1="2135.3062" y2="2148.3062"/><line style="stroke:#000000;stroke-width:1.0;" x1="1400" x2="1441" y1="2148.3062" y2="2148.3062"/><polygon fill="#000000" points="1410,2144.3062,1400,2148.3062,1410,2152.3062,1406,2148.3062" style="stroke:#000000;stroke-width:1.0;"/><text fill="#000000" font-family="Verdana" font-size="13" lengthAdjust="spacing" textLength="205" x="1406" y="2130.5767">prisma.appointment.findFirst()</text><path d="M15,2163.3062 L79,2163.3062 L79,2171.1055 L69,2181.1055 L15,2181.1055 L15,2163.3062 " fill="#FFFFFF" style="stroke:#000000;stroke-width:1.0;"/><rect fill="none" height="393.3584" style="stroke:#000000;stroke-width:1.0;" width="1735" x="15" y="2163.3062"/><text fill="#000000" font-family="Verdana" font-size="13" font-weight="bold" lengthAdjust="spacing" textLength="19" x="30" y="2177.376">alt</text><text fill="#000000" font-family="Verdana" font-size="11" font-weight="bold" lengthAdjust="spacing" textLength="120" x="94" y="2176.3652">[No appointments]</text><line style="stroke:#000000;stroke-width:1.0;" x1="1399" x2="1441" y1="2202.9048" y2="2202.9048"/><line style="stroke:#000000;stroke-width:1.0;" x1="1441" x2="1441" y1="2202.9048" y2="2215.9048"/><line style="stroke:#000000;stroke-width:1.0;" x1="1400" x2="1441" y1="2215.9048" y2="2215.9048"/><polygon fill="#000000" points="1410,2211.9048,1400,2215.9048,1410,2219.9048,1406,2215.9048" style="stroke:#000000;stroke-width:1.0;"/><text fill="#000000" font-family="Verdana" font-size="13" lengthAdjust="spacing" textLength="332" x="1406" y="2198.1753">prisma.workSession.update({status: 'cancelled'})</text><polygon fill="#000000" points="981,2257.5034,971,2261.5034,981,2265.5034,977,2261.5034" style="stroke:#000000;stroke-width:1.0;"/><line style="stroke:#000000;stroke-width:1.0;stroke-dasharray:2.0,2.0;" x1="975" x2="1398" y1="2261.5034" y2="2261.5034"/><text fill="#000000" font-family="Verdana" font-size="13" lengthAdjust="spacing" textLength="84" x="987" y="2240.9746">workSession</text><text fill="#000000" font-family="Verdana" font-size="13" lengthAdjust="spacing" textLength="214" x="987" y="2256.7739">(cancelled work session record)</text><polygon fill="#000000" points="599,2303.1021,589,2307.1021,599,2311.1021,595,2307.1021" style="stroke:#000000;stroke-width:1.0;"/><line style="stroke:#000000;stroke-width:1.0;stroke-dasharray:2.0,2.0;" x1="593" x2="969" y1="2307.1021" y2="2307.1021"/><text fill="#000000" font-family="Verdana" font-size="13" lengthAdjust="spacing" textLength="60" x="605" y="2286.5732">response</text><text fill="#000000" font-family="Verdana" font-size="13" lengthAdjust="spacing" textLength="255" x="605" y="2302.3726">(cancelled work session confirmation)</text><polygon fill="#000000" points="305,2348.7007,295,2352.7007,305,2356.7007,301,2352.7007" style="stroke:#000000;stroke-width:1.0;"/><line style="stroke:#000000;stroke-width:1.0;stroke-dasharray:2.0,2.0;" x1="299" x2="587" y1="2352.7007" y2="2352.7007"/><text fill="#000000" font-family="Verdana" font-size="13" lengthAdjust="spacing" textLength="60" x="311" y="2332.1719">response</text><text fill="#000000" font-family="Verdana" font-size="13" lengthAdjust="spacing" textLength="242" x="311" y="2347.9712">(work session marked as cancelled)</text><polygon fill="#000000" points="62,2378.5,52,2382.5,62,2386.5,58,2382.5" style="stroke:#000000;stroke-width:1.0;"/><line style="stroke:#000000;stroke-width:1.0;stroke-dasharray:2.0,2.0;" x1="56" x2="293" y1="2382.5" y2="2382.5"/><text fill="#000000" font-family="Verdana" font-size="13" lengthAdjust="spacing" textLength="216" x="68" y="2377.7705">Display cancel success message</text><line style="stroke:#000000;stroke-width:1.0;stroke-dasharray:2.0,2.0;" x1="15" x2="1750" y1="2391.5" y2="2391.5"/><text fill="#000000" font-family="Verdana" font-size="11" font-weight="bold" lengthAdjust="spacing" textLength="126" x="20" y="2402.5591">[Has appointments]</text><polygon fill="#000000" points="981,2423.668,971,2427.668,981,2431.668,977,2427.668" style="stroke:#000000;stroke-width:1.0;"/><line style="stroke:#000000;stroke-width:1.0;stroke-dasharray:2.0,2.0;" x1="975" x2="1398" y1="2427.668" y2="2427.668"/><text fill="#000000" font-family="Verdana" font-size="13" lengthAdjust="spacing" textLength="197" x="987" y="2422.9385">throw BadRequestException()</text><polygon fill="#000000" points="599,2469.2666,589,2473.2666,599,2477.2666,595,2473.2666" style="stroke:#000000;stroke-width:1.0;"/><line style="stroke:#000000;stroke-width:1.0;stroke-dasharray:2.0,2.0;" x1="593" x2="969" y1="2473.2666" y2="2473.2666"/><text fill="#000000" font-family="Verdana" font-size="13" lengthAdjust="spacing" textLength="34" x="605" y="2452.7378">error</text><text fill="#000000" font-family="Verdana" font-size="13" lengthAdjust="spacing" textLength="218" x="605" y="2468.5371">(not allowed to cancel message)</text><polygon fill="#000000" points="305,2514.8652,295,2518.8652,305,2522.8652,301,2518.8652" style="stroke:#000000;stroke-width:1.0;"/><line style="stroke:#000000;stroke-width:1.0;stroke-dasharray:2.0,2.0;" x1="299" x2="587" y1="2518.8652" y2="2518.8652"/><text fill="#000000" font-family="Verdana" font-size="13" lengthAdjust="spacing" textLength="34" x="311" y="2498.3364">error</text><text fill="#000000" font-family="Verdana" font-size="13" lengthAdjust="spacing" textLength="150" x="311" y="2514.1357">(HTTP error response)</text><polygon fill="#000000" points="62,2544.6646,52,2548.6646,62,2552.6646,58,2548.6646" style="stroke:#000000;stroke-width:1.0;"/><line style="stroke:#000000;stroke-width:1.0;stroke-dasharray:2.0,2.0;" x1="56" x2="293" y1="2548.6646" y2="2548.6646"/><text fill="#000000" font-family="Verdana" font-size="13" lengthAdjust="spacing" textLength="209" x="68" y="2543.9351">Display cannot cancel message</text><!--SRC=[tLRBRjim4BphAxQ-H0QI-Ev3WKQocm9j4aHEVEc54McRY4Ig91N7AFhlNPAoh9VZ02rGe1TR8cU7tENCKX_CXkKCYenm4GGaDLB1A9RsVmH4GnmyoL9GedOmcYif31FKJSo35D-Kp62qbEevOLfpAI8_bZ4V7Gs24gPUUCeS8WcOCDpiMW0tipnCDVTp6zN3BPx788ZXuYFCft3FVfHC6p0IKiM8OR15Rj2UF9XRM3I5kzja0HCxTL5DJJmy419Z55zlp1GYDzJON6na45KKBoJZ5AU7G24rSkoHoRJQI0CHfWCnvr1gfiP1OgEMoM619emO4k8O6GVB6fTkMFeSbqN6KqGd-4hBZFLWXU8w9vVR0zlbYWiwvqgRS8pddncumQf9iK8c4m2y6UjJm42Fyvas0Dz5oEavF4bfDb_mWRfpj4_Q46KMF6VdW8Bo3pXcIet__bYrfVMiKOlL5g39V4DiTCKjLbX4WtptHAnhKaiLEIgKXsAwa48pv6Zg0YWpX6SQjjniN0cuoed16HizTz7n56AkqImxq6MAUzIGumzPCuG4BDCCegfsbewbXj5MSSn6oMsDcRschB0hXArScL9IuUxsnx1V0uYW-rssCje7N2yMT_wbJd9mxrrYT1JjswTP75sxvlEiQnfV-PudAfhmu84rCzx93JNhiADugyUhNLmfnSrUSleE4NyZOXTwN4-86ej3igoL4fOebOfgM66vV0vk6pszsM34e1RmD27ZjZHM8avy1xa2H-svP7qPEmojQW9HYkp6GUzasYYxrc1RAmjwlAqzT0_8eoTJJdk7X1MsnUqEFnJqH3yhkmZdnt8WhjVJNAzgO6QlcAOEttN83u9Z4S9Uwxic-bDHI2vCZhV34J9oG0oslSQyFjNwVAPljZuFeKEYEz7Q1YE7Z7-ibJbz2hPrdN3IRAWznLLIEjREiB13TMbsioj2AscUw6TuhGAwK6unDHHnBYbVxVOh_bb38yAIjnc7kvhzA20YPTcmU-BPrzbYrlqiS04d3MJ5w90zM_o_1lZfBzWfdFdKCqRFVhtbYXfsqXSDSHy9wbxI9tsH4_MC9AZfcl6Odgn2_e4fgfN_eYdQZCuKlm40]--></g></svg>