<?xml version="1.0" encoding="us-ascii" standalone="no"?><svg xmlns="http://www.w3.org/2000/svg" xmlns:xlink="http://www.w3.org/1999/xlink" contentStyleType="text/css" height="2392px" preserveAspectRatio="none" style="width:2249px;height:2392px;background:#FFFFFF;" version="1.1" viewBox="0 0 2249 2392" width="2249px" zoomAndPan="magnify"><defs/><g><rect fill="#FFFFFF" height="377.5591" style="stroke:#000000;stroke-width:1.0;" width="1653.5" x="15" y="1916.3716"/><rect fill="#FFFFFF" height="120.5659" style="stroke:none;stroke-width:1.0;" width="1653.5" x="15" y="2173.3647"/><line style="stroke:#000000;stroke-width:1.0;" x1="52" x2="52" y1="83.0146" y2="2310.9307"/><line style="stroke:#000000;stroke-width:1.0;" x1="307" x2="307" y1="83.0146" y2="2310.9307"/><line style="stroke:#000000;stroke-width:1.0;" x1="702" x2="702" y1="83.0146" y2="2310.9307"/><line style="stroke:#000000;stroke-width:1.0;" x1="1061" x2="1061" y1="83.0146" y2="2310.9307"/><line style="stroke:#000000;stroke-width:1.0;" x1="1456.5" x2="1456.5" y1="83.0146" y2="2310.9307"/><line style="stroke:#000000;stroke-width:1.0;" x1="1792.5" x2="1792.5" y1="83.0146" y2="2310.9307"/><line style="stroke:#000000;stroke-width:1.0;" x1="2018.5" x2="2018.5" y1="83.0146" y2="2310.9307"/><line style="stroke:#000000;stroke-width:1.0;" x1="2219" x2="2219" y1="83.0146" y2="2310.9307"/><text fill="#000000" font-family="Verdana" font-size="14" lengthAdjust="spacing" textLength="49" x="25" y="80.0752">Patient</text><ellipse cx="52.5" cy="14" fill="#FFFFFF" rx="8" ry="8" style="stroke:#000000;stroke-width:1.0;"/><path d="M52.5,22 L52.5,49 M39.5,30 L65.5,30 M52.5,49 L39.5,64 M52.5,49 L65.5,64 " fill="none" style="stroke:#000000;stroke-width:1.0;"/><text fill="#000000" font-family="Verdana" font-size="14" lengthAdjust="spacing" textLength="49" x="25" y="2324.0059">Patient</text><ellipse cx="52.5" cy="2335.9453" fill="#FFFFFF" rx="8" ry="8" style="stroke:#000000;stroke-width:1.0;"/><path d="M52.5,2343.9453 L52.5,2370.9453 M39.5,2351.9453 L65.5,2351.9453 M52.5,2370.9453 L39.5,2385.9453 M52.5,2370.9453 L65.5,2385.9453 " fill="none" style="stroke:#000000;stroke-width:1.0;"/><text fill="#000000" font-family="Verdana" font-size="14" lengthAdjust="spacing" textLength="63" x="273" y="80.0752">Frontend</text><path d="M287,38 L287,62 M287,50 L304,50 " fill="none" style="stroke:#000000;stroke-width:1.0;"/><ellipse cx="316" cy="50" fill="#FFFFFF" rx="12" ry="12" style="stroke:#000000;stroke-width:1.0;"/><text fill="#000000" font-family="Verdana" font-size="14" lengthAdjust="spacing" textLength="63" x="273" y="2324.0059">Frontend</text><path d="M287,2330.9453 L287,2354.9453 M287,2342.9453 L304,2342.9453 " fill="none" style="stroke:#000000;stroke-width:1.0;"/><ellipse cx="316" cy="2342.9453" fill="#FFFFFF" rx="12" ry="12" style="stroke:#000000;stroke-width:1.0;"/><text fill="#000000" font-family="Verdana" font-size="14" lengthAdjust="spacing" textLength="217" x="591" y="80.0752">AppointmentBookingController</text><ellipse cx="702.5" cy="50" fill="#FFFFFF" rx="12" ry="12" style="stroke:#000000;stroke-width:1.0;"/><polygon fill="#000000" points="698.5,38,704.5,33,702.5,38,704.5,43,698.5,38" style="stroke:#000000;stroke-width:1.0;"/><text fill="#000000" font-family="Verdana" font-size="14" lengthAdjust="spacing" textLength="217" x="591" y="2324.0059">AppointmentBookingController</text><ellipse cx="702.5" cy="2342.9453" fill="#FFFFFF" rx="12" ry="12" style="stroke:#000000;stroke-width:1.0;"/><polygon fill="#000000" points="698.5,2330.9453,704.5,2325.9453,702.5,2330.9453,704.5,2335.9453,698.5,2330.9453" style="stroke:#000000;stroke-width:1.0;"/><text fill="#000000" font-family="Verdana" font-size="14" lengthAdjust="spacing" textLength="199" x="959" y="80.0752">AppointmentBookingService</text><ellipse cx="1061.5" cy="50" fill="#FFFFFF" rx="12" ry="12" style="stroke:#000000;stroke-width:1.0;"/><polygon fill="#000000" points="1057.5,38,1063.5,33,1061.5,38,1063.5,43,1057.5,38" style="stroke:#000000;stroke-width:1.0;"/><text fill="#000000" font-family="Verdana" font-size="14" lengthAdjust="spacing" textLength="199" x="959" y="2324.0059">AppointmentBookingService</text><ellipse cx="1061.5" cy="2342.9453" fill="#FFFFFF" rx="12" ry="12" style="stroke:#000000;stroke-width:1.0;"/><polygon fill="#000000" points="1057.5,2330.9453,1063.5,2325.9453,1061.5,2330.9453,1063.5,2335.9453,1057.5,2330.9453" style="stroke:#000000;stroke-width:1.0;"/><text fill="#000000" font-family="Verdana" font-size="14" lengthAdjust="spacing" textLength="92" x="1407.5" y="80.0752">Appointment</text><ellipse cx="1456.5" cy="50" fill="#FFFFFF" rx="12" ry="12" style="stroke:#000000;stroke-width:1.0;"/><line style="stroke:#000000;stroke-width:1.0;" x1="1444.5" x2="1468.5" y1="64" y2="64"/><text fill="#000000" font-family="Verdana" font-size="14" lengthAdjust="spacing" textLength="92" x="1407.5" y="2324.0059">Appointment</text><ellipse cx="1456.5" cy="2342.9453" fill="#FFFFFF" rx="12" ry="12" style="stroke:#000000;stroke-width:1.0;"/><line style="stroke:#000000;stroke-width:1.0;" x1="1444.5" x2="1468.5" y1="2356.9453" y2="2356.9453"/><text fill="#000000" font-family="Verdana" font-size="14" lengthAdjust="spacing" textLength="46" x="1766.5" y="80.0752">Doctor</text><ellipse cx="1792.5" cy="50" fill="#FFFFFF" rx="12" ry="12" style="stroke:#000000;stroke-width:1.0;"/><line style="stroke:#000000;stroke-width:1.0;" x1="1780.5" x2="1804.5" y1="64" y2="64"/><text fill="#000000" font-family="Verdana" font-size="14" lengthAdjust="spacing" textLength="46" x="1766.5" y="2324.0059">Doctor</text><ellipse cx="1792.5" cy="2342.9453" fill="#FFFFFF" rx="12" ry="12" style="stroke:#000000;stroke-width:1.0;"/><line style="stroke:#000000;stroke-width:1.0;" x1="1780.5" x2="1804.5" y1="2356.9453" y2="2356.9453"/><text fill="#000000" font-family="Verdana" font-size="14" lengthAdjust="spacing" textLength="64" x="1983.5" y="80.0752">Specialty</text><ellipse cx="2018.5" cy="50" fill="#FFFFFF" rx="12" ry="12" style="stroke:#000000;stroke-width:1.0;"/><line style="stroke:#000000;stroke-width:1.0;" x1="2006.5" x2="2030.5" y1="64" y2="64"/><text fill="#000000" font-family="Verdana" font-size="14" lengthAdjust="spacing" textLength="64" x="1983.5" y="2324.0059">Specialty</text><ellipse cx="2018.5" cy="2342.9453" fill="#FFFFFF" rx="12" ry="12" style="stroke:#000000;stroke-width:1.0;"/><line style="stroke:#000000;stroke-width:1.0;" x1="2006.5" x2="2030.5" y1="2356.9453" y2="2356.9453"/><text fill="#000000" font-family="Verdana" font-size="14" lengthAdjust="spacing" textLength="51" x="2191" y="80.0752">Service</text><ellipse cx="2219.5" cy="50" fill="#FFFFFF" rx="12" ry="12" style="stroke:#000000;stroke-width:1.0;"/><line style="stroke:#000000;stroke-width:1.0;" x1="2207.5" x2="2231.5" y1="64" y2="64"/><text fill="#000000" font-family="Verdana" font-size="14" lengthAdjust="spacing" textLength="51" x="2191" y="2324.0059">Service</text><ellipse cx="2219.5" cy="2342.9453" fill="#FFFFFF" rx="12" ry="12" style="stroke:#000000;stroke-width:1.0;"/><line style="stroke:#000000;stroke-width:1.0;" x1="2207.5" x2="2231.5" y1="2356.9453" y2="2356.9453"/><polygon fill="#000000" points="295.5,110.814,305.5,114.814,295.5,118.814,299.5,114.814" style="stroke:#000000;stroke-width:1.0;"/><line style="stroke:#000000;stroke-width:1.0;" x1="52.5" x2="301.5" y1="114.814" y2="114.814"/><text fill="#000000" font-family="Verdana" font-size="13" lengthAdjust="spacing" textLength="134" x="59.5" y="110.0845">Search for specialty</text><polygon fill="#000000" points="690.5,140.6133,700.5,144.6133,690.5,148.6133,694.5,144.6133" style="stroke:#000000;stroke-width:1.0;"/><line style="stroke:#000000;stroke-width:1.0;" x1="307.5" x2="696.5" y1="144.6133" y2="144.6133"/><text fill="#000000" font-family="Verdana" font-size="13" lengthAdjust="spacing" textLength="254" x="314.5" y="139.8838">GET /appointment-booking/specialties</text><line style="stroke:#000000;stroke-width:1.0;" x1="702.5" x2="744.5" y1="174.4126" y2="174.4126"/><line style="stroke:#000000;stroke-width:1.0;" x1="744.5" x2="744.5" y1="174.4126" y2="187.4126"/><line style="stroke:#000000;stroke-width:1.0;" x1="703.5" x2="744.5" y1="187.4126" y2="187.4126"/><polygon fill="#000000" points="713.5,183.4126,703.5,187.4126,713.5,191.4126,709.5,187.4126" style="stroke:#000000;stroke-width:1.0;"/><text fill="#000000" font-family="Verdana" font-size="13" lengthAdjust="spacing" textLength="118" x="709.5" y="169.6831">validateRequest()</text><polygon fill="#000000" points="1049.5,213.2119,1059.5,217.2119,1049.5,221.2119,1053.5,217.2119" style="stroke:#000000;stroke-width:1.0;"/><line style="stroke:#000000;stroke-width:1.0;" x1="702.5" x2="1055.5" y1="217.2119" y2="217.2119"/><text fill="#000000" font-family="Verdana" font-size="13" lengthAdjust="spacing" textLength="105" x="709.5" y="212.4824">getSpecialties()</text><polygon fill="#000000" points="2006.5,243.0112,2016.5,247.0112,2006.5,251.0112,2010.5,247.0112" style="stroke:#000000;stroke-width:1.0;"/><line style="stroke:#000000;stroke-width:1.0;" x1="1061.5" x2="2012.5" y1="247.0112" y2="247.0112"/><text fill="#000000" font-family="Verdana" font-size="13" lengthAdjust="spacing" textLength="126" x="1068.5" y="242.2817">findAllSpecialties()</text><line style="stroke:#000000;stroke-width:1.0;" x1="2018.5" x2="2060.5" y1="276.8105" y2="276.8105"/><line style="stroke:#000000;stroke-width:1.0;" x1="2060.5" x2="2060.5" y1="276.8105" y2="289.8105"/><line style="stroke:#000000;stroke-width:1.0;" x1="2019.5" x2="2060.5" y1="289.8105" y2="289.8105"/><polygon fill="#000000" points="2029.5,285.8105,2019.5,289.8105,2029.5,293.8105,2025.5,289.8105" style="stroke:#000000;stroke-width:1.0;"/><text fill="#000000" font-family="Verdana" font-size="13" lengthAdjust="spacing" textLength="187" x="2025.5" y="272.0811">prisma.specialty.findMany()</text><polygon fill="#000000" points="1072.5,331.4092,1062.5,335.4092,1072.5,339.4092,1068.5,335.4092" style="stroke:#000000;stroke-width:1.0;"/><line style="stroke:#000000;stroke-width:1.0;stroke-dasharray:2.0,2.0;" x1="1066.5" x2="2017.5" y1="335.4092" y2="335.4092"/><text fill="#000000" font-family="Verdana" font-size="13" lengthAdjust="spacing" textLength="70" x="1078.5" y="314.8804">specialties</text><text fill="#000000" font-family="Verdana" font-size="13" lengthAdjust="spacing" textLength="147" x="1078.5" y="330.6797">(all specialty records)</text><polygon fill="#000000" points="713.5,377.0078,703.5,381.0078,713.5,385.0078,709.5,381.0078" style="stroke:#000000;stroke-width:1.0;"/><line style="stroke:#000000;stroke-width:1.0;stroke-dasharray:2.0,2.0;" x1="707.5" x2="1060.5" y1="381.0078" y2="381.0078"/><text fill="#000000" font-family="Verdana" font-size="13" lengthAdjust="spacing" textLength="60" x="719.5" y="360.479">response</text><text fill="#000000" font-family="Verdana" font-size="13" lengthAdjust="spacing" textLength="303" x="719.5" y="376.2783">(specialties array with id, name, description)</text><polygon fill="#000000" points="318.5,422.6064,308.5,426.6064,318.5,430.6064,314.5,426.6064" style="stroke:#000000;stroke-width:1.0;"/><line style="stroke:#000000;stroke-width:1.0;stroke-dasharray:2.0,2.0;" x1="312.5" x2="701.5" y1="426.6064" y2="426.6064"/><text fill="#000000" font-family="Verdana" font-size="13" lengthAdjust="spacing" textLength="60" x="324.5" y="406.0776">response</text><text fill="#000000" font-family="Verdana" font-size="13" lengthAdjust="spacing" textLength="107" x="324.5" y="421.877">(specialties list)</text><polygon fill="#000000" points="63.5,452.4058,53.5,456.4058,63.5,460.4058,59.5,456.4058" style="stroke:#000000;stroke-width:1.0;"/><line style="stroke:#000000;stroke-width:1.0;stroke-dasharray:2.0,2.0;" x1="57.5" x2="306.5" y1="456.4058" y2="456.4058"/><text fill="#000000" font-family="Verdana" font-size="13" lengthAdjust="spacing" textLength="149" x="69.5" y="451.6763">Display specialties list</text><polygon fill="#000000" points="295.5,482.2051,305.5,486.2051,295.5,490.2051,299.5,486.2051" style="stroke:#000000;stroke-width:1.0;"/><line style="stroke:#000000;stroke-width:1.0;" x1="52.5" x2="301.5" y1="486.2051" y2="486.2051"/><text fill="#000000" font-family="Verdana" font-size="13" lengthAdjust="spacing" textLength="105" x="59.5" y="481.4756">Select specialty</text><polygon fill="#000000" points="690.5,512.0044,700.5,516.0044,690.5,520.0044,694.5,516.0044" style="stroke:#000000;stroke-width:1.0;"/><line style="stroke:#000000;stroke-width:1.0;" x1="307.5" x2="696.5" y1="516.0044" y2="516.0044"/><text fill="#000000" font-family="Verdana" font-size="13" lengthAdjust="spacing" textLength="347" x="314.5" y="511.2749">GET /appointment-booking/doctors?specialtyId=xxx</text><line style="stroke:#000000;stroke-width:1.0;" x1="702.5" x2="744.5" y1="545.8037" y2="545.8037"/><line style="stroke:#000000;stroke-width:1.0;" x1="744.5" x2="744.5" y1="545.8037" y2="558.8037"/><line style="stroke:#000000;stroke-width:1.0;" x1="703.5" x2="744.5" y1="558.8037" y2="558.8037"/><polygon fill="#000000" points="713.5,554.8037,703.5,558.8037,713.5,562.8037,709.5,558.8037" style="stroke:#000000;stroke-width:1.0;"/><text fill="#000000" font-family="Verdana" font-size="13" lengthAdjust="spacing" textLength="211" x="709.5" y="541.0742">validateSpecialtyId(specialtyId)</text><polygon fill="#000000" points="1049.5,584.603,1059.5,588.603,1049.5,592.603,1053.5,588.603" style="stroke:#000000;stroke-width:1.0;"/><line style="stroke:#000000;stroke-width:1.0;" x1="702.5" x2="1055.5" y1="588.603" y2="588.603"/><text fill="#000000" font-family="Verdana" font-size="13" lengthAdjust="spacing" textLength="234" x="709.5" y="583.8735">getDoctorsBySpecialty(specialtyId)</text><polygon fill="#000000" points="1780.5,614.4023,1790.5,618.4023,1780.5,622.4023,1784.5,618.4023" style="stroke:#000000;stroke-width:1.0;"/><line style="stroke:#000000;stroke-width:1.0;" x1="1061.5" x2="1786.5" y1="618.4023" y2="618.4023"/><text fill="#000000" font-family="Verdana" font-size="13" lengthAdjust="spacing" textLength="238" x="1068.5" y="613.6729">findDoctorsBySpecialty(specialtyId)</text><line style="stroke:#000000;stroke-width:1.0;" x1="1792.5" x2="1834.5" y1="648.2017" y2="648.2017"/><line style="stroke:#000000;stroke-width:1.0;" x1="1834.5" x2="1834.5" y1="648.2017" y2="661.2017"/><line style="stroke:#000000;stroke-width:1.0;" x1="1793.5" x2="1834.5" y1="661.2017" y2="661.2017"/><polygon fill="#000000" points="1803.5,657.2017,1793.5,661.2017,1803.5,665.2017,1799.5,661.2017" style="stroke:#000000;stroke-width:1.0;"/><text fill="#000000" font-family="Verdana" font-size="13" lengthAdjust="spacing" textLength="170" x="1799.5" y="643.4722">prisma.doctor.findMany()</text><polygon fill="#000000" points="1072.5,702.8003,1062.5,706.8003,1072.5,710.8003,1068.5,706.8003" style="stroke:#000000;stroke-width:1.0;"/><line style="stroke:#000000;stroke-width:1.0;stroke-dasharray:2.0,2.0;" x1="1066.5" x2="1791.5" y1="706.8003" y2="706.8003"/><text fill="#000000" font-family="Verdana" font-size="13" lengthAdjust="spacing" textLength="49" x="1078.5" y="686.2715">doctors</text><text fill="#000000" font-family="Verdana" font-size="13" lengthAdjust="spacing" textLength="323" x="1078.5" y="702.0708">(doctors matching specialty with work sessions)</text><polygon fill="#000000" points="713.5,748.3989,703.5,752.3989,713.5,756.3989,709.5,752.3989" style="stroke:#000000;stroke-width:1.0;"/><line style="stroke:#000000;stroke-width:1.0;stroke-dasharray:2.0,2.0;" x1="707.5" x2="1060.5" y1="752.3989" y2="752.3989"/><text fill="#000000" font-family="Verdana" font-size="13" lengthAdjust="spacing" textLength="60" x="719.5" y="731.8701">response</text><text fill="#000000" font-family="Verdana" font-size="13" lengthAdjust="spacing" textLength="229" x="719.5" y="747.6694">(doctors array with specialty info)</text><polygon fill="#000000" points="318.5,793.9976,308.5,797.9976,318.5,801.9976,314.5,797.9976" style="stroke:#000000;stroke-width:1.0;"/><line style="stroke:#000000;stroke-width:1.0;stroke-dasharray:2.0,2.0;" x1="312.5" x2="701.5" y1="797.9976" y2="797.9976"/><text fill="#000000" font-family="Verdana" font-size="13" lengthAdjust="spacing" textLength="60" x="324.5" y="777.4688">response</text><text fill="#000000" font-family="Verdana" font-size="13" lengthAdjust="spacing" textLength="246" x="324.5" y="793.2681">(doctors list with rating, experience)</text><polygon fill="#000000" points="63.5,823.7969,53.5,827.7969,63.5,831.7969,59.5,827.7969" style="stroke:#000000;stroke-width:1.0;"/><line style="stroke:#000000;stroke-width:1.0;stroke-dasharray:2.0,2.0;" x1="57.5" x2="306.5" y1="827.7969" y2="827.7969"/><text fill="#000000" font-family="Verdana" font-size="13" lengthAdjust="spacing" textLength="128" x="69.5" y="823.0674">Display doctors list</text><polygon fill="#000000" points="295.5,853.5962,305.5,857.5962,295.5,861.5962,299.5,857.5962" style="stroke:#000000;stroke-width:1.0;"/><line style="stroke:#000000;stroke-width:1.0;" x1="52.5" x2="301.5" y1="857.5962" y2="857.5962"/><text fill="#000000" font-family="Verdana" font-size="13" lengthAdjust="spacing" textLength="151" x="59.5" y="852.8667">Select doctor and date</text><polygon fill="#000000" points="690.5,883.3955,700.5,887.3955,690.5,891.3955,694.5,887.3955" style="stroke:#000000;stroke-width:1.0;"/><line style="stroke:#000000;stroke-width:1.0;" x1="307.5" x2="696.5" y1="887.3955" y2="887.3955"/><text fill="#000000" font-family="Verdana" font-size="13" lengthAdjust="spacing" textLength="371" x="314.5" y="882.666">GET /appointment-booking/working-days?doctorId=xxx</text><line style="stroke:#000000;stroke-width:1.0;" x1="702.5" x2="744.5" y1="917.1948" y2="917.1948"/><line style="stroke:#000000;stroke-width:1.0;" x1="744.5" x2="744.5" y1="917.1948" y2="930.1948"/><line style="stroke:#000000;stroke-width:1.0;" x1="703.5" x2="744.5" y1="930.1948" y2="930.1948"/><polygon fill="#000000" points="713.5,926.1948,703.5,930.1948,713.5,934.1948,709.5,930.1948" style="stroke:#000000;stroke-width:1.0;"/><text fill="#000000" font-family="Verdana" font-size="13" lengthAdjust="spacing" textLength="177" x="709.5" y="912.4653">validateDoctorId(doctorId)</text><polygon fill="#000000" points="1049.5,955.9941,1059.5,959.9941,1049.5,963.9941,1053.5,959.9941" style="stroke:#000000;stroke-width:1.0;"/><line style="stroke:#000000;stroke-width:1.0;" x1="702.5" x2="1055.5" y1="959.9941" y2="959.9941"/><text fill="#000000" font-family="Verdana" font-size="13" lengthAdjust="spacing" textLength="220" x="709.5" y="955.2646">getDoctorWorkingDays(doctorId)</text><polygon fill="#000000" points="1780.5,985.7935,1790.5,989.7935,1780.5,993.7935,1784.5,989.7935" style="stroke:#000000;stroke-width:1.0;"/><line style="stroke:#000000;stroke-width:1.0;" x1="1061.5" x2="1786.5" y1="989.7935" y2="989.7935"/><text fill="#000000" font-family="Verdana" font-size="13" lengthAdjust="spacing" textLength="242" x="1068.5" y="985.064">getWorkSessionsByDoctor(doctorId)</text><line style="stroke:#000000;stroke-width:1.0;" x1="1792.5" x2="1834.5" y1="1019.5928" y2="1019.5928"/><line style="stroke:#000000;stroke-width:1.0;" x1="1834.5" x2="1834.5" y1="1019.5928" y2="1032.5928"/><line style="stroke:#000000;stroke-width:1.0;" x1="1793.5" x2="1834.5" y1="1032.5928" y2="1032.5928"/><polygon fill="#000000" points="1803.5,1028.5928,1793.5,1032.5928,1803.5,1036.5928,1799.5,1032.5928" style="stroke:#000000;stroke-width:1.0;"/><text fill="#000000" font-family="Verdana" font-size="13" lengthAdjust="spacing" textLength="212" x="1799.5" y="1014.8633">prisma.workSession.findMany()</text><polygon fill="#000000" points="1072.5,1074.1914,1062.5,1078.1914,1072.5,1082.1914,1068.5,1078.1914" style="stroke:#000000;stroke-width:1.0;"/><line style="stroke:#000000;stroke-width:1.0;stroke-dasharray:2.0,2.0;" x1="1066.5" x2="1791.5" y1="1078.1914" y2="1078.1914"/><text fill="#000000" font-family="Verdana" font-size="13" lengthAdjust="spacing" textLength="91" x="1078.5" y="1057.6626">workSessions</text><text fill="#000000" font-family="Verdana" font-size="13" lengthAdjust="spacing" textLength="283" x="1078.5" y="1073.4619">(approved and in-progress work sessions)</text><polygon fill="#000000" points="713.5,1119.79,703.5,1123.79,713.5,1127.79,709.5,1123.79" style="stroke:#000000;stroke-width:1.0;"/><line style="stroke:#000000;stroke-width:1.0;stroke-dasharray:2.0,2.0;" x1="707.5" x2="1060.5" y1="1123.79" y2="1123.79"/><text fill="#000000" font-family="Verdana" font-size="13" lengthAdjust="spacing" textLength="60" x="719.5" y="1103.2612">response</text><text fill="#000000" font-family="Verdana" font-size="13" lengthAdjust="spacing" textLength="239" x="719.5" y="1119.0605">(working days array for the month)</text><polygon fill="#000000" points="318.5,1165.3887,308.5,1169.3887,318.5,1173.3887,314.5,1169.3887" style="stroke:#000000;stroke-width:1.0;"/><line style="stroke:#000000;stroke-width:1.0;stroke-dasharray:2.0,2.0;" x1="312.5" x2="701.5" y1="1169.3887" y2="1169.3887"/><text fill="#000000" font-family="Verdana" font-size="13" lengthAdjust="spacing" textLength="60" x="324.5" y="1148.8599">response</text><text fill="#000000" font-family="Verdana" font-size="13" lengthAdjust="spacing" textLength="138" x="324.5" y="1164.6592">(available dates list)</text><polygon fill="#000000" points="63.5,1195.188,53.5,1199.188,63.5,1203.188,59.5,1199.188" style="stroke:#000000;stroke-width:1.0;"/><line style="stroke:#000000;stroke-width:1.0;stroke-dasharray:2.0,2.0;" x1="57.5" x2="306.5" y1="1199.188" y2="1199.188"/><text fill="#000000" font-family="Verdana" font-size="13" lengthAdjust="spacing" textLength="208" x="69.5" y="1194.4585">Display available working days</text><polygon fill="#000000" points="295.5,1224.9873,305.5,1228.9873,295.5,1232.9873,299.5,1228.9873" style="stroke:#000000;stroke-width:1.0;"/><line style="stroke:#000000;stroke-width:1.0;" x1="52.5" x2="301.5" y1="1228.9873" y2="1228.9873"/><text fill="#000000" font-family="Verdana" font-size="13" lengthAdjust="spacing" textLength="187" x="59.5" y="1224.2578">Select service and time slot</text><polygon fill="#000000" points="690.5,1254.7866,700.5,1258.7866,690.5,1262.7866,694.5,1258.7866" style="stroke:#000000;stroke-width:1.0;"/><line style="stroke:#000000;stroke-width:1.0;" x1="307.5" x2="696.5" y1="1258.7866" y2="1258.7866"/><text fill="#000000" font-family="Verdana" font-size="13" lengthAdjust="spacing" textLength="281" x="314.5" y="1254.0571">GET /appointment-booking/available-slots</text><line style="stroke:#000000;stroke-width:1.0;" x1="702.5" x2="744.5" y1="1288.5859" y2="1288.5859"/><line style="stroke:#000000;stroke-width:1.0;" x1="744.5" x2="744.5" y1="1288.5859" y2="1301.5859"/><line style="stroke:#000000;stroke-width:1.0;" x1="703.5" x2="744.5" y1="1301.5859" y2="1301.5859"/><polygon fill="#000000" points="713.5,1297.5859,703.5,1301.5859,713.5,1305.5859,709.5,1301.5859" style="stroke:#000000;stroke-width:1.0;"/><text fill="#000000" font-family="Verdana" font-size="13" lengthAdjust="spacing" textLength="203" x="709.5" y="1283.8564">validateAvailableSlotsDto(dto)</text><polygon fill="#000000" points="1049.5,1327.3853,1059.5,1331.3853,1049.5,1335.3853,1053.5,1331.3853" style="stroke:#000000;stroke-width:1.0;"/><line style="stroke:#000000;stroke-width:1.0;" x1="702.5" x2="1055.5" y1="1331.3853" y2="1331.3853"/><text fill="#000000" font-family="Verdana" font-size="13" lengthAdjust="spacing" textLength="148" x="709.5" y="1326.6558">getAvailableSlots(dto)</text><polygon fill="#000000" points="1444.5,1357.1846,1454.5,1361.1846,1444.5,1365.1846,1448.5,1361.1846" style="stroke:#000000;stroke-width:1.0;"/><line style="stroke:#000000;stroke-width:1.0;" x1="1061.5" x2="1450.5" y1="1361.1846" y2="1361.1846"/><text fill="#000000" font-family="Verdana" font-size="13" lengthAdjust="spacing" textLength="371" x="1068.5" y="1356.4551">calculateAvailableSlots(workSessions, serviceDuration)</text><path d="M967,1374.1846 L967,1447.1846 L1156,1447.1846 L1156,1384.1846 L1146,1374.1846 L967,1374.1846 " fill="#FFFFFF" style="stroke:#000000;stroke-width:1.0;"/><path d="M1146,1374.1846 L1146,1384.1846 L1156,1384.1846 L1146,1374.1846 " fill="#FFFFFF" style="stroke:#000000;stroke-width:1.0;"/><text fill="#000000" font-family="Verdana" font-size="13" lengthAdjust="spacing" textLength="168" x="973" y="1392.2544">Calculate available slots:</text><text fill="#000000" font-family="Verdana" font-size="13" lengthAdjust="spacing" textLength="155" x="973" y="1408.0537">- Iterate work sessions</text><text fill="#000000" font-family="Verdana" font-size="13" lengthAdjust="spacing" textLength="143" x="973" y="1423.853">- Generate time slots</text><text fill="#000000" font-family="Verdana" font-size="13" lengthAdjust="spacing" textLength="111" x="973" y="1439.6523">- Check conflicts</text><line style="stroke:#000000;stroke-width:1.0;" x1="1456.5" x2="1498.5" y1="1474.1812" y2="1474.1812"/><line style="stroke:#000000;stroke-width:1.0;" x1="1498.5" x2="1498.5" y1="1474.1812" y2="1487.1812"/><line style="stroke:#000000;stroke-width:1.0;" x1="1457.5" x2="1498.5" y1="1487.1812" y2="1487.1812"/><polygon fill="#000000" points="1467.5,1483.1812,1457.5,1487.1812,1467.5,1491.1812,1463.5,1487.1812" style="stroke:#000000;stroke-width:1.0;"/><text fill="#000000" font-family="Verdana" font-size="13" lengthAdjust="spacing" textLength="228" x="1463.5" y="1469.4517">generateTimeSlots(workSessions)</text><line style="stroke:#000000;stroke-width:1.0;" x1="1456.5" x2="1498.5" y1="1516.9805" y2="1516.9805"/><line style="stroke:#000000;stroke-width:1.0;" x1="1498.5" x2="1498.5" y1="1516.9805" y2="1529.9805"/><line style="stroke:#000000;stroke-width:1.0;" x1="1457.5" x2="1498.5" y1="1529.9805" y2="1529.9805"/><polygon fill="#000000" points="1467.5,1525.9805,1457.5,1529.9805,1467.5,1533.9805,1463.5,1529.9805" style="stroke:#000000;stroke-width:1.0;"/><text fill="#000000" font-family="Verdana" font-size="13" lengthAdjust="spacing" textLength="322" x="1463.5" y="1512.251">filterAvailableSlots(slots, existingAppointments)</text><polygon fill="#000000" points="1072.5,1571.5791,1062.5,1575.5791,1072.5,1579.5791,1068.5,1575.5791" style="stroke:#000000;stroke-width:1.0;"/><line style="stroke:#000000;stroke-width:1.0;stroke-dasharray:2.0,2.0;" x1="1066.5" x2="1455.5" y1="1575.5791" y2="1575.5791"/><text fill="#000000" font-family="Verdana" font-size="13" lengthAdjust="spacing" textLength="31" x="1078.5" y="1555.0503">slots</text><text fill="#000000" font-family="Verdana" font-size="13" lengthAdjust="spacing" textLength="225" x="1078.5" y="1570.8496">(available and booked time slots)</text><polygon fill="#000000" points="713.5,1617.1777,703.5,1621.1777,713.5,1625.1777,709.5,1621.1777" style="stroke:#000000;stroke-width:1.0;"/><line style="stroke:#000000;stroke-width:1.0;stroke-dasharray:2.0,2.0;" x1="707.5" x2="1060.5" y1="1621.1777" y2="1621.1777"/><text fill="#000000" font-family="Verdana" font-size="13" lengthAdjust="spacing" textLength="60" x="719.5" y="1600.6489">response</text><text fill="#000000" font-family="Verdana" font-size="13" lengthAdjust="spacing" textLength="335" x="719.5" y="1616.4482">(slots array with startTime, endTime, isAvailable)</text><polygon fill="#000000" points="318.5,1662.7764,308.5,1666.7764,318.5,1670.7764,314.5,1666.7764" style="stroke:#000000;stroke-width:1.0;"/><line style="stroke:#000000;stroke-width:1.0;stroke-dasharray:2.0,2.0;" x1="312.5" x2="701.5" y1="1666.7764" y2="1666.7764"/><text fill="#000000" font-family="Verdana" font-size="13" lengthAdjust="spacing" textLength="60" x="324.5" y="1646.2476">response</text><text fill="#000000" font-family="Verdana" font-size="13" lengthAdjust="spacing" textLength="133" x="324.5" y="1662.0469">(available slots list)</text><polygon fill="#000000" points="63.5,1692.5757,53.5,1696.5757,63.5,1700.5757,59.5,1696.5757" style="stroke:#000000;stroke-width:1.0;"/><line style="stroke:#000000;stroke-width:1.0;stroke-dasharray:2.0,2.0;" x1="57.5" x2="306.5" y1="1696.5757" y2="1696.5757"/><text fill="#000000" font-family="Verdana" font-size="13" lengthAdjust="spacing" textLength="185" x="69.5" y="1691.8462">Display available time slots</text><polygon fill="#000000" points="295.5,1722.375,305.5,1726.375,295.5,1730.375,299.5,1726.375" style="stroke:#000000;stroke-width:1.0;"/><line style="stroke:#000000;stroke-width:1.0;" x1="52.5" x2="301.5" y1="1726.375" y2="1726.375"/><text fill="#000000" font-family="Verdana" font-size="13" lengthAdjust="spacing" textLength="186" x="59.5" y="1721.6455">Submit booking information</text><polygon fill="#000000" points="690.5,1752.1743,700.5,1756.1743,690.5,1760.1743,694.5,1756.1743" style="stroke:#000000;stroke-width:1.0;"/><line style="stroke:#000000;stroke-width:1.0;" x1="307.5" x2="696.5" y1="1756.1743" y2="1756.1743"/><text fill="#000000" font-family="Verdana" font-size="13" lengthAdjust="spacing" textLength="225" x="314.5" y="1751.4448">POST /appointment-booking/book</text><line style="stroke:#000000;stroke-width:1.0;" x1="702.5" x2="744.5" y1="1785.9736" y2="1785.9736"/><line style="stroke:#000000;stroke-width:1.0;" x1="744.5" x2="744.5" y1="1785.9736" y2="1798.9736"/><line style="stroke:#000000;stroke-width:1.0;" x1="703.5" x2="744.5" y1="1798.9736" y2="1798.9736"/><polygon fill="#000000" points="713.5,1794.9736,703.5,1798.9736,713.5,1802.9736,709.5,1798.9736" style="stroke:#000000;stroke-width:1.0;"/><text fill="#000000" font-family="Verdana" font-size="13" lengthAdjust="spacing" textLength="226" x="709.5" y="1781.2441">validateBookAppointmentDto(dto)</text><polygon fill="#000000" points="1049.5,1824.7729,1059.5,1828.7729,1049.5,1832.7729,1053.5,1828.7729" style="stroke:#000000;stroke-width:1.0;"/><line style="stroke:#000000;stroke-width:1.0;" x1="702.5" x2="1055.5" y1="1828.7729" y2="1828.7729"/><text fill="#000000" font-family="Verdana" font-size="13" lengthAdjust="spacing" textLength="306" x="709.5" y="1824.0435">bookAppointment(bookAppointmentDto, user)</text><polygon fill="#000000" points="1444.5,1854.5723,1454.5,1858.5723,1444.5,1862.5723,1448.5,1858.5723" style="stroke:#000000;stroke-width:1.0;"/><line style="stroke:#000000;stroke-width:1.0;" x1="1061.5" x2="1450.5" y1="1858.5723" y2="1858.5723"/><text fill="#000000" font-family="Verdana" font-size="13" lengthAdjust="spacing" textLength="240" x="1068.5" y="1853.8428">checkSlotConflict(appointmentData)</text><line style="stroke:#000000;stroke-width:1.0;" x1="1456.5" x2="1498.5" y1="1888.3716" y2="1888.3716"/><line style="stroke:#000000;stroke-width:1.0;" x1="1498.5" x2="1498.5" y1="1888.3716" y2="1901.3716"/><line style="stroke:#000000;stroke-width:1.0;" x1="1457.5" x2="1498.5" y1="1901.3716" y2="1901.3716"/><polygon fill="#000000" points="1467.5,1897.3716,1457.5,1901.3716,1467.5,1905.3716,1463.5,1901.3716" style="stroke:#000000;stroke-width:1.0;"/><text fill="#000000" font-family="Verdana" font-size="13" lengthAdjust="spacing" textLength="205" x="1463.5" y="1883.6421">prisma.appointment.findFirst()</text><path d="M15,1916.3716 L79,1916.3716 L79,1924.1709 L69,1934.1709 L15,1934.1709 L15,1916.3716 " fill="#FFFFFF" style="stroke:#000000;stroke-width:1.0;"/><rect fill="none" height="377.5591" style="stroke:#000000;stroke-width:1.0;" width="1653.5" x="15" y="1916.3716"/><text fill="#000000" font-family="Verdana" font-size="13" font-weight="bold" lengthAdjust="spacing" textLength="19" x="30" y="1930.4414">alt</text><text fill="#000000" font-family="Verdana" font-size="11" font-weight="bold" lengthAdjust="spacing" textLength="79" x="94" y="1929.4307">[No conflict]</text><polygon fill="#000000" points="1444.5,1951.9702,1454.5,1955.9702,1444.5,1959.9702,1448.5,1955.9702" style="stroke:#000000;stroke-width:1.0;"/><line style="stroke:#000000;stroke-width:1.0;" x1="1061.5" x2="1450.5" y1="1955.9702" y2="1955.9702"/><text fill="#000000" font-family="Verdana" font-size="13" lengthAdjust="spacing" textLength="252" x="1068.5" y="1951.2407">createAppointment(appointmentData)</text><line style="stroke:#000000;stroke-width:1.0;" x1="1456.5" x2="1498.5" y1="1985.7695" y2="1985.7695"/><line style="stroke:#000000;stroke-width:1.0;" x1="1498.5" x2="1498.5" y1="1985.7695" y2="1998.7695"/><line style="stroke:#000000;stroke-width:1.0;" x1="1457.5" x2="1498.5" y1="1998.7695" y2="1998.7695"/><polygon fill="#000000" points="1467.5,1994.7695,1457.5,1998.7695,1467.5,2002.7695,1463.5,1998.7695" style="stroke:#000000;stroke-width:1.0;"/><text fill="#000000" font-family="Verdana" font-size="13" lengthAdjust="spacing" textLength="193" x="1463.5" y="1981.04">prisma.appointment.create()</text><polygon fill="#000000" points="1072.5,2040.3682,1062.5,2044.3682,1072.5,2048.3682,1068.5,2044.3682" style="stroke:#000000;stroke-width:1.0;"/><line style="stroke:#000000;stroke-width:1.0;stroke-dasharray:2.0,2.0;" x1="1066.5" x2="1455.5" y1="2044.3682" y2="2044.3682"/><text fill="#000000" font-family="Verdana" font-size="13" lengthAdjust="spacing" textLength="83" x="1078.5" y="2023.8394">appointment</text><text fill="#000000" font-family="Verdana" font-size="13" lengthAdjust="spacing" textLength="274" x="1078.5" y="2039.6387">(new appointment with code and details)</text><polygon fill="#000000" points="713.5,2085.9668,703.5,2089.9668,713.5,2093.9668,709.5,2089.9668" style="stroke:#000000;stroke-width:1.0;"/><line style="stroke:#000000;stroke-width:1.0;stroke-dasharray:2.0,2.0;" x1="707.5" x2="1060.5" y1="2089.9668" y2="2089.9668"/><text fill="#000000" font-family="Verdana" font-size="13" lengthAdjust="spacing" textLength="60" x="719.5" y="2069.438">response</text><text fill="#000000" font-family="Verdana" font-size="13" lengthAdjust="spacing" textLength="274" x="719.5" y="2085.2373">(appointment with booking confirmation)</text><polygon fill="#000000" points="318.5,2131.5654,308.5,2135.5654,318.5,2139.5654,314.5,2135.5654" style="stroke:#000000;stroke-width:1.0;"/><line style="stroke:#000000;stroke-width:1.0;stroke-dasharray:2.0,2.0;" x1="312.5" x2="701.5" y1="2135.5654" y2="2135.5654"/><text fill="#000000" font-family="Verdana" font-size="13" lengthAdjust="spacing" textLength="60" x="324.5" y="2115.0366">response</text><text fill="#000000" font-family="Verdana" font-size="13" lengthAdjust="spacing" textLength="199" x="324.5" y="2130.8359">(created appointment details)</text><polygon fill="#000000" points="63.5,2161.3647,53.5,2165.3647,63.5,2169.3647,59.5,2165.3647" style="stroke:#000000;stroke-width:1.0;"/><line style="stroke:#000000;stroke-width:1.0;stroke-dasharray:2.0,2.0;" x1="57.5" x2="306.5" y1="2165.3647" y2="2165.3647"/><text fill="#000000" font-family="Verdana" font-size="13" lengthAdjust="spacing" textLength="231" x="69.5" y="2160.6353">Display booking success with code</text><line style="stroke:#000000;stroke-width:1.0;stroke-dasharray:2.0,2.0;" x1="15" x2="1668.5" y1="2174.3647" y2="2174.3647"/><text fill="#000000" font-family="Verdana" font-size="11" font-weight="bold" lengthAdjust="spacing" textLength="60" x="20" y="2185.4238">[Conflict]</text><polygon fill="#000000" points="713.5,2206.5327,703.5,2210.5327,713.5,2214.5327,709.5,2210.5327" style="stroke:#000000;stroke-width:1.0;"/><line style="stroke:#000000;stroke-width:1.0;stroke-dasharray:2.0,2.0;" x1="707.5" x2="1060.5" y1="2210.5327" y2="2210.5327"/><text fill="#000000" font-family="Verdana" font-size="13" lengthAdjust="spacing" textLength="169" x="719.5" y="2205.8032">throw ConflictException()</text><polygon fill="#000000" points="318.5,2252.1313,308.5,2256.1313,318.5,2260.1313,314.5,2256.1313" style="stroke:#000000;stroke-width:1.0;"/><line style="stroke:#000000;stroke-width:1.0;stroke-dasharray:2.0,2.0;" x1="312.5" x2="701.5" y1="2256.1313" y2="2256.1313"/><text fill="#000000" font-family="Verdana" font-size="13" lengthAdjust="spacing" textLength="34" x="324.5" y="2235.6025">error</text><text fill="#000000" font-family="Verdana" font-size="13" lengthAdjust="spacing" textLength="226" x="324.5" y="2251.4019">(time slot not available message)</text><polygon fill="#000000" points="63.5,2281.9307,53.5,2285.9307,63.5,2289.9307,59.5,2285.9307" style="stroke:#000000;stroke-width:1.0;"/><line style="stroke:#000000;stroke-width:1.0;stroke-dasharray:2.0,2.0;" x1="57.5" x2="306.5" y1="2285.9307" y2="2285.9307"/><text fill="#000000" font-family="Verdana" font-size="13" lengthAdjust="spacing" textLength="166" x="69.5" y="2281.2012">Display conflict message</text><!--SRC=[bLPDa-8s4BtxLtJcvAc2tJjLoHQ3bwqz9A7YhUIo5s4te1fPSYGnu7-VreTjUGpBvWJulMwzxjTg_8izOOFG2iPbbh7AAWrFEsOvIli4pC0kswkph9dku6chbRGeQmziiuf-QINWQTssYalRKCoBKgzS7ZS14gWzT_CZRedwZLVeYML6pxdj9ZoFh0UaK4wbVrWC3yiMAyw4xKAQtGYasV_Eicm7ozzWku8IcQvESA22JH-SRHsuMS6Npz_W8nibBFT1wyUUoj5acqX-OuBNpE9V-EyPZSsV0rAku8Ys70C8A3smMy61otejn3jqryEjvgPX7mPX7np_ToQxo0hf4p7VPSw462i1ZPNIjV571faQJQkaGQ8cWS2qPXrSk3q1hnSWMOCBgD5KchUMA-ch2Isxaq5mOvzTwuX5sWjkQ9mwU4z9Mo-mil-dxRNtt7mQGhxMlrwlrva5vOZd2NVYI9WVyz8Dv2dLUrG4YnvnYyYDVWMPgLb5xrMiW5eNlq73R7MYuXBJl0iNfL_1e37K_3l-zIaIxyOaN1xKRTFwCET6YD9qq-Ln0NXjKTETh_26aMdOpCG00fCrE0CUM-dAeyzbpJhpAKJVCRE8ODwpRjZuJyXMKBA4rbj8D4SeOpDVkX2KCDyPU1dPDrrCS7_bsbQhDwnz-LmkwTUH-cr-niFO1t1zY4QwNKJx61fQbgVR5h8tnWNR2_JTldltHbfwpFm6XkNevLjE_mD6AFlOmY7xql7dYt3TuwM32wlosgg9ULD6WBrfwnLKJ5HdCKkJfxrVzDABinjXjwKogIm2kQ7T6Pi-IT8ABtRrNIxXgqNji8bD3lY2CY13D_pZpGchLw3_i8FW5HMShQFMO-H_8_fSvVF0Et11HxuhoATtTuyyfBOc_tWXCYxv829nthdbhC34j7kBta6JDM6PjaujdIlhy8MRGTYZeGlv7WxTA2iPkVE-uHRY3FajfHlltJ1mkp_BEnFdFcTZvjuVagRDvcm_nVFzZB-0CyqHpSumUyvevyucUfqdQWfcsMXft1W9xZV6bcl_2f3HBeO_r30q6S1mY4OttOcosI40FpWcnEUH5MfDS39CuYLz4golL1rcfqPBHfdd86asCxF0tZ9N2e-UkU1RenAqrPFJa_DcCzFdDkUgyekpLqha38L1s4mQ6DJQarQN0VbyhT2_gkGJLQYrqYHf64QW3P4CQKFdiIFUbDMxrfFeTRBE_WC0]--></g></svg>