<?xml version="1.0" encoding="us-ascii" standalone="no"?><svg xmlns="http://www.w3.org/2000/svg" xmlns:xlink="http://www.w3.org/1999/xlink" contentStyleType="text/css" height="2158px" preserveAspectRatio="none" style="width:1287px;height:2158px;background:#FFFFFF;" version="1.1" viewBox="0 0 1287 2158" width="1287px" zoomAndPan="magnify"><defs/><g><rect fill="#FFFFFF" height="543.9688" style="stroke:#181818;stroke-width:1.0;" width="10" x="296" y="112.7988"/><rect fill="#FFFFFF" height="485.3477" style="stroke:#181818;stroke-width:1.0;" width="10" x="655" y="142.1094"/><rect fill="#FFFFFF" height="426.7266" style="stroke:#181818;stroke-width:1.0;" width="10" x="867" y="171.4199"/><rect fill="#FFFFFF" height="71.6211" style="stroke:#181818;stroke-width:1.0;" width="10" x="867" y="1761.6602"/><rect fill="#FFFFFF" height="71.6211" style="stroke:#181818;stroke-width:1.0;" width="10" x="867" y="1862.5918"/><rect fill="#FFFFFF" height="58.6211" style="stroke:#181818;stroke-width:1.0;" width="10" x="1201" y="351.9727"/><rect fill="#FFFFFF" height="29.3105" style="stroke:#181818;stroke-width:1.0;" width="10" x="1201" y="916.207"/><rect fill="#FFFFFF" height="58.6211" style="stroke:#181818;stroke-width:1.0;" width="10" x="1201" y="1602.1074"/><rect fill="none" height="189.8633" style="stroke:#000000;stroke-width:1.5;" width="1045" x="235" y="271.041"/><rect fill="none" height="1543.5508" style="stroke:#000000;stroke-width:1.5;" width="1270" x="10" y="517.2148"/><rect fill="none" height="59.6211" style="stroke:#000000;stroke-width:1.5;" width="361.5" x="766.5" y="1087.4492"/><line style="stroke:#181818;stroke-width:0.5;stroke-dasharray:5.0,5.0;" x1="68" x2="68" y1="81.4883" y2="2077.7656"/><line style="stroke:#181818;stroke-width:0.5;stroke-dasharray:5.0,5.0;" x1="181" x2="181" y1="81.4883" y2="2077.7656"/><line style="stroke:#181818;stroke-width:0.5;stroke-dasharray:5.0,5.0;" x1="301" x2="301" y1="81.4883" y2="2077.7656"/><line style="stroke:#181818;stroke-width:0.5;stroke-dasharray:5.0,5.0;" x1="442" x2="442" y1="81.4883" y2="2077.7656"/><line style="stroke:#181818;stroke-width:0.5;stroke-dasharray:5.0,5.0;" x1="659.5" x2="659.5" y1="81.4883" y2="2077.7656"/><line style="stroke:#181818;stroke-width:0.5;stroke-dasharray:5.0,5.0;" x1="871.5" x2="871.5" y1="81.4883" y2="2077.7656"/><line style="stroke:#181818;stroke-width:0.5;stroke-dasharray:5.0,5.0;" x1="1206" x2="1206" y1="81.4883" y2="2077.7656"/><text fill="#000000" font-family="sans-serif" font-size="14" lengthAdjust="spacing" textLength="91" x="20" y="78.5352">Counter Staff</text><ellipse cx="68.5" cy="13.5" fill="#E2E2F0" rx="8" ry="8" style="stroke:#181818;stroke-width:0.5;"/><path d="M68.5,21.5 L68.5,48.5 M55.5,29.5 L81.5,29.5 M68.5,48.5 L55.5,63.5 M68.5,48.5 L81.5,63.5 " fill="none" style="stroke:#181818;stroke-width:0.5;"/><text fill="#000000" font-family="sans-serif" font-size="14" lengthAdjust="spacing" textLength="91" x="20" y="2090.3008">Counter Staff</text><ellipse cx="68.5" cy="2101.7539" fill="#E2E2F0" rx="8" ry="8" style="stroke:#181818;stroke-width:0.5;"/><path d="M68.5,2109.7539 L68.5,2136.7539 M55.5,2117.7539 L81.5,2117.7539 M68.5,2136.7539 L55.5,2151.7539 M68.5,2136.7539 L81.5,2151.7539 " fill="none" style="stroke:#181818;stroke-width:0.5;"/><text fill="#000000" font-family="sans-serif" font-size="14" lengthAdjust="spacing" textLength="102" x="127" y="78.5352">Waiting Patient</text><ellipse cx="181" cy="13.5" fill="#E2E2F0" rx="8" ry="8" style="stroke:#181818;stroke-width:0.5;"/><path d="M181,21.5 L181,48.5 M168,29.5 L194,29.5 M181,48.5 L168,63.5 M181,48.5 L194,63.5 " fill="none" style="stroke:#181818;stroke-width:0.5;"/><text fill="#000000" font-family="sans-serif" font-size="14" lengthAdjust="spacing" textLength="102" x="127" y="2090.3008">Waiting Patient</text><ellipse cx="181" cy="2101.7539" fill="#E2E2F0" rx="8" ry="8" style="stroke:#181818;stroke-width:0.5;"/><path d="M181,2109.7539 L181,2136.7539 M168,2117.7539 L194,2117.7539 M181,2136.7539 L168,2151.7539 M181,2136.7539 L194,2151.7539 " fill="none" style="stroke:#181818;stroke-width:0.5;"/><text fill="#000000" font-family="sans-serif" font-size="14" lengthAdjust="spacing" textLength="106" x="245" y="78.5352">Counter Screen</text><path d="M280.5,37 L280.5,61 M280.5,49 L297.5,49 " fill="none" style="stroke:#181818;stroke-width:0.5;"/><ellipse cx="309.5" cy="49" fill="#E2E2F0" rx="12" ry="12" style="stroke:#181818;stroke-width:0.5;"/><text fill="#000000" font-family="sans-serif" font-size="14" lengthAdjust="spacing" textLength="106" x="245" y="2090.3008">Counter Screen</text><path d="M280.5,2097.2539 L280.5,2121.2539 M280.5,2109.2539 L297.5,2109.2539 " fill="none" style="stroke:#181818;stroke-width:0.5;"/><ellipse cx="309.5" cy="2109.2539" fill="#E2E2F0" rx="12" ry="12" style="stroke:#181818;stroke-width:0.5;"/><text fill="#000000" font-family="sans-serif" font-size="14" lengthAdjust="spacing" textLength="145" x="367" y="78.5352">Waiting Room Screen</text><path d="M422,37 L422,61 M422,49 L439,49 " fill="none" style="stroke:#181818;stroke-width:0.5;"/><ellipse cx="451" cy="49" fill="#E2E2F0" rx="12" ry="12" style="stroke:#181818;stroke-width:0.5;"/><text fill="#000000" font-family="sans-serif" font-size="14" lengthAdjust="spacing" textLength="145" x="367" y="2090.3008">Waiting Room Screen</text><path d="M422,2097.2539 L422,2121.2539 M422,2109.2539 L439,2109.2539 " fill="none" style="stroke:#181818;stroke-width:0.5;"/><ellipse cx="451" cy="2109.2539" fill="#E2E2F0" rx="12" ry="12" style="stroke:#181818;stroke-width:0.5;"/><text fill="#000000" font-family="sans-serif" font-size="14" lengthAdjust="spacing" textLength="207" x="553.5" y="78.5352">CounterAssignmentController</text><ellipse cx="660" cy="49" fill="#E2E2F0" rx="12" ry="12" style="stroke:#181818;stroke-width:0.5;"/><polygon fill="#181818" points="656,37,662,32,660,37,662,42,656,37" style="stroke:#181818;stroke-width:1.0;"/><text fill="#000000" font-family="sans-serif" font-size="14" lengthAdjust="spacing" textLength="207" x="553.5" y="2090.3008">CounterAssignmentController</text><ellipse cx="660" cy="2109.2539" fill="#E2E2F0" rx="12" ry="12" style="stroke:#181818;stroke-width:0.5;"/><polygon fill="#181818" points="656,2097.2539,662,2092.2539,660,2097.2539,662,2102.2539,656,2097.2539" style="stroke:#181818;stroke-width:1.0;"/><text fill="#000000" font-family="sans-serif" font-size="14" lengthAdjust="spacing" textLength="185" x="776.5" y="78.5352">CounterAssignmentService</text><ellipse cx="872" cy="49" fill="#E2E2F0" rx="12" ry="12" style="stroke:#181818;stroke-width:0.5;"/><polygon fill="#181818" points="868,37,874,32,872,37,874,42,868,37" style="stroke:#181818;stroke-width:1.0;"/><text fill="#000000" font-family="sans-serif" font-size="14" lengthAdjust="spacing" textLength="185" x="776.5" y="2090.3008">CounterAssignmentService</text><ellipse cx="872" cy="2109.2539" fill="#E2E2F0" rx="12" ry="12" style="stroke:#181818;stroke-width:0.5;"/><polygon fill="#181818" points="868,2097.2539,874,2092.2539,872,2097.2539,874,2102.2539,868,2097.2539" style="stroke:#181818;stroke-width:1.0;"/><text fill="#000000" font-family="sans-serif" font-size="14" lengthAdjust="spacing" textLength="122" x="1142" y="78.5352">WebSocketService</text><ellipse cx="1206" cy="49" fill="#E2E2F0" rx="12" ry="12" style="stroke:#181818;stroke-width:0.5;"/><polygon fill="#181818" points="1202,37,1208,32,1206,37,1208,42,1202,37" style="stroke:#181818;stroke-width:1.0;"/><text fill="#000000" font-family="sans-serif" font-size="14" lengthAdjust="spacing" textLength="122" x="1142" y="2090.3008">WebSocketService</text><ellipse cx="1206" cy="2109.2539" fill="#E2E2F0" rx="12" ry="12" style="stroke:#181818;stroke-width:0.5;"/><polygon fill="#181818" points="1202,2097.2539,1208,2092.2539,1206,2097.2539,1208,2102.2539,1202,2097.2539" style="stroke:#181818;stroke-width:1.0;"/><rect fill="#FFFFFF" height="543.9688" style="stroke:#181818;stroke-width:1.0;" width="10" x="296" y="112.7988"/><rect fill="#FFFFFF" height="485.3477" style="stroke:#181818;stroke-width:1.0;" width="10" x="655" y="142.1094"/><rect fill="#FFFFFF" height="426.7266" style="stroke:#181818;stroke-width:1.0;" width="10" x="867" y="171.4199"/><rect fill="#FFFFFF" height="71.6211" style="stroke:#181818;stroke-width:1.0;" width="10" x="867" y="1761.6602"/><rect fill="#FFFFFF" height="71.6211" style="stroke:#181818;stroke-width:1.0;" width="10" x="867" y="1862.5918"/><rect fill="#FFFFFF" height="58.6211" style="stroke:#181818;stroke-width:1.0;" width="10" x="1201" y="351.9727"/><rect fill="#FFFFFF" height="29.3105" style="stroke:#181818;stroke-width:1.0;" width="10" x="1201" y="916.207"/><rect fill="#FFFFFF" height="58.6211" style="stroke:#181818;stroke-width:1.0;" width="10" x="1201" y="1602.1074"/><polygon fill="#181818" points="284,108.7988,294,112.7988,284,116.7988,288,112.7988" style="stroke:#181818;stroke-width:1.0;"/><line style="stroke:#181818;stroke-width:1.0;" x1="68.5" x2="290" y1="112.7988" y2="112.7988"/><text fill="#000000" font-family="sans-serif" font-size="13" lengthAdjust="spacing" textLength="185" x="75.5" y="108.0566">Press call next patient button</text><polygon fill="#181818" points="643,138.1094,653,142.1094,643,146.1094,647,142.1094" style="stroke:#181818;stroke-width:1.0;"/><line style="stroke:#181818;stroke-width:1.0;" x1="306" x2="649" y1="142.1094" y2="142.1094"/><text fill="#000000" font-family="sans-serif" font-size="13" lengthAdjust="spacing" textLength="330" x="313" y="137.3672">POST /counter-assignment/next-patient/:counterId</text><polygon fill="#181818" points="855,167.4199,865,171.4199,855,175.4199,859,171.4199" style="stroke:#181818;stroke-width:1.0;"/><line style="stroke:#181818;stroke-width:1.0;" x1="665" x2="861" y1="171.4199" y2="171.4199"/><text fill="#000000" font-family="sans-serif" font-size="13" lengthAdjust="spacing" textLength="163" x="672" y="166.6777">callNextPatient(counterId)</text><line style="stroke:#181818;stroke-width:1.0;" x1="877" x2="919" y1="200.7305" y2="200.7305"/><line style="stroke:#181818;stroke-width:1.0;" x1="919" x2="919" y1="200.7305" y2="213.7305"/><line style="stroke:#181818;stroke-width:1.0;" x1="878" x2="919" y1="213.7305" y2="213.7305"/><polygon fill="#181818" points="888,209.7305,878,213.7305,888,217.7305,884,213.7305" style="stroke:#181818;stroke-width:1.0;"/><text fill="#000000" font-family="sans-serif" font-size="13" lengthAdjust="spacing" textLength="175" x="884" y="195.9883">getCurrentQueue(counterId)</text><line style="stroke:#181818;stroke-width:1.0;" x1="877" x2="919" y1="243.041" y2="243.041"/><line style="stroke:#181818;stroke-width:1.0;" x1="919" x2="919" y1="243.041" y2="256.041"/><line style="stroke:#181818;stroke-width:1.0;" x1="878" x2="919" y1="256.041" y2="256.041"/><polygon fill="#181818" points="888,252.041,878,256.041,888,260.041,884,256.041" style="stroke:#181818;stroke-width:1.0;"/><text fill="#000000" font-family="sans-serif" font-size="13" lengthAdjust="spacing" textLength="178" x="884" y="238.2988">getCurrentPatient(counterId)</text><path d="M235,271.041 L297,271.041 L297,278.3516 L287,288.3516 L235,288.3516 L235,271.041 " fill="#EEEEEE" style="stroke:#000000;stroke-width:1.5;"/><rect fill="none" height="189.8633" style="stroke:#000000;stroke-width:1.5;" width="1045" x="235" y="271.041"/><text fill="#000000" font-family="sans-serif" font-size="13" font-weight="bold" lengthAdjust="spacing" textLength="17" x="250" y="284.6094">alt</text><text fill="#000000" font-family="sans-serif" font-size="11" font-weight="bold" lengthAdjust="spacing" textLength="178" x="312" y="283.6758">[Has patient currently SERVING]</text><line style="stroke:#181818;stroke-width:1.0;" x1="877" x2="919" y1="309.6621" y2="309.6621"/><line style="stroke:#181818;stroke-width:1.0;" x1="919" x2="919" y1="309.6621" y2="322.6621"/><line style="stroke:#181818;stroke-width:1.0;" x1="878" x2="919" y1="322.6621" y2="322.6621"/><polygon fill="#181818" points="888,318.6621,878,322.6621,888,326.6621,884,322.6621" style="stroke:#181818;stroke-width:1.0;"/><text fill="#000000" font-family="sans-serif" font-size="13" lengthAdjust="spacing" textLength="209" x="884" y="304.9199">setCurrentPatient(counterId, null)</text><polygon fill="#181818" points="1189,347.9727,1199,351.9727,1189,355.9727,1193,351.9727" style="stroke:#181818;stroke-width:1.0;"/><line style="stroke:#181818;stroke-width:1.0;" x1="877" x2="1195" y1="351.9727" y2="351.9727"/><text fill="#000000" font-family="sans-serif" font-size="13" lengthAdjust="spacing" textLength="264" x="884" y="347.2305">notifyTicketCompleted(counterId, patient)</text><polygon fill="#181818" points="317,377.2832,307,381.2832,317,385.2832,313,381.2832" style="stroke:#181818;stroke-width:1.0;"/><line style="stroke:#181818;stroke-width:1.0;" x1="311" x2="1200" y1="381.2832" y2="381.2832"/><text fill="#000000" font-family="sans-serif" font-size="13" lengthAdjust="spacing" textLength="157" x="323" y="376.541">Notify patient completed</text><polygon fill="#181818" points="453.5,406.5938,443.5,410.5938,453.5,414.5938,449.5,410.5938" style="stroke:#181818;stroke-width:1.0;"/><line style="stroke:#181818;stroke-width:1.0;" x1="447.5" x2="1205" y1="410.5938" y2="410.5938"/><text fill="#000000" font-family="sans-serif" font-size="13" lengthAdjust="spacing" textLength="157" x="459.5" y="405.8516">Update completed status</text><line style="stroke:#181818;stroke-width:1.0;" x1="877" x2="919" y1="439.9043" y2="439.9043"/><line style="stroke:#181818;stroke-width:1.0;" x1="919" x2="919" y1="439.9043" y2="452.9043"/><line style="stroke:#181818;stroke-width:1.0;" x1="878" x2="919" y1="452.9043" y2="452.9043"/><polygon fill="#181818" points="888,448.9043,878,452.9043,888,456.9043,884,452.9043" style="stroke:#181818;stroke-width:1.0;"/><text fill="#000000" font-family="sans-serif" font-size="13" lengthAdjust="spacing" textLength="251" x="884" y="435.1621">publishPatientServed(counterId, patient)</text><line style="stroke:#181818;stroke-width:1.0;" x1="877" x2="919" y1="489.2148" y2="489.2148"/><line style="stroke:#181818;stroke-width:1.0;" x1="919" x2="919" y1="489.2148" y2="502.2148"/><line style="stroke:#181818;stroke-width:1.0;" x1="878" x2="919" y1="502.2148" y2="502.2148"/><polygon fill="#181818" points="888,498.2148,878,502.2148,888,506.2148,884,502.2148" style="stroke:#181818;stroke-width:1.0;"/><text fill="#000000" font-family="sans-serif" font-size="13" lengthAdjust="spacing" textLength="246" x="884" y="484.4727">getQueueStatusWithCleanup(counterId)</text><path d="M10,517.2148 L72,517.2148 L72,524.5254 L62,534.5254 L10,534.5254 L10,517.2148 " fill="#EEEEEE" style="stroke:#000000;stroke-width:1.5;"/><rect fill="none" height="1543.5508" style="stroke:#000000;stroke-width:1.5;" width="1270" x="10" y="517.2148"/><text fill="#000000" font-family="sans-serif" font-size="13" font-weight="bold" lengthAdjust="spacing" textLength="17" x="25" y="530.7832">alt</text><text fill="#000000" font-family="sans-serif" font-size="11" font-weight="bold" lengthAdjust="spacing" textLength="95" x="87" y="529.8496">[Queue is empty]</text><line style="stroke:#181818;stroke-width:1.0;" x1="877" x2="919" y1="555.8359" y2="555.8359"/><line style="stroke:#181818;stroke-width:1.0;" x1="919" x2="919" y1="555.8359" y2="568.8359"/><line style="stroke:#181818;stroke-width:1.0;" x1="878" x2="919" y1="568.8359" y2="568.8359"/><polygon fill="#181818" points="888,564.8359,878,568.8359,888,572.8359,884,568.8359" style="stroke:#181818;stroke-width:1.0;"/><text fill="#000000" font-family="sans-serif" font-size="13" lengthAdjust="spacing" textLength="271" x="884" y="551.0938">checkAndResetSequenceIfEmpty(counterId)</text><polygon fill="#181818" points="676,594.1465,666,598.1465,676,602.1465,672,598.1465" style="stroke:#181818;stroke-width:1.0;"/><line style="stroke:#181818;stroke-width:1.0;stroke-dasharray:2.0,2.0;" x1="670" x2="871" y1="598.1465" y2="598.1465"/><text fill="#000000" font-family="sans-serif" font-size="13" lengthAdjust="spacing" textLength="131" x="682" y="593.4043">No patients in queue</text><polygon fill="#181818" points="317,623.457,307,627.457,317,631.457,313,627.457" style="stroke:#181818;stroke-width:1.0;"/><line style="stroke:#181818;stroke-width:1.0;stroke-dasharray:2.0,2.0;" x1="311" x2="659" y1="627.457" y2="627.457"/><text fill="#000000" font-family="sans-serif" font-size="13" lengthAdjust="spacing" textLength="132" x="323" y="622.7148">No patients available</text><polygon fill="#181818" points="79.5,652.7676,69.5,656.7676,79.5,660.7676,75.5,656.7676" style="stroke:#181818;stroke-width:1.0;"/><line style="stroke:#181818;stroke-width:1.0;stroke-dasharray:2.0,2.0;" x1="73.5" x2="300" y1="656.7676" y2="656.7676"/><text fill="#000000" font-family="sans-serif" font-size="13" lengthAdjust="spacing" textLength="174" x="85.5" y="652.0254">Display No patients waiting</text><line style="stroke:#000000;stroke-width:1.0;stroke-dasharray:2.0,2.0;" x1="10" x2="1280" y1="665.7676" y2="665.7676"/><text fill="#000000" font-family="sans-serif" font-size="11" font-weight="bold" lengthAdjust="spacing" textLength="114" x="15" y="676.4023">[Queue has patients]</text><line style="stroke:#181818;stroke-width:1.0;" x1="872" x2="914" y1="701.0332" y2="701.0332"/><line style="stroke:#181818;stroke-width:1.0;" x1="914" x2="914" y1="701.0332" y2="714.0332"/><line style="stroke:#181818;stroke-width:1.0;" x1="873" x2="914" y1="714.0332" y2="714.0332"/><polygon fill="#181818" points="883,710.0332,873,714.0332,883,718.0332,879,714.0332" style="stroke:#181818;stroke-width:1.0;"/><text fill="#000000" font-family="sans-serif" font-size="13" lengthAdjust="spacing" textLength="201" x="879" y="696.291">Get patient with highest priority</text><line style="stroke:#181818;stroke-width:1.0;" x1="872" x2="914" y1="773.9648" y2="773.9648"/><line style="stroke:#181818;stroke-width:1.0;" x1="914" x2="914" y1="773.9648" y2="786.9648"/><line style="stroke:#181818;stroke-width:1.0;" x1="873" x2="914" y1="786.9648" y2="786.9648"/><polygon fill="#181818" points="883,782.9648,873,786.9648,883,790.9648,879,786.9648" style="stroke:#181818;stroke-width:1.0;"/><text fill="#000000" font-family="sans-serif" font-size="13" lengthAdjust="spacing" textLength="147" x="879" y="738.6016">Create preparingPatient</text><text fill="#000000" font-family="sans-serif" font-size="13" lengthAdjust="spacing" textLength="126" x="879" y="753.9121">status = PREPARING</text><text fill="#000000" font-family="sans-serif" font-size="13" lengthAdjust="spacing" textLength="99" x="879" y="769.2227">isPriority = true</text><line style="stroke:#181818;stroke-width:1.0;" x1="872" x2="914" y1="816.2754" y2="816.2754"/><line style="stroke:#181818;stroke-width:1.0;" x1="914" x2="914" y1="816.2754" y2="829.2754"/><line style="stroke:#181818;stroke-width:1.0;" x1="873" x2="914" y1="829.2754" y2="829.2754"/><polygon fill="#181818" points="883,825.2754,873,829.2754,883,833.2754,879,829.2754" style="stroke:#181818;stroke-width:1.0;"/><text fill="#000000" font-family="sans-serif" font-size="13" lengthAdjust="spacing" textLength="316" x="879" y="811.5332">removeTicketFromQueue(counterId, nextPatientId)</text><line style="stroke:#181818;stroke-width:1.0;" x1="872" x2="914" y1="873.8965" y2="873.8965"/><line style="stroke:#181818;stroke-width:1.0;" x1="914" x2="914" y1="873.8965" y2="886.8965"/><line style="stroke:#181818;stroke-width:1.0;" x1="873" x2="914" y1="886.8965" y2="886.8965"/><polygon fill="#181818" points="883,882.8965,873,886.8965,883,890.8965,879,886.8965" style="stroke:#181818;stroke-width:1.0;"/><text fill="#000000" font-family="sans-serif" font-size="13" lengthAdjust="spacing" textLength="297" x="879" y="853.8438">addTicketToQueue(counterId, preparingPatient,</text><text fill="#000000" font-family="sans-serif" font-size="13" lengthAdjust="spacing" textLength="179" x="879" y="869.1543">MAX_SAFE_INTEGER priority)</text><polygon fill="#181818" points="1189,912.207,1199,916.207,1189,920.207,1193,916.207" style="stroke:#181818;stroke-width:1.0;"/><line style="stroke:#181818;stroke-width:1.0;" x1="872" x2="1195" y1="916.207" y2="916.207"/><text fill="#000000" font-family="sans-serif" font-size="13" lengthAdjust="spacing" textLength="275" x="879" y="911.4648">sendToCounter(counterId, preparingPatient)</text><polygon fill="#181818" points="312,941.5176,302,945.5176,312,949.5176,308,945.5176" style="stroke:#181818;stroke-width:1.0;"/><line style="stroke:#181818;stroke-width:1.0;" x1="306" x2="1205" y1="945.5176" y2="945.5176"/><text fill="#000000" font-family="sans-serif" font-size="13" lengthAdjust="spacing" textLength="103" x="318" y="940.7754">Notify preparing</text><line style="stroke:#181818;stroke-width:1.0;" x1="872" x2="914" y1="974.8281" y2="974.8281"/><line style="stroke:#181818;stroke-width:1.0;" x1="914" x2="914" y1="974.8281" y2="987.8281"/><line style="stroke:#181818;stroke-width:1.0;" x1="873" x2="914" y1="987.8281" y2="987.8281"/><polygon fill="#181818" points="883,983.8281,873,987.8281,883,991.8281,879,987.8281" style="stroke:#181818;stroke-width:1.0;"/><text fill="#000000" font-family="sans-serif" font-size="13" lengthAdjust="spacing" textLength="269" x="879" y="970.0859">publishPatientPreparing(counterId, patient)</text><line style="stroke:#181818;stroke-width:1.0;" x1="872" x2="914" y1="1017.1387" y2="1017.1387"/><line style="stroke:#181818;stroke-width:1.0;" x1="914" x2="914" y1="1017.1387" y2="1030.1387"/><line style="stroke:#181818;stroke-width:1.0;" x1="873" x2="914" y1="1030.1387" y2="1030.1387"/><polygon fill="#181818" points="883,1026.1387,873,1030.1387,883,1034.1387,879,1030.1387" style="stroke:#181818;stroke-width:1.0;"/><text fill="#000000" font-family="sans-serif" font-size="13" lengthAdjust="spacing" textLength="228" x="879" y="1012.3965">callNextPatientOptimized(counterId)</text><line style="stroke:#181818;stroke-width:1.0;" x1="872" x2="914" y1="1059.4492" y2="1059.4492"/><line style="stroke:#181818;stroke-width:1.0;" x1="914" x2="914" y1="1059.4492" y2="1072.4492"/><line style="stroke:#181818;stroke-width:1.0;" x1="873" x2="914" y1="1072.4492" y2="1072.4492"/><polygon fill="#181818" points="883,1068.4492,873,1072.4492,883,1076.4492,879,1072.4492" style="stroke:#181818;stroke-width:1.0;"/><text fill="#000000" font-family="sans-serif" font-size="13" lengthAdjust="spacing" textLength="178" x="879" y="1054.707">getCurrentPatient(counterId)</text><path d="M766.5,1087.4492 L828.5,1087.4492 L828.5,1094.7598 L818.5,1104.7598 L766.5,1104.7598 L766.5,1087.4492 " fill="#EEEEEE" style="stroke:#000000;stroke-width:1.5;"/><rect fill="none" height="59.6211" style="stroke:#000000;stroke-width:1.5;" width="361.5" x="766.5" y="1087.4492"/><text fill="#000000" font-family="sans-serif" font-size="13" font-weight="bold" lengthAdjust="spacing" textLength="17" x="781.5" y="1101.0176">alt</text><text fill="#000000" font-family="sans-serif" font-size="11" font-weight="bold" lengthAdjust="spacing" textLength="205" x="843.5" y="1100.084">[previousCurrent != updatedCurrent]</text><line style="stroke:#181818;stroke-width:1.0;" x1="872" x2="914" y1="1126.0703" y2="1126.0703"/><line style="stroke:#181818;stroke-width:1.0;" x1="914" x2="914" y1="1126.0703" y2="1139.0703"/><line style="stroke:#181818;stroke-width:1.0;" x1="873" x2="914" y1="1139.0703" y2="1139.0703"/><polygon fill="#181818" points="883,1135.0703,873,1139.0703,883,1143.0703,879,1139.0703" style="stroke:#181818;stroke-width:1.0;"/><text fill="#000000" font-family="sans-serif" font-size="13" lengthAdjust="spacing" textLength="237" x="879" y="1121.3281">savePreviousCurrent(previousCurrent)</text><line style="stroke:#181818;stroke-width:1.0;" x1="872" x2="914" y1="1190.6914" y2="1190.6914"/><line style="stroke:#181818;stroke-width:1.0;" x1="914" x2="914" y1="1190.6914" y2="1203.6914"/><line style="stroke:#181818;stroke-width:1.0;" x1="873" x2="914" y1="1203.6914" y2="1203.6914"/><polygon fill="#181818" points="883,1199.6914,873,1203.6914,883,1207.6914,879,1203.6914" style="stroke:#181818;stroke-width:1.0;"/><text fill="#000000" font-family="sans-serif" font-size="13" lengthAdjust="spacing" textLength="113" x="879" y="1170.6387">Normalize current</text><text fill="#000000" font-family="sans-serif" font-size="13" lengthAdjust="spacing" textLength="110" x="879" y="1185.9492">status = SERVING</text><line style="stroke:#181818;stroke-width:1.0;" x1="872" x2="914" y1="1233.002" y2="1233.002"/><line style="stroke:#181818;stroke-width:1.0;" x1="914" x2="914" y1="1233.002" y2="1246.002"/><line style="stroke:#181818;stroke-width:1.0;" x1="873" x2="914" y1="1246.002" y2="1246.002"/><polygon fill="#181818" points="883,1242.002,873,1246.002,883,1250.002,879,1246.002" style="stroke:#181818;stroke-width:1.0;"/><text fill="#000000" font-family="sans-serif" font-size="13" lengthAdjust="spacing" textLength="273" x="879" y="1228.2598">setCurrentPatient(counterId, currentPatient)</text><line style="stroke:#181818;stroke-width:1.0;" x1="872" x2="914" y1="1290.623" y2="1290.623"/><line style="stroke:#181818;stroke-width:1.0;" x1="914" x2="914" y1="1290.623" y2="1303.623"/><line style="stroke:#181818;stroke-width:1.0;" x1="873" x2="914" y1="1303.623" y2="1303.623"/><polygon fill="#181818" points="883,1299.623,873,1303.623,883,1307.623,879,1303.623" style="stroke:#181818;stroke-width:1.0;"/><text fill="#000000" font-family="sans-serif" font-size="13" lengthAdjust="spacing" textLength="236" x="879" y="1270.5703">updateNextPatientInQueue(counterId)</text><text fill="#000000" font-family="sans-serif" font-size="13" lengthAdjust="spacing" textLength="249" x="879" y="1285.8809">Select next patient with highest priority</text><line style="stroke:#181818;stroke-width:1.0;" x1="872" x2="914" y1="1332.9336" y2="1332.9336"/><line style="stroke:#181818;stroke-width:1.0;" x1="914" x2="914" y1="1332.9336" y2="1345.9336"/><line style="stroke:#181818;stroke-width:1.0;" x1="873" x2="914" y1="1345.9336" y2="1345.9336"/><polygon fill="#181818" points="883,1341.9336,873,1345.9336,883,1349.9336,879,1345.9336" style="stroke:#181818;stroke-width:1.0;"/><text fill="#000000" font-family="sans-serif" font-size="13" lengthAdjust="spacing" textLength="175" x="879" y="1328.1914">getCurrentQueue(counterId)</text><line style="stroke:#181818;stroke-width:1.0;" x1="872" x2="914" y1="1390.5547" y2="1390.5547"/><line style="stroke:#181818;stroke-width:1.0;" x1="914" x2="914" y1="1390.5547" y2="1403.5547"/><line style="stroke:#181818;stroke-width:1.0;" x1="873" x2="914" y1="1403.5547" y2="1403.5547"/><polygon fill="#181818" points="883,1399.5547,873,1403.5547,883,1407.5547,879,1403.5547" style="stroke:#181818;stroke-width:1.0;"/><text fill="#000000" font-family="sans-serif" font-size="13" lengthAdjust="spacing" textLength="207" x="879" y="1370.502">Find patient with highest priority</text><text fill="#000000" font-family="sans-serif" font-size="13" lengthAdjust="spacing" textLength="125" x="879" y="1385.8125">Mark status = NEXT</text><line style="stroke:#181818;stroke-width:1.0;" x1="872" x2="914" y1="1432.8652" y2="1432.8652"/><line style="stroke:#181818;stroke-width:1.0;" x1="914" x2="914" y1="1432.8652" y2="1445.8652"/><line style="stroke:#181818;stroke-width:1.0;" x1="873" x2="914" y1="1445.8652" y2="1445.8652"/><polygon fill="#181818" points="883,1441.8652,873,1445.8652,883,1449.8652,879,1445.8652" style="stroke:#181818;stroke-width:1.0;"/><text fill="#000000" font-family="sans-serif" font-size="13" lengthAdjust="spacing" textLength="257" x="879" y="1428.123">updatePatientStatus(nextPatientId, NEXT)</text><line style="stroke:#181818;stroke-width:1.0;" x1="872" x2="914" y1="1475.1758" y2="1475.1758"/><line style="stroke:#181818;stroke-width:1.0;" x1="914" x2="914" y1="1475.1758" y2="1488.1758"/><line style="stroke:#181818;stroke-width:1.0;" x1="873" x2="914" y1="1488.1758" y2="1488.1758"/><polygon fill="#181818" points="883,1484.1758,873,1488.1758,883,1492.1758,879,1488.1758" style="stroke:#181818;stroke-width:1.0;"/><text fill="#000000" font-family="sans-serif" font-size="13" lengthAdjust="spacing" textLength="279" x="879" y="1470.4336">publishNextPatientCalled(counterId, patient)</text><line style="stroke:#181818;stroke-width:1.0;" x1="872" x2="914" y1="1517.4863" y2="1517.4863"/><line style="stroke:#181818;stroke-width:1.0;" x1="914" x2="914" y1="1517.4863" y2="1530.4863"/><line style="stroke:#181818;stroke-width:1.0;" x1="873" x2="914" y1="1530.4863" y2="1530.4863"/><polygon fill="#181818" points="883,1526.4863,873,1530.4863,883,1534.4863,879,1530.4863" style="stroke:#181818;stroke-width:1.0;"/><text fill="#000000" font-family="sans-serif" font-size="13" lengthAdjust="spacing" textLength="175" x="879" y="1512.7441">getCurrentQueue(counterId)</text><line style="stroke:#181818;stroke-width:1.0;" x1="872" x2="914" y1="1559.7969" y2="1559.7969"/><line style="stroke:#181818;stroke-width:1.0;" x1="914" x2="914" y1="1559.7969" y2="1572.7969"/><line style="stroke:#181818;stroke-width:1.0;" x1="873" x2="914" y1="1572.7969" y2="1572.7969"/><polygon fill="#181818" points="883,1568.7969,873,1572.7969,883,1576.7969,879,1572.7969" style="stroke:#181818;stroke-width:1.0;"/><text fill="#000000" font-family="sans-serif" font-size="13" lengthAdjust="spacing" textLength="299" x="879" y="1555.0547">compareQueueAndNotify(oldQueue, newQueue)</text><polygon fill="#181818" points="1189,1598.1074,1199,1602.1074,1189,1606.1074,1193,1602.1074" style="stroke:#181818;stroke-width:1.0;"/><line style="stroke:#181818;stroke-width:1.0;" x1="872" x2="1195" y1="1602.1074" y2="1602.1074"/><text fill="#000000" font-family="sans-serif" font-size="13" lengthAdjust="spacing" textLength="310" x="879" y="1597.3652">notifyQueuePositionChanges(counterId, changes)</text><polygon fill="#181818" points="312,1627.418,302,1631.418,312,1635.418,308,1631.418" style="stroke:#181818;stroke-width:1.0;"/><line style="stroke:#181818;stroke-width:1.0;" x1="306" x2="1200" y1="1631.418" y2="1631.418"/><text fill="#000000" font-family="sans-serif" font-size="13" lengthAdjust="spacing" textLength="182" x="318" y="1626.6758">Update Current, Next, Moved</text><polygon fill="#181818" points="453.5,1656.7285,443.5,1660.7285,453.5,1664.7285,449.5,1660.7285" style="stroke:#181818;stroke-width:1.0;"/><line style="stroke:#181818;stroke-width:1.0;" x1="447.5" x2="1205" y1="1660.7285" y2="1660.7285"/><text fill="#000000" font-family="sans-serif" font-size="13" lengthAdjust="spacing" textLength="147" x="459.5" y="1655.9863">Update new waiting list</text><line style="stroke:#181818;stroke-width:1.0;" x1="872" x2="914" y1="1690.0391" y2="1690.0391"/><line style="stroke:#181818;stroke-width:1.0;" x1="914" x2="914" y1="1690.0391" y2="1703.0391"/><line style="stroke:#181818;stroke-width:1.0;" x1="873" x2="914" y1="1703.0391" y2="1703.0391"/><polygon fill="#181818" points="883,1699.0391,873,1703.0391,883,1707.0391,879,1703.0391" style="stroke:#181818;stroke-width:1.0;"/><text fill="#000000" font-family="sans-serif" font-size="13" lengthAdjust="spacing" textLength="186" x="879" y="1685.2969">mapTicketForFrontend(ticket)</text><polygon fill="#181818" points="671,1728.3496,661,1732.3496,671,1736.3496,667,1732.3496" style="stroke:#181818;stroke-width:1.0;"/><line style="stroke:#181818;stroke-width:1.0;stroke-dasharray:2.0,2.0;" x1="665" x2="871" y1="1732.3496" y2="1732.3496"/><text fill="#000000" font-family="sans-serif" font-size="13" lengthAdjust="spacing" textLength="159" x="677" y="1727.6074">Response ok patient data</text><polygon fill="#181818" points="855,1757.6602,865,1761.6602,855,1765.6602,859,1761.6602" style="stroke:#181818;stroke-width:1.0;"/><line style="stroke:#181818;stroke-width:1.0;" x1="660" x2="861" y1="1761.6602" y2="1761.6602"/><text fill="#000000" font-family="sans-serif" font-size="13" lengthAdjust="spacing" textLength="167" x="667" y="1756.918">getQueueStatus(counterId)</text><line style="stroke:#181818;stroke-width:1.0;" x1="877" x2="919" y1="1790.9707" y2="1790.9707"/><line style="stroke:#181818;stroke-width:1.0;" x1="919" x2="919" y1="1790.9707" y2="1803.9707"/><line style="stroke:#181818;stroke-width:1.0;" x1="878" x2="919" y1="1803.9707" y2="1803.9707"/><polygon fill="#181818" points="888,1799.9707,878,1803.9707,888,1807.9707,884,1803.9707" style="stroke:#181818;stroke-width:1.0;"/><text fill="#000000" font-family="sans-serif" font-size="13" lengthAdjust="spacing" textLength="175" x="884" y="1786.2285">getCurrentQueue(counterId)</text><polygon fill="#181818" points="671,1829.2813,661,1833.2813,671,1837.2813,667,1833.2813" style="stroke:#181818;stroke-width:1.0;"/><line style="stroke:#181818;stroke-width:1.0;stroke-dasharray:2.0,2.0;" x1="665" x2="871" y1="1833.2813" y2="1833.2813"/><text fill="#000000" font-family="sans-serif" font-size="13" lengthAdjust="spacing" textLength="77" x="677" y="1828.5391">queueStatus</text><polygon fill="#181818" points="855,1858.5918,865,1862.5918,855,1866.5918,859,1862.5918" style="stroke:#181818;stroke-width:1.0;"/><line style="stroke:#181818;stroke-width:1.0;" x1="660" x2="861" y1="1862.5918" y2="1862.5918"/><text fill="#000000" font-family="sans-serif" font-size="13" lengthAdjust="spacing" textLength="178" x="667" y="1857.8496">getCurrentPatient(counterId)</text><line style="stroke:#181818;stroke-width:1.0;" x1="877" x2="919" y1="1891.9023" y2="1891.9023"/><line style="stroke:#181818;stroke-width:1.0;" x1="919" x2="919" y1="1891.9023" y2="1904.9023"/><line style="stroke:#181818;stroke-width:1.0;" x1="878" x2="919" y1="1904.9023" y2="1904.9023"/><polygon fill="#181818" points="888,1900.9023,878,1904.9023,888,1908.9023,884,1904.9023" style="stroke:#181818;stroke-width:1.0;"/><text fill="#000000" font-family="sans-serif" font-size="13" lengthAdjust="spacing" textLength="178" x="884" y="1887.1602">getCurrentPatient(counterId)</text><polygon fill="#181818" points="671,1930.2129,661,1934.2129,671,1938.2129,667,1934.2129" style="stroke:#181818;stroke-width:1.0;"/><line style="stroke:#181818;stroke-width:1.0;stroke-dasharray:2.0,2.0;" x1="665" x2="871" y1="1934.2129" y2="1934.2129"/><text fill="#000000" font-family="sans-serif" font-size="13" lengthAdjust="spacing" textLength="88" x="677" y="1929.4707">currentPatient</text><polygon fill="#181818" points="312,1959.5234,302,1963.5234,312,1967.5234,308,1963.5234" style="stroke:#181818;stroke-width:1.0;"/><line style="stroke:#181818;stroke-width:1.0;stroke-dasharray:2.0,2.0;" x1="306" x2="659" y1="1963.5234" y2="1963.5234"/><text fill="#000000" font-family="sans-serif" font-size="13" lengthAdjust="spacing" textLength="170" x="318" y="1958.7813">Response with patient data</text><polygon fill="#181818" points="79.5,2004.1445,69.5,2008.1445,79.5,2012.1445,75.5,2008.1445" style="stroke:#181818;stroke-width:1.0;"/><line style="stroke:#181818;stroke-width:1.0;stroke-dasharray:2.0,2.0;" x1="73.5" x2="300" y1="2008.1445" y2="2008.1445"/><text fill="#000000" font-family="sans-serif" font-size="13" lengthAdjust="spacing" textLength="145" x="85.5" y="1988.0918">Display serving patient</text><text fill="#000000" font-family="sans-serif" font-size="13" lengthAdjust="spacing" textLength="97" x="85.5" y="2003.4023">and waiting list</text><polygon fill="#181818" points="192,2048.7656,182,2052.7656,192,2056.7656,188,2052.7656" style="stroke:#181818;stroke-width:1.0;"/><line style="stroke:#181818;stroke-width:1.0;stroke-dasharray:2.0,2.0;" x1="186" x2="441.5" y1="2052.7656" y2="2052.7656"/><text fill="#000000" font-family="sans-serif" font-size="13" lengthAdjust="spacing" textLength="182" x="198" y="2032.7129">Display called queue number</text><text fill="#000000" font-family="sans-serif" font-size="13" lengthAdjust="spacing" textLength="129" x="198" y="2048.0234">and waiting position</text><!--SRC=[hLVBRjiw4DthAzYk7C11zWPQm72TN2_gkfPxtKM0WfOcDX6AL4ZAgVlrT_ZGqv6Sf3Shcfevypmp34sCLEJZJ1R2W2AneGyF7mdL_XHH_tbBcM5YJrRKC1362OHp5ErGDwNgr419581mKk7gnw8XLgAjfSoQik4UPQD42gCaho2dMhEzoD3Up7_Xe09- -ND09mPrP0dukFovbjx2BfR98xIajd4KkGoGwyzr31EoKg0rIIZdHC1lGtAV1B8hZ972feiTgO56s55rz52bkuZrBTwGcyH_lgQLjpSM-JeWtqo2m29jebT1H_NPueSO9ix59UA4AeqgbAiQfan550ujW3sOMQ4Kwdule80cm0Nv5qn6b1lo3-Qrp5VYHVc9nFFrlulbNKJmxoLStOyx9gBW_CgfTlMtyOG8QTZ3QSDiSMSoopaOI9lgmHkFKAK5Qsz_R-DExPSEhWwXH6n8Lnqy8J_or89LKaGRQWhjX5Fe6kiDFozsdEb3YDrUzuG08kqjZAjWxEnlcJdCE51Hv6S5ScA4QG9PRawzBYK7I1wd8bs3jgHvAa0ai7YOMwKcvdbS7G8iPUc-9aoG9sk-cv-oH-rrizMxfQcHw94oJdVy3Ah16ezMyT96Pya-8L-OpZazjG2VVL7FuKgA0zSGadUeUrpt9l0Ewi7nZFKW1xO_WCPBnQHY8VMzwZC5rdwk8ASA7GkzSIzyXv5FPBMUhwPhPDMzO7eLGF7Ug93WNcm5cJo2fyojabc7-sCtzOB1bslS0ADfwf4syWodw_tuNdoT_lmLJs_dlnRBpVnklgxIqSzmZLs_aQ4IG_1lf7Yf_NTiNPKmlJEddsFjyVqjDonZVvhKlm0mE8uhJSjw3FR8PA63EFdmYHHkTgNXnadsZcTwX5KROTH1zFRiV1hqU2bLHZa6MIw7HaCtbyJxDaNI-d8XUJx-HluNehi4xqKC71BJVWQyWyq3UtPGxvQ9TDWkCeggHr8bSJd_kNbDtEMkSNgZ5k773kJgLIHef6-6tJomUV_ttDYbInKu9LnKdjKZoLDtOuVOipjTUZeuePNKEF-bc1ses8DkDPM_UkLm2I-2416c4XCq9bzntWu_8T3RSWSHJAnvwr3AQ1u6kbGuqz4TaOwCktd5aiOjdqk12qu-Lks6Rj6XHNsshNkV8zsIlWZtZjReY-QfDlqN0GnFrdV4q8FK5qLxcBqfa7PBLiLr0sIel9t7q-KNbBPUOCVcvUk4uhmQQkFwFLKPgBZW38HmQnE96ok-flYlGBO3rJQJ1-gwn_5_]--></g></svg>