<?xml version="1.0" encoding="us-ascii" standalone="no"?><svg xmlns="http://www.w3.org/2000/svg" xmlns:xlink="http://www.w3.org/1999/xlink" contentStyleType="text/css" height="1597px" preserveAspectRatio="none" style="width:2154px;height:1597px;background:#FFFFFF;" version="1.1" viewBox="0 0 2154 1597" width="2154px" zoomAndPan="magnify"><defs/><g><rect fill="#FFFFFF" height="1056.6514" style="stroke:#000000;stroke-width:1.0;" width="2132.5" x="15" y="442.0078"/><rect fill="#FFFFFF" height="536.6943" style="stroke:#000000;stroke-width:1.0;" width="1373.5" x="764" y="670.603"/><rect fill="#FFFFFF" height="133.5659" style="stroke:none;stroke-width:1.0;" width="1373.5" x="764" y="806.5996"/><rect fill="#FFFFFF" height="133.5659" style="stroke:none;stroke-width:1.0;" width="1373.5" x="764" y="940.1655"/><rect fill="#FFFFFF" height="133.5659" style="stroke:none;stroke-width:1.0;" width="1373.5" x="764" y="1073.7314"/><rect fill="#FFFFFF" height="120.5659" style="stroke:none;stroke-width:1.0;" width="2132.5" x="15" y="1378.0933"/><line style="stroke:#000000;stroke-width:1.0;" x1="43" x2="43" y1="83.0146" y2="1515.6592"/><line style="stroke:#000000;stroke-width:1.0;" x1="258" x2="258" y1="83.0146" y2="1515.6592"/><line style="stroke:#000000;stroke-width:1.0;" x1="506" x2="506" y1="83.0146" y2="1515.6592"/><line style="stroke:#000000;stroke-width:1.0;" x1="821" x2="821" y1="83.0146" y2="1515.6592"/><line style="stroke:#000000;stroke-width:1.0;" x1="1131.5" x2="1131.5" y1="83.0146" y2="1515.6592"/><line style="stroke:#000000;stroke-width:1.0;" x1="1313" x2="1313" y1="83.0146" y2="1515.6592"/><line style="stroke:#000000;stroke-width:1.0;" x1="1512.5" x2="1512.5" y1="83.0146" y2="1515.6592"/><line style="stroke:#000000;stroke-width:1.0;" x1="1707.5" x2="1707.5" y1="83.0146" y2="1515.6592"/><line style="stroke:#000000;stroke-width:1.0;" x1="1938.5" x2="1938.5" y1="83.0146" y2="1515.6592"/><text fill="#000000" font-family="Verdana" font-size="14" lengthAdjust="spacing" textLength="31" x="25" y="80.0752">User</text><ellipse cx="43.5" cy="14" fill="#FFFFFF" rx="8" ry="8" style="stroke:#000000;stroke-width:1.0;"/><path d="M43.5,22 L43.5,49 M30.5,30 L56.5,30 M43.5,49 L30.5,64 M43.5,49 L56.5,64 " fill="none" style="stroke:#000000;stroke-width:1.0;"/><text fill="#000000" font-family="Verdana" font-size="14" lengthAdjust="spacing" textLength="31" x="25" y="1528.7344">User</text><ellipse cx="43.5" cy="1540.6738" fill="#FFFFFF" rx="8" ry="8" style="stroke:#000000;stroke-width:1.0;"/><path d="M43.5,1548.6738 L43.5,1575.6738 M30.5,1556.6738 L56.5,1556.6738 M43.5,1575.6738 L30.5,1590.6738 M43.5,1575.6738 L56.5,1590.6738 " fill="none" style="stroke:#000000;stroke-width:1.0;"/><text fill="#000000" font-family="Verdana" font-size="14" lengthAdjust="spacing" textLength="63" x="224" y="80.0752">Frontend</text><path d="M238,38 L238,62 M238,50 L255,50 " fill="none" style="stroke:#000000;stroke-width:1.0;"/><ellipse cx="267" cy="50" fill="#FFFFFF" rx="12" ry="12" style="stroke:#000000;stroke-width:1.0;"/><text fill="#000000" font-family="Verdana" font-size="14" lengthAdjust="spacing" textLength="63" x="224" y="1528.7344">Frontend</text><path d="M238,1535.6738 L238,1559.6738 M238,1547.6738 L255,1547.6738 " fill="none" style="stroke:#000000;stroke-width:1.0;"/><ellipse cx="267" cy="1547.6738" fill="#FFFFFF" rx="12" ry="12" style="stroke:#000000;stroke-width:1.0;"/><text fill="#000000" font-family="Verdana" font-size="14" lengthAdjust="spacing" textLength="107" x="450" y="80.0752">LoginController</text><ellipse cx="506.5" cy="50" fill="#FFFFFF" rx="12" ry="12" style="stroke:#000000;stroke-width:1.0;"/><polygon fill="#000000" points="502.5,38,508.5,33,506.5,38,508.5,43,502.5,38" style="stroke:#000000;stroke-width:1.0;"/><text fill="#000000" font-family="Verdana" font-size="14" lengthAdjust="spacing" textLength="107" x="450" y="1528.7344">LoginController</text><ellipse cx="506.5" cy="1547.6738" fill="#FFFFFF" rx="12" ry="12" style="stroke:#000000;stroke-width:1.0;"/><polygon fill="#000000" points="502.5,1535.6738,508.5,1530.6738,506.5,1535.6738,508.5,1540.6738,502.5,1535.6738" style="stroke:#000000;stroke-width:1.0;"/><text fill="#000000" font-family="Verdana" font-size="14" lengthAdjust="spacing" textLength="89" x="774" y="80.0752">LoginService</text><ellipse cx="821.5" cy="50" fill="#FFFFFF" rx="12" ry="12" style="stroke:#000000;stroke-width:1.0;"/><polygon fill="#000000" points="817.5,38,823.5,33,821.5,38,823.5,43,817.5,38" style="stroke:#000000;stroke-width:1.0;"/><text fill="#000000" font-family="Verdana" font-size="14" lengthAdjust="spacing" textLength="89" x="774" y="1528.7344">LoginService</text><ellipse cx="821.5" cy="1547.6738" fill="#FFFFFF" rx="12" ry="12" style="stroke:#000000;stroke-width:1.0;"/><polygon fill="#000000" points="817.5,1535.6738,823.5,1530.6738,821.5,1535.6738,823.5,1540.6738,817.5,1535.6738" style="stroke:#000000;stroke-width:1.0;"/><text fill="#000000" font-family="Verdana" font-size="14" lengthAdjust="spacing" textLength="56" x="1100.5" y="80.0752">Account</text><ellipse cx="1131.5" cy="50" fill="#FFFFFF" rx="12" ry="12" style="stroke:#000000;stroke-width:1.0;"/><line style="stroke:#000000;stroke-width:1.0;" x1="1119.5" x2="1143.5" y1="64" y2="64"/><text fill="#000000" font-family="Verdana" font-size="14" lengthAdjust="spacing" textLength="56" x="1100.5" y="1528.7344">Account</text><ellipse cx="1131.5" cy="1547.6738" fill="#FFFFFF" rx="12" ry="12" style="stroke:#000000;stroke-width:1.0;"/><line style="stroke:#000000;stroke-width:1.0;" x1="1119.5" x2="1143.5" y1="1561.6738" y2="1561.6738"/><text fill="#000000" font-family="Verdana" font-size="14" lengthAdjust="spacing" textLength="49" x="1286" y="80.0752">Patient</text><ellipse cx="1313.5" cy="50" fill="#FFFFFF" rx="12" ry="12" style="stroke:#000000;stroke-width:1.0;"/><line style="stroke:#000000;stroke-width:1.0;" x1="1301.5" x2="1325.5" y1="64" y2="64"/><text fill="#000000" font-family="Verdana" font-size="14" lengthAdjust="spacing" textLength="49" x="1286" y="1528.7344">Patient</text><ellipse cx="1313.5" cy="1547.6738" fill="#FFFFFF" rx="12" ry="12" style="stroke:#000000;stroke-width:1.0;"/><line style="stroke:#000000;stroke-width:1.0;" x1="1301.5" x2="1325.5" y1="1561.6738" y2="1561.6738"/><text fill="#000000" font-family="Verdana" font-size="14" lengthAdjust="spacing" textLength="46" x="1486.5" y="80.0752">Doctor</text><ellipse cx="1512.5" cy="50" fill="#FFFFFF" rx="12" ry="12" style="stroke:#000000;stroke-width:1.0;"/><line style="stroke:#000000;stroke-width:1.0;" x1="1500.5" x2="1524.5" y1="64" y2="64"/><text fill="#000000" font-family="Verdana" font-size="14" lengthAdjust="spacing" textLength="46" x="1486.5" y="1528.7344">Doctor</text><ellipse cx="1512.5" cy="1547.6738" fill="#FFFFFF" rx="12" ry="12" style="stroke:#000000;stroke-width:1.0;"/><line style="stroke:#000000;stroke-width:1.0;" x1="1500.5" x2="1524.5" y1="1561.6738" y2="1561.6738"/><text fill="#000000" font-family="Verdana" font-size="14" lengthAdjust="spacing" textLength="86" x="1661.5" y="80.0752">Receptionist</text><ellipse cx="1707.5" cy="50" fill="#FFFFFF" rx="12" ry="12" style="stroke:#000000;stroke-width:1.0;"/><line style="stroke:#000000;stroke-width:1.0;" x1="1695.5" x2="1719.5" y1="64" y2="64"/><text fill="#000000" font-family="Verdana" font-size="14" lengthAdjust="spacing" textLength="86" x="1661.5" y="1528.7344">Receptionist</text><ellipse cx="1707.5" cy="1547.6738" fill="#FFFFFF" rx="12" ry="12" style="stroke:#000000;stroke-width:1.0;"/><line style="stroke:#000000;stroke-width:1.0;" x1="1695.5" x2="1719.5" y1="1561.6738" y2="1561.6738"/><text fill="#000000" font-family="Verdana" font-size="14" lengthAdjust="spacing" textLength="46" x="1912.5" y="80.0752">Admin</text><ellipse cx="1938.5" cy="50" fill="#FFFFFF" rx="12" ry="12" style="stroke:#000000;stroke-width:1.0;"/><line style="stroke:#000000;stroke-width:1.0;" x1="1926.5" x2="1950.5" y1="64" y2="64"/><text fill="#000000" font-family="Verdana" font-size="14" lengthAdjust="spacing" textLength="46" x="1912.5" y="1528.7344">Admin</text><ellipse cx="1938.5" cy="1547.6738" fill="#FFFFFF" rx="12" ry="12" style="stroke:#000000;stroke-width:1.0;"/><line style="stroke:#000000;stroke-width:1.0;" x1="1926.5" x2="1950.5" y1="1561.6738" y2="1561.6738"/><polygon fill="#000000" points="246.5,110.814,256.5,114.814,246.5,118.814,250.5,114.814" style="stroke:#000000;stroke-width:1.0;"/><line style="stroke:#000000;stroke-width:1.0;" x1="43.5" x2="252.5" y1="114.814" y2="114.814"/><text fill="#000000" font-family="Verdana" font-size="13" lengthAdjust="spacing" textLength="150" x="50.5" y="110.0845">Enter login credentials</text><polygon fill="#000000" points="494.5,143.6133,504.5,147.6133,494.5,151.6133,498.5,147.6133" style="stroke:#000000;stroke-width:1.0;"/><line style="stroke:#000000;stroke-width:1.0;" x1="258.5" x2="500.5" y1="147.6133" y2="147.6133"/><text fill="#000000" font-family="Verdana" font-size="13" lengthAdjust="spacing" textLength="78" x="265.5" y="142.8838">POST /login</text><path d="M511,127.814 L511,152.814 L590,152.814 L590,137.814 L580,127.814 L511,127.814 " fill="#FFFFFF" style="stroke:#000000;stroke-width:1.0;"/><path d="M580,127.814 L580,137.814 L590,137.814 L580,127.814 " fill="#FFFFFF" style="stroke:#000000;stroke-width:1.0;"/><text fill="#000000" font-family="Verdana" font-size="13" lengthAdjust="spacing" textLength="58" x="517" y="145.8838">LoginDto</text><line style="stroke:#000000;stroke-width:1.0;" x1="506.5" x2="548.5" y1="180.4126" y2="180.4126"/><line style="stroke:#000000;stroke-width:1.0;" x1="548.5" x2="548.5" y1="180.4126" y2="193.4126"/><line style="stroke:#000000;stroke-width:1.0;" x1="507.5" x2="548.5" y1="193.4126" y2="193.4126"/><polygon fill="#000000" points="517.5,189.4126,507.5,193.4126,517.5,197.4126,513.5,193.4126" style="stroke:#000000;stroke-width:1.0;"/><text fill="#000000" font-family="Verdana" font-size="13" lengthAdjust="spacing" textLength="178" x="513.5" y="175.6831">validateLoginDto(loginDto)</text><polygon fill="#000000" points="809.5,219.2119,819.5,223.2119,809.5,227.2119,813.5,223.2119" style="stroke:#000000;stroke-width:1.0;"/><line style="stroke:#000000;stroke-width:1.0;" x1="506.5" x2="815.5" y1="223.2119" y2="223.2119"/><text fill="#000000" font-family="Verdana" font-size="13" lengthAdjust="spacing" textLength="99" x="513.5" y="218.4824">login(loginDto)</text><line style="stroke:#000000;stroke-width:1.0;" x1="821.5" x2="863.5" y1="253.0112" y2="253.0112"/><line style="stroke:#000000;stroke-width:1.0;" x1="863.5" x2="863.5" y1="253.0112" y2="266.0112"/><line style="stroke:#000000;stroke-width:1.0;" x1="822.5" x2="863.5" y1="266.0112" y2="266.0112"/><polygon fill="#000000" points="832.5,262.0112,822.5,266.0112,832.5,270.0112,828.5,266.0112" style="stroke:#000000;stroke-width:1.0;"/><text fill="#000000" font-family="Verdana" font-size="13" lengthAdjust="spacing" textLength="262" x="828.5" y="248.2817">validateUser(phoneOrEmail, password)</text><polygon fill="#000000" points="1119.5,291.8105,1129.5,295.8105,1119.5,299.8105,1123.5,295.8105" style="stroke:#000000;stroke-width:1.0;"/><line style="stroke:#000000;stroke-width:1.0;" x1="821.5" x2="1125.5" y1="295.8105" y2="295.8105"/><text fill="#000000" font-family="Verdana" font-size="13" lengthAdjust="spacing" textLength="240" x="828.5" y="291.0811">findByPhoneOrEmail(phoneOrEmail)</text><line style="stroke:#000000;stroke-width:1.0;" x1="1131.5" x2="1173.5" y1="325.6099" y2="325.6099"/><line style="stroke:#000000;stroke-width:1.0;" x1="1173.5" x2="1173.5" y1="325.6099" y2="338.6099"/><line style="stroke:#000000;stroke-width:1.0;" x1="1132.5" x2="1173.5" y1="338.6099" y2="338.6099"/><polygon fill="#000000" points="1142.5,334.6099,1132.5,338.6099,1142.5,342.6099,1138.5,338.6099" style="stroke:#000000;stroke-width:1.0;"/><text fill="#000000" font-family="Verdana" font-size="13" lengthAdjust="spacing" textLength="151" x="1138.5" y="320.8804">prisma.auth.findFirst()</text><polygon fill="#000000" points="832.5,380.2085,822.5,384.2085,832.5,388.2085,828.5,384.2085" style="stroke:#000000;stroke-width:1.0;"/><line style="stroke:#000000;stroke-width:1.0;stroke-dasharray:2.0,2.0;" x1="826.5" x2="1130.5" y1="384.2085" y2="384.2085"/><text fill="#000000" font-family="Verdana" font-size="13" lengthAdjust="spacing" textLength="29" x="838.5" y="363.6797">auth</text><text fill="#000000" font-family="Verdana" font-size="13" lengthAdjust="spacing" textLength="264" x="838.5" y="379.479">(account record with hashed password)</text><line style="stroke:#000000;stroke-width:1.0;" x1="821.5" x2="863.5" y1="414.0078" y2="414.0078"/><line style="stroke:#000000;stroke-width:1.0;" x1="863.5" x2="863.5" y1="414.0078" y2="427.0078"/><line style="stroke:#000000;stroke-width:1.0;" x1="822.5" x2="863.5" y1="427.0078" y2="427.0078"/><polygon fill="#000000" points="832.5,423.0078,822.5,427.0078,832.5,431.0078,828.5,427.0078" style="stroke:#000000;stroke-width:1.0;"/><text fill="#000000" font-family="Verdana" font-size="13" lengthAdjust="spacing" textLength="287" x="828.5" y="409.2783">bcrypt.compare(password, auth.password)</text><path d="M15,442.0078 L79,442.0078 L79,449.8071 L69,459.8071 L15,459.8071 L15,442.0078 " fill="#FFFFFF" style="stroke:#000000;stroke-width:1.0;"/><rect fill="none" height="1056.6514" style="stroke:#000000;stroke-width:1.0;" width="2132.5" x="15" y="442.0078"/><text fill="#000000" font-family="Verdana" font-size="13" font-weight="bold" lengthAdjust="spacing" textLength="19" x="30" y="456.0776">alt</text><text fill="#000000" font-family="Verdana" font-size="11" font-weight="bold" lengthAdjust="spacing" textLength="119" x="94" y="455.0669">[Password correct]</text><polygon fill="#000000" points="1119.5,477.6064,1129.5,481.6064,1119.5,485.6064,1123.5,481.6064" style="stroke:#000000;stroke-width:1.0;"/><line style="stroke:#000000;stroke-width:1.0;" x1="821.5" x2="1125.5" y1="481.6064" y2="481.6064"/><text fill="#000000" font-family="Verdana" font-size="13" lengthAdjust="spacing" textLength="140" x="828.5" y="476.877">getUserById(auth.id)</text><line style="stroke:#000000;stroke-width:1.0;" x1="1131.5" x2="1173.5" y1="511.4058" y2="511.4058"/><line style="stroke:#000000;stroke-width:1.0;" x1="1173.5" x2="1173.5" y1="511.4058" y2="524.4058"/><line style="stroke:#000000;stroke-width:1.0;" x1="1132.5" x2="1173.5" y1="524.4058" y2="524.4058"/><polygon fill="#000000" points="1142.5,520.4058,1132.5,524.4058,1142.5,528.4058,1138.5,524.4058" style="stroke:#000000;stroke-width:1.0;"/><text fill="#000000" font-family="Verdana" font-size="13" lengthAdjust="spacing" textLength="168" x="1138.5" y="506.6763">prisma.auth.findUnique()</text><polygon fill="#000000" points="832.5,566.0044,822.5,570.0044,832.5,574.0044,828.5,570.0044" style="stroke:#000000;stroke-width:1.0;"/><line style="stroke:#000000;stroke-width:1.0;stroke-dasharray:2.0,2.0;" x1="826.5" x2="1130.5" y1="570.0044" y2="570.0044"/><text fill="#000000" font-family="Verdana" font-size="13" lengthAdjust="spacing" textLength="29" x="838.5" y="549.4756">user</text><text fill="#000000" font-family="Verdana" font-size="13" lengthAdjust="spacing" textLength="176" x="838.5" y="565.2749">(account details with role)</text><line style="stroke:#000000;stroke-width:1.0;" x1="821.5" x2="863.5" y1="599.8037" y2="599.8037"/><line style="stroke:#000000;stroke-width:1.0;" x1="863.5" x2="863.5" y1="599.8037" y2="612.8037"/><line style="stroke:#000000;stroke-width:1.0;" x1="822.5" x2="863.5" y1="612.8037" y2="612.8037"/><polygon fill="#000000" points="832.5,608.8037,822.5,612.8037,832.5,616.8037,828.5,612.8037" style="stroke:#000000;stroke-width:1.0;"/><text fill="#000000" font-family="Verdana" font-size="13" lengthAdjust="spacing" textLength="157" x="828.5" y="595.0742">createJwtPayload(user)</text><line style="stroke:#000000;stroke-width:1.0;" x1="821.5" x2="863.5" y1="642.603" y2="642.603"/><line style="stroke:#000000;stroke-width:1.0;" x1="863.5" x2="863.5" y1="642.603" y2="655.603"/><line style="stroke:#000000;stroke-width:1.0;" x1="822.5" x2="863.5" y1="655.603" y2="655.603"/><polygon fill="#000000" points="832.5,651.603,822.5,655.603,832.5,659.603,828.5,655.603" style="stroke:#000000;stroke-width:1.0;"/><text fill="#000000" font-family="Verdana" font-size="13" lengthAdjust="spacing" textLength="172" x="828.5" y="637.8735">addRoleSpecificInfo(user)</text><path d="M764,670.603 L828,670.603 L828,678.4023 L818,688.4023 L764,688.4023 L764,670.603 " fill="#FFFFFF" style="stroke:#000000;stroke-width:1.0;"/><rect fill="none" height="536.6943" style="stroke:#000000;stroke-width:1.0;" width="1373.5" x="764" y="670.603"/><text fill="#000000" font-family="Verdana" font-size="13" font-weight="bold" lengthAdjust="spacing" textLength="19" x="779" y="684.6729">alt</text><text fill="#000000" font-family="Verdana" font-size="11" font-weight="bold" lengthAdjust="spacing" textLength="113" x="843" y="683.6621">[Role is PATIENT]</text><polygon fill="#000000" points="1301.5,706.2017,1311.5,710.2017,1301.5,714.2017,1305.5,710.2017" style="stroke:#000000;stroke-width:1.0;"/><line style="stroke:#000000;stroke-width:1.0;" x1="821.5" x2="1307.5" y1="710.2017" y2="710.2017"/><text fill="#000000" font-family="Verdana" font-size="13" lengthAdjust="spacing" textLength="186" x="828.5" y="705.4722">getPatientByUserId(user.id)</text><line style="stroke:#000000;stroke-width:1.0;" x1="1313.5" x2="1355.5" y1="740.001" y2="740.001"/><line style="stroke:#000000;stroke-width:1.0;" x1="1355.5" x2="1355.5" y1="740.001" y2="753.001"/><line style="stroke:#000000;stroke-width:1.0;" x1="1314.5" x2="1355.5" y1="753.001" y2="753.001"/><polygon fill="#000000" points="1324.5,749.001,1314.5,753.001,1324.5,757.001,1320.5,753.001" style="stroke:#000000;stroke-width:1.0;"/><text fill="#000000" font-family="Verdana" font-size="13" lengthAdjust="spacing" textLength="185" x="1320.5" y="735.2715">prisma.patient.findUnique()</text><polygon fill="#000000" points="832.5,794.5996,822.5,798.5996,832.5,802.5996,828.5,798.5996" style="stroke:#000000;stroke-width:1.0;"/><line style="stroke:#000000;stroke-width:1.0;stroke-dasharray:2.0,2.0;" x1="826.5" x2="1312.5" y1="798.5996" y2="798.5996"/><text fill="#000000" font-family="Verdana" font-size="13" lengthAdjust="spacing" textLength="46" x="838.5" y="778.0708">patient</text><text fill="#000000" font-family="Verdana" font-size="13" lengthAdjust="spacing" textLength="136" x="838.5" y="793.8701">(patient profile info)</text><line style="stroke:#000000;stroke-width:1.0;stroke-dasharray:2.0,2.0;" x1="764" x2="2137.5" y1="807.5996" y2="807.5996"/><text fill="#000000" font-family="Verdana" font-size="11" font-weight="bold" lengthAdjust="spacing" textLength="110" x="769" y="818.6587">[Role is DOCTOR]</text><polygon fill="#000000" points="1500.5,839.7676,1510.5,843.7676,1500.5,847.7676,1504.5,843.7676" style="stroke:#000000;stroke-width:1.0;"/><line style="stroke:#000000;stroke-width:1.0;" x1="821.5" x2="1506.5" y1="843.7676" y2="843.7676"/><text fill="#000000" font-family="Verdana" font-size="13" lengthAdjust="spacing" textLength="184" x="828.5" y="839.0381">getDoctorByUserId(user.id)</text><line style="stroke:#000000;stroke-width:1.0;" x1="1512.5" x2="1554.5" y1="873.5669" y2="873.5669"/><line style="stroke:#000000;stroke-width:1.0;" x1="1554.5" x2="1554.5" y1="873.5669" y2="886.5669"/><line style="stroke:#000000;stroke-width:1.0;" x1="1513.5" x2="1554.5" y1="886.5669" y2="886.5669"/><polygon fill="#000000" points="1523.5,882.5669,1513.5,886.5669,1523.5,890.5669,1519.5,886.5669" style="stroke:#000000;stroke-width:1.0;"/><text fill="#000000" font-family="Verdana" font-size="13" lengthAdjust="spacing" textLength="181" x="1519.5" y="868.8374">prisma.doctor.findUnique()</text><polygon fill="#000000" points="832.5,928.1655,822.5,932.1655,832.5,936.1655,828.5,932.1655" style="stroke:#000000;stroke-width:1.0;"/><line style="stroke:#000000;stroke-width:1.0;stroke-dasharray:2.0,2.0;" x1="826.5" x2="1511.5" y1="932.1655" y2="932.1655"/><text fill="#000000" font-family="Verdana" font-size="13" lengthAdjust="spacing" textLength="42" x="838.5" y="911.6367">doctor</text><text fill="#000000" font-family="Verdana" font-size="13" lengthAdjust="spacing" textLength="199" x="838.5" y="927.436">(doctor profile with specialty)</text><line style="stroke:#000000;stroke-width:1.0;stroke-dasharray:2.0,2.0;" x1="764" x2="2137.5" y1="941.1655" y2="941.1655"/><text fill="#000000" font-family="Verdana" font-size="11" font-weight="bold" lengthAdjust="spacing" textLength="152" x="769" y="952.2246">[Role is RECEPTIONIST]</text><polygon fill="#000000" points="1695.5,973.3335,1705.5,977.3335,1695.5,981.3335,1699.5,977.3335" style="stroke:#000000;stroke-width:1.0;"/><line style="stroke:#000000;stroke-width:1.0;" x1="821.5" x2="1701.5" y1="977.3335" y2="977.3335"/><text fill="#000000" font-family="Verdana" font-size="13" lengthAdjust="spacing" textLength="221" x="828.5" y="972.604">getReceptionistByUserId(user.id)</text><line style="stroke:#000000;stroke-width:1.0;" x1="1707.5" x2="1749.5" y1="1007.1328" y2="1007.1328"/><line style="stroke:#000000;stroke-width:1.0;" x1="1749.5" x2="1749.5" y1="1007.1328" y2="1020.1328"/><line style="stroke:#000000;stroke-width:1.0;" x1="1708.5" x2="1749.5" y1="1020.1328" y2="1020.1328"/><polygon fill="#000000" points="1718.5,1016.1328,1708.5,1020.1328,1718.5,1024.1328,1714.5,1020.1328" style="stroke:#000000;stroke-width:1.0;"/><text fill="#000000" font-family="Verdana" font-size="13" lengthAdjust="spacing" textLength="217" x="1714.5" y="1002.4033">prisma.receptionist.findUnique()</text><polygon fill="#000000" points="832.5,1061.7314,822.5,1065.7314,832.5,1069.7314,828.5,1065.7314" style="stroke:#000000;stroke-width:1.0;"/><line style="stroke:#000000;stroke-width:1.0;stroke-dasharray:2.0,2.0;" x1="826.5" x2="1706.5" y1="1065.7314" y2="1065.7314"/><text fill="#000000" font-family="Verdana" font-size="13" lengthAdjust="spacing" textLength="78" x="838.5" y="1045.2026">receptionist</text><text fill="#000000" font-family="Verdana" font-size="13" lengthAdjust="spacing" textLength="168" x="838.5" y="1061.002">(receptionist profile info)</text><line style="stroke:#000000;stroke-width:1.0;stroke-dasharray:2.0,2.0;" x1="764" x2="2137.5" y1="1074.7314" y2="1074.7314"/><text fill="#000000" font-family="Verdana" font-size="11" font-weight="bold" lengthAdjust="spacing" textLength="102" x="769" y="1085.7905">[Role is ADMIN]</text><polygon fill="#000000" points="1926.5,1106.8994,1936.5,1110.8994,1926.5,1114.8994,1930.5,1110.8994" style="stroke:#000000;stroke-width:1.0;"/><line style="stroke:#000000;stroke-width:1.0;" x1="821.5" x2="1932.5" y1="1110.8994" y2="1110.8994"/><text fill="#000000" font-family="Verdana" font-size="13" lengthAdjust="spacing" textLength="182" x="828.5" y="1106.1699">getAdminByUserId(user.id)</text><line style="stroke:#000000;stroke-width:1.0;" x1="1938.5" x2="1980.5" y1="1140.6987" y2="1140.6987"/><line style="stroke:#000000;stroke-width:1.0;" x1="1980.5" x2="1980.5" y1="1140.6987" y2="1153.6987"/><line style="stroke:#000000;stroke-width:1.0;" x1="1939.5" x2="1980.5" y1="1153.6987" y2="1153.6987"/><polygon fill="#000000" points="1949.5,1149.6987,1939.5,1153.6987,1949.5,1157.6987,1945.5,1153.6987" style="stroke:#000000;stroke-width:1.0;"/><text fill="#000000" font-family="Verdana" font-size="13" lengthAdjust="spacing" textLength="180" x="1945.5" y="1135.9692">prisma.admin.findUnique()</text><polygon fill="#000000" points="832.5,1195.2974,822.5,1199.2974,832.5,1203.2974,828.5,1199.2974" style="stroke:#000000;stroke-width:1.0;"/><line style="stroke:#000000;stroke-width:1.0;stroke-dasharray:2.0,2.0;" x1="826.5" x2="1937.5" y1="1199.2974" y2="1199.2974"/><text fill="#000000" font-family="Verdana" font-size="13" lengthAdjust="spacing" textLength="41" x="838.5" y="1178.7686">admin</text><text fill="#000000" font-family="Verdana" font-size="13" lengthAdjust="spacing" textLength="131" x="838.5" y="1194.5679">(admin profile info)</text><line style="stroke:#000000;stroke-width:1.0;" x1="821.5" x2="863.5" y1="1236.0967" y2="1236.0967"/><line style="stroke:#000000;stroke-width:1.0;" x1="863.5" x2="863.5" y1="1236.0967" y2="1249.0967"/><line style="stroke:#000000;stroke-width:1.0;" x1="822.5" x2="863.5" y1="1249.0967" y2="1249.0967"/><polygon fill="#000000" points="832.5,1245.0967,822.5,1249.0967,832.5,1253.0967,828.5,1249.0967" style="stroke:#000000;stroke-width:1.0;"/><text fill="#000000" font-family="Verdana" font-size="13" lengthAdjust="spacing" textLength="296" x="828.5" y="1231.3672">jwt.sign(payload, secret, {expiresIn: '15d'})</text><polygon fill="#000000" points="517.5,1290.6953,507.5,1294.6953,517.5,1298.6953,513.5,1294.6953" style="stroke:#000000;stroke-width:1.0;"/><line style="stroke:#000000;stroke-width:1.0;stroke-dasharray:2.0,2.0;" x1="511.5" x2="820.5" y1="1294.6953" y2="1294.6953"/><text fill="#000000" font-family="Verdana" font-size="13" lengthAdjust="spacing" textLength="60" x="523.5" y="1274.1665">response</text><text fill="#000000" font-family="Verdana" font-size="13" lengthAdjust="spacing" textLength="291" x="523.5" y="1289.9658">(jwt token + user info + role-specific data)</text><polygon fill="#000000" points="269.5,1336.2939,259.5,1340.2939,269.5,1344.2939,265.5,1340.2939" style="stroke:#000000;stroke-width:1.0;"/><line style="stroke:#000000;stroke-width:1.0;stroke-dasharray:2.0,2.0;" x1="263.5" x2="505.5" y1="1340.2939" y2="1340.2939"/><text fill="#000000" font-family="Verdana" font-size="13" lengthAdjust="spacing" textLength="60" x="275.5" y="1319.7651">response</text><text fill="#000000" font-family="Verdana" font-size="13" lengthAdjust="spacing" textLength="224" x="275.5" y="1335.5645">(login success with access token)</text><polygon fill="#000000" points="54.5,1366.0933,44.5,1370.0933,54.5,1374.0933,50.5,1370.0933" style="stroke:#000000;stroke-width:1.0;"/><line style="stroke:#000000;stroke-width:1.0;stroke-dasharray:2.0,2.0;" x1="48.5" x2="257.5" y1="1370.0933" y2="1370.0933"/><text fill="#000000" font-family="Verdana" font-size="13" lengthAdjust="spacing" textLength="191" x="60.5" y="1365.3638">Display success and redirect</text><line style="stroke:#000000;stroke-width:1.0;stroke-dasharray:2.0,2.0;" x1="15" x2="2147.5" y1="1379.0933" y2="1379.0933"/><text fill="#000000" font-family="Verdana" font-size="11" font-weight="bold" lengthAdjust="spacing" textLength="131" x="20" y="1390.1523">[Password incorrect]</text><polygon fill="#000000" points="517.5,1411.2612,507.5,1415.2612,517.5,1419.2612,513.5,1415.2612" style="stroke:#000000;stroke-width:1.0;"/><line style="stroke:#000000;stroke-width:1.0;stroke-dasharray:2.0,2.0;" x1="511.5" x2="820.5" y1="1415.2612" y2="1415.2612"/><text fill="#000000" font-family="Verdana" font-size="13" lengthAdjust="spacing" textLength="207" x="523.5" y="1410.5317">throw UnauthorizedException()</text><polygon fill="#000000" points="269.5,1456.8599,259.5,1460.8599,269.5,1464.8599,265.5,1460.8599" style="stroke:#000000;stroke-width:1.0;"/><line style="stroke:#000000;stroke-width:1.0;stroke-dasharray:2.0,2.0;" x1="263.5" x2="505.5" y1="1460.8599" y2="1460.8599"/><text fill="#000000" font-family="Verdana" font-size="13" lengthAdjust="spacing" textLength="34" x="275.5" y="1440.3311">error</text><text fill="#000000" font-family="Verdana" font-size="13" lengthAdjust="spacing" textLength="198" x="275.5" y="1456.1304">(invalid credentials message)</text><polygon fill="#000000" points="54.5,1486.6592,44.5,1490.6592,54.5,1494.6592,50.5,1490.6592" style="stroke:#000000;stroke-width:1.0;"/><line style="stroke:#000000;stroke-width:1.0;stroke-dasharray:2.0,2.0;" x1="48.5" x2="257.5" y1="1490.6592" y2="1490.6592"/><text fill="#000000" font-family="Verdana" font-size="13" lengthAdjust="spacing" textLength="125" x="60.5" y="1485.9297">Display login error</text><!--SRC=[ZLLDZzem4BtdLqovR5PbgNheXKEbB069YYuH7xTUlF40ReETscPPMlM_T_oH41OgLKBWpBmtysOo7jxP7UuHwee9cIIij4f3RsrGzu0PM2VFwY0vqoVeJRII5YNtZabIqfDM5VHcQYlaA3nLaJTwurwYVX4bUjyiGMc5fOXPML9qwwrPQosO5HYjHMlDbPFcZNbhN629jHLA2XFmYtDilXSoHCwJP0qFds4oX35LeA5oag3Ko1sQLIQPEFze2CLykO8Ftfz8PH6qsExi47mHkLN9A09VM2KuizWuqYeUxWDaDWnPElPPj3TKr-IqtYc9SptUCr7reMR679Nc4PmDOICaVpmL7TG5vJx98h3MmkpPW1tiRk184w6DJRq_f7MURp9beUUWiQH4S1Hs1pjcTiWxsLkjpwK-rNPGgdtDDAODek-Z3Su4LbaeuXDGO8fk4u2cYYrQL-tZQSfJpnJ40VYNzhKKFm-OHaXGSY1-Hpv7I-MRe9_c31suoKXmUhdKuYz7Mx1JfHXF7V- -0s2SBuYshB4K6r5EvKQr6FguWfmV10rXjfgEdrPaZVJ2LnJdzF7aIfk63B4mW2BYOcbrmBwjpkE2deYW4kE9g6eZd0AI5i3qXPN1LbW-7wtcYxEktEiAD-Msh3p2eYpkeTUgyaPL092eS6Wr-RORrpjgrEcskiLuD2vMq_dJTDdftS9hx5xSsqeN4HoLwWxXMk-YqTk5aUhkut_qCyk_Jf_EKhFGJxz9RelCyWRNZB33NklBsePwW9jZztibYRRhvHX_Fzg14Lit57wC-s2GHjlsuJU-raAZcSeXt7tynE_-nEaE-uayjP86AHN50Aj-e8Jt_XRvR7Hsj-R1nFa7saZCHHZv29EB265VcaDPeebNZeMpZ-je4qzR3o4NXlvBJYsQIKwXk8WR8V4DRrU5a1VB8cYtEwsEi9Pk7oWjVY4VlyRtc5v8HAtzS0hfTsfteyEUahCjtjGMwl7inBNyBm00]--></g></svg>